<?xml version="1.0" encoding="UTF-8" standalone="no"?>
<!-- Created with Inkscape (http://www.inkscape.org/) -->

<svg
   width="1539.3101"
   height="1026.871"
   viewBox="0 0 407.27065 271.68952"
   version="1.1"
   id="svg5"
   inkscape:version="1.1 (c68e22c387, 2021-05-23)"
   sodipodi:docname="triangles.svg"
   xmlns:inkscape="http://www.inkscape.org/namespaces/inkscape"
   xmlns:sodipodi="http://sodipodi.sourceforge.net/DTD/sodipodi-0.dtd"
   xmlns:xlink="http://www.w3.org/1999/xlink"
   xmlns="http://www.w3.org/2000/svg"
   xmlns:svg="http://www.w3.org/2000/svg">
  <sodipodi:namedview
     id="namedview7"
     pagecolor="#505050"
     bordercolor="#ffffff"
     borderopacity="1"
     inkscape:pageshadow="0"
     inkscape:pageopacity="0"
     inkscape:pagecheckerboard="1"
     inkscape:document-units="px"
     showgrid="false"
     width="505.664mm"
     units="px"
     inkscape:zoom="0.5052024"
     inkscape:cx="761.0811"
     inkscape:cy="489.90266"
     inkscape:window-width="1920"
     inkscape:window-height="991"
     inkscape:window-x="-9"
     inkscape:window-y="-9"
     inkscape:window-maximized="1"
     inkscape:current-layer="layer1" />
  <defs
     id="defs2">
    <linearGradient
       inkscape:collect="always"
       id="linearGradient4713">
      <stop
         style="stop-color:#ff9400;stop-opacity:1"
         offset="0"
         id="stop4709" />
      <stop
         style="stop-color:#ffcc00;stop-opacity:1"
         offset="1"
         id="stop4711" />
    </linearGradient>
    <clipPath
       clipPathUnits="userSpaceOnUse"
       id="clipPath5805">
      <rect
         style="opacity:1;fill:#ffffff;stroke:#000000;stroke-width:2.65325;paint-order:stroke fill markers"
         id="rect5807"
         width="574.42401"
         height="407.71231"
         x="-425.40677"
         y="32.935978" />
    </clipPath>
    <linearGradient
       inkscape:collect="always"
       xlink:href="#linearGradient50653"
       id="linearGradient5586"
       gradientUnits="userSpaceOnUse"
       gradientTransform="matrix(-1.1619392,4.3364162,-4.3364162,-1.1619392,3959.7801,-168.91517)"
       x1="236.31744"
       y1="592.23981"
       x2="236.31744"
       y2="465.52701" />
    <linearGradient
       inkscape:collect="always"
       id="linearGradient50653">
      <stop
         style="stop-color:#800000;stop-opacity:1"
         offset="0"
         id="stop50649" />
      <stop
         style="stop-color:#ff0000;stop-opacity:0;"
         offset="1"
         id="stop50651" />
    </linearGradient>
    <linearGradient
       inkscape:collect="always"
       xlink:href="#linearGradient42527"
       id="linearGradient5113"
       gradientUnits="userSpaceOnUse"
       gradientTransform="matrix(0.07009646,0,0,0.07009646,20.86927,-148.98513)"
       x1="231.49336"
       y1="452.87482"
       x2="231.49336"
       y2="327.76132" />
    <linearGradient
       inkscape:collect="always"
       id="linearGradient42527">
      <stop
         style="stop-color:#2d5116;stop-opacity:1"
         offset="0"
         id="stop42523" />
      <stop
         style="stop-color:#5aa02c;stop-opacity:0;"
         offset="1"
         id="stop42525" />
    </linearGradient>
    <linearGradient
       inkscape:collect="always"
       xlink:href="#linearGradient62249"
       id="linearGradient5117"
       gradientUnits="userSpaceOnUse"
       gradientTransform="matrix(0.07009646,9.1755561e-6,-9.1755561e-6,0.07009646,20.873535,-148.9884)"
       x1="350.06433"
       y1="522.47559"
       x2="350.06433"
       y2="398.52744" />
    <linearGradient
       inkscape:collect="always"
       id="linearGradient62249">
      <stop
         style="stop-color:#0067ff;stop-opacity:1"
         offset="0"
         id="stop62245" />
      <stop
         style="stop-color:#00ccff;stop-opacity:0;"
         offset="1"
         id="stop62247" />
    </linearGradient>
    <linearGradient
       inkscape:collect="always"
       xlink:href="#linearGradient22868"
       id="linearGradient5119"
       gradientUnits="userSpaceOnUse"
       gradientTransform="matrix(0.07009646,0,0,0.07009646,20.86927,-148.98513)"
       x1="277.54178"
       y1="460.64337"
       x2="296.17435"
       y2="460.44223" />
    <linearGradient
       inkscape:collect="always"
       id="linearGradient22868">
      <stop
         style="stop-color:#ff9400;stop-opacity:1"
         offset="0"
         id="stop22864" />
      <stop
         style="stop-color:#ffcc00;stop-opacity:0;"
         offset="1"
         id="stop22866" />
    </linearGradient>
    <linearGradient
       inkscape:collect="always"
       xlink:href="#linearGradient50653"
       id="linearGradient931"
       gradientUnits="userSpaceOnUse"
       gradientTransform="matrix(0.07009646,0,0,0.07009646,20.86927,-148.98513)"
       x1="236.31744"
       y1="592.23981"
       x2="236.31744"
       y2="465.52701" />
    <linearGradient
       inkscape:collect="always"
       xlink:href="#linearGradient4713"
       id="linearGradient933"
       gradientUnits="userSpaceOnUse"
       gradientTransform="matrix(-1.9310422,7.2067467,-7.2067467,-1.9310422,4667.0478,-730.46536)"
       x1="231.49336"
       y1="452.87482"
       x2="231.49336"
       y2="327.76132" />
  </defs>
  <g
     inkscape:label="Layer 1"
     inkscape:groupmode="layer"
     id="layer1">
    <g
       id="g17946">
      <g
         id="g5584"
         transform="matrix(2.0390481,1.177245,-1.177245,2.0390481,79.736714,209.57174)">
        <path
           class="st1"
           d="m 41.212669,-112.51885 -6.462197,-3.73054 c -0.429691,-0.24814 -0.965929,0.0617 -0.965929,0.55797 v 7.46177 c 0,0.49558 0.536939,0.80541 0.965929,0.55797 l 6.462197,-3.73054 c 0.42899,-0.24884 0.42899,-0.86849 0,-1.11663 l -6.462197,-3.73054 c -0.429691,-0.24814 -0.965929,0.0617 -0.965929,0.55797 v 7.46177 c 0,0.49558 0.536939,0.80541 0.965929,0.55797 l 6.462197,-3.73054 c 0.42899,-0.24884 0.42899,-0.86849 0,-1.11663 z"
           id="path5580"
           style="fill:#ff0000;fill-opacity:1;stroke-width:0.0700965" />
        <path
           class="st1"
           d="m 41.212669,-112.51885 -6.462197,-3.73054 c -0.429691,-0.24814 -0.965929,0.0617 -0.965929,0.55797 v 7.46177 c 0,0.49558 0.536939,0.80541 0.965929,0.55797 l 6.462197,-3.73054 c 0.42899,-0.24884 0.42899,-0.86849 0,-1.11663 l -6.462197,-3.73054 c -0.429691,-0.24814 -0.965929,0.0617 -0.965929,0.55797 v 7.46177 c 0,0.49558 0.536939,0.80541 0.965929,0.55797 l 6.462197,-3.73054 c 0.42899,-0.24884 0.42899,-0.86849 0,-1.11663 z"
           id="path5582"
           style="fill:url(#linearGradient931);fill-opacity:1;stroke-width:0.0700965" />
      </g>
      <path
         id="path5085"
         style="fill:#5aa02c;fill-opacity:1;stroke:none;stroke-width:7.46099"
         class="st0"
         d="M 1098.2832 -260.90039 C 1096.7519 -260.88315 1095.2321 -260.81302 1093.7246 -260.69336 C 1092.2171 -260.5737 1090.7225 -260.4042 1089.2422 -260.18555 C 1086.2816 -259.74825 1083.3782 -259.11742 1080.5469 -258.30469 C 1079.1312 -257.89832 1077.7337 -257.44627 1076.3555 -256.95117 C 1069.4644 -254.4757 1063.0621 -250.91158 1057.3633 -246.47461 C 1055.0837 -244.69982 1052.9179 -242.78486 1050.877 -240.74414 C 1048.836 -238.70342 1046.9215 -236.53709 1045.1465 -234.25781 C 1041.5964 -229.69926 1038.6038 -224.69226 1036.2812 -219.34375 C 1035.7006 -218.00662 1035.1633 -216.64748 1034.668 -215.26953 C 1033.1818 -211.1357 1032.087 -206.82631 1031.4297 -202.38672 C 1031.2106 -200.90685 1031.0401 -199.41129 1030.9199 -197.9043 C 1030.7997 -196.3973 1030.7288 -194.87836 1030.7109 -193.34766 C 1030.6396 -187.22486 1031.4008 -180.92577 1033.1035 -174.56055 L 1238.625 592.59961 C 1239.2703 594.98838 1240.024 597.30328 1240.8809 599.54102 C 1241.1665 600.28693 1241.4635 601.02314 1241.7715 601.75195 C 1242.6954 603.9384 1243.7194 606.04833 1244.834 608.07812 C 1245.2055 608.75472 1245.587 609.42315 1245.9785 610.08203 C 1248.3278 614.03531 1251.0327 617.66711 1254.0293 620.96289 C 1261.0212 628.65303 1269.6036 634.50791 1278.9785 638.3125 C 1280.3178 638.85601 1281.6737 639.35718 1283.043 639.81641 C 1284.4122 640.27563 1285.7948 640.69272 1287.1895 641.06641 C 1289.9787 641.81378 1292.8131 642.38938 1295.6758 642.78711 C 1297.1071 642.98597 1298.5456 643.14042 1299.9883 643.25 C 1302.8736 643.46916 1305.7768 643.50873 1308.6797 643.36328 C 1310.1311 643.29055 1311.5824 643.17161 1313.0312 643.00586 C 1322.4487 641.92846 1331.7628 638.87155 1340.332 633.66602 C 1343.6279 631.66389 1346.8142 629.34517 1349.8535 626.69727 C 1350.4614 626.16769 1351.0623 625.62424 1351.6582 625.06836 C 1352.2541 624.51248 1352.8445 623.94366 1353.4277 623.36133 L 1914.9941 61.740234 C 1915.5777 61.156774 1916.148 60.566727 1916.7051 59.970703 C 1917.8192 58.778656 1918.8796 57.563025 1919.8887 56.324219 C 1920.3932 55.704815 1920.8848 55.079438 1921.3633 54.449219 C 1924.2344 50.6679 1926.6401 46.696948 1928.5938 42.599609 C 1929.245 41.23383 1929.8447 39.854467 1930.3965 38.462891 C 1932.0519 34.288161 1933.2639 30.008598 1934.0469 25.685547 C 1934.3079 24.24453 1934.5209 22.79779 1934.6875 21.349609 C 1935.1872 17.005067 1935.2651 12.639619 1934.9375 8.3144531 C 1934.3914 1.1058439 1932.7192 -5.9887786 1930 -12.677734 C 1929.4562 -14.015526 1928.8712 -15.337595 1928.2441 -16.640625 C 1927.6171 -17.943655 1926.9472 -19.228577 1926.2383 -20.492188 C 1925.5293 -21.755798 1924.7798 -22.997264 1923.9902 -24.216797 C 1923.2006 -25.43633 1922.371 -26.63389 1921.502 -27.804688 C 1920.6329 -28.975485 1919.7245 -30.120878 1918.7773 -31.238281 C 1917.8301 -32.355684 1916.8444 -33.444556 1915.8203 -34.503906 C 1914.7962 -35.563257 1913.7346 -36.593204 1912.6348 -37.589844 C 1911.535 -38.586484 1910.3969 -39.549245 1909.2227 -40.478516 C 1908.0484 -41.407786 1906.8372 -42.302913 1905.5898 -43.160156 C 1904.3425 -44.0174 1903.0595 -44.83663 1901.7402 -45.617188 C 1901.0806 -46.007466 1900.4118 -46.389532 1899.7344 -46.759766 C 1899.057 -47.13 1898.3708 -47.488284 1897.6758 -47.837891 C 1896.9808 -48.187497 1896.2769 -48.527071 1895.5645 -48.855469 C 1894.852 -49.183866 1894.132 -49.501988 1893.4023 -49.808594 C 1892.6727 -50.115199 1891.9343 -50.411081 1891.1875 -50.695312 C 1890.4407 -50.979544 1889.6856 -51.252396 1888.9219 -51.513672 C 1888.1581 -51.774947 1887.386 -52.023982 1886.6055 -52.261719 C 1885.8249 -52.499456 1885.0355 -52.725837 1884.2383 -52.939453 L 1117.0801 -258.49805 C 1116.284 -258.71137 1115.4891 -258.90967 1114.6953 -259.09375 C 1113.9015 -259.27783 1113.1075 -259.44825 1112.3164 -259.60352 C 1110.7343 -259.91405 1109.1584 -260.16738 1107.5898 -260.36523 C 1106.0213 -260.56309 1104.4598 -260.70633 1102.9082 -260.79492 C 1101.3566 -260.88352 1099.8145 -260.91763 1098.2832 -260.90039 z M 1288.4023 -94.939453 C 1289.7854 -94.952846 1291.187 -94.872166 1292.6035 -94.691406 C 1294.02 -94.510646 1295.4512 -94.22903 1296.8887 -93.841797 L 1643.1328 -0.36328125 C 1644.5722 0.025335628 1645.9525 0.50225558 1647.2695 1.0585938 C 1648.5866 1.6149319 1649.841 2.2498074 1651.0312 2.9570312 C 1652.2215 3.6642551 1653.3473 4.4438822 1654.4062 5.2851562 C 1655.4652 6.1264303 1656.4558 7.0297927 1657.3789 7.9882812 C 1659.2251 9.9052584 1660.7961 12.039397 1662.0723 14.324219 C 1662.7104 15.46663 1663.2748 16.648303 1663.7637 17.857422 C 1664.7414 20.275659 1665.4157 22.810476 1665.7695 25.394531 C 1665.9464 26.686559 1666.0444 27.9906 1666.0586 29.298828 C 1666.0728 30.607057 1666.0045 31.918968 1665.8516 33.226562 C 1665.2397 38.456939 1663.2707 43.615309 1659.8047 48.162109 C 1658.9382 49.29881 1657.978 50.397331 1656.9219 51.449219 L 1402.8594 304.57422 C 1401.8053 305.62666 1400.705 306.58476 1399.5664 307.44727 C 1398.4279 308.30977 1397.2511 309.07679 1396.0449 309.75391 C 1394.8387 310.43102 1393.6027 311.01741 1392.3457 311.51367 C 1389.8317 312.5062 1387.2336 313.14113 1384.6172 313.4375 C 1383.309 313.58568 1381.9961 313.6499 1380.6875 313.63086 C 1376.7617 313.57373 1372.8725 312.77341 1369.2461 311.29297 C 1364.411 309.31904 1360.0446 306.13472 1356.6836 301.88477 C 1354.1628 298.6973 1352.2067 294.91062 1351.0449 290.58594 L 1258.8965 -56.011719 C 1255.8428 -67.514682 1259.5901 -78.520347 1266.9766 -85.876953 C 1269.7465 -88.63568 1273.0279 -90.881486 1276.6543 -92.447266 C 1279.0719 -93.491119 1281.6437 -94.232598 1284.3184 -94.623047 C 1285.6557 -94.818271 1287.0193 -94.926061 1288.4023 -94.939453 z "
         transform="scale(0.26458)" />
      <path
         id="path5087"
         style="fill:url(#linearGradient933);fill-opacity:1;stroke:none;stroke-width:7.46099"
         class="st0"
         d="M 1098.2832 -260.90039 C 1096.7519 -260.88315 1095.2321 -260.81302 1093.7246 -260.69336 C 1092.2171 -260.5737 1090.7225 -260.4042 1089.2422 -260.18555 C 1086.2816 -259.74825 1083.3782 -259.11742 1080.5469 -258.30469 C 1077.7156 -257.49195 1074.9561 -256.49673 1072.2812 -255.33594 C 1070.9439 -254.75554 1069.629 -254.13494 1068.3359 -253.47266 C 1067.0429 -252.81038 1065.7727 -252.10793 1064.5273 -251.36719 C 1060.7912 -249.14496 1057.2769 -246.57575 1054.0312 -243.70898 C 1052.9494 -242.7534 1051.8974 -241.7645 1050.877 -240.74414 C 1048.836 -238.70342 1046.9215 -236.53709 1045.1465 -234.25781 C 1042.4839 -230.8389 1040.1359 -227.16773 1038.1484 -223.28906 C 1037.486 -221.99617 1036.862 -220.68088 1036.2812 -219.34375 C 1033.378 -212.65811 1031.5208 -205.43926 1030.9199 -197.9043 C 1030.7997 -196.3973 1030.7288 -194.87836 1030.7109 -193.34766 C 1030.6753 -190.28626 1030.848 -187.18062 1031.2422 -184.04492 C 1031.6364 -180.90923 1032.2522 -177.74316 1033.1035 -174.56055 L 1238.625 592.59961 C 1239.9155 597.37715 1241.6445 601.85652 1243.75 606.02148 C 1244.4518 607.40981 1245.1954 608.76427 1245.9785 610.08203 C 1248.3278 614.03531 1251.0327 617.66711 1254.0293 620.96289 C 1256.027 623.16007 1258.1538 625.20713 1260.3926 627.09961 C 1267.109 632.77704 1274.8273 637.06107 1283.043 639.81641 C 1285.7815 640.73485 1288.5757 641.4848 1291.4062 642.05859 C 1295.6522 642.91929 1299.9799 643.3862 1304.3281 643.44336 C 1305.7775 643.46241 1307.2282 643.43601 1308.6797 643.36328 C 1311.5826 643.21783 1314.486 642.88724 1317.3691 642.36719 C 1318.8107 642.10716 1320.2481 641.79891 1321.6777 641.44336 C 1323.1074 641.08781 1324.5283 640.68474 1325.9414 640.23242 C 1327.3545 639.7801 1328.7586 639.27886 1330.1504 638.72852 C 1334.3258 637.07749 1338.3945 634.9834 1342.2949 632.42773 C 1343.5951 631.57585 1344.8764 630.6717 1346.1367 629.7168 C 1347.397 628.7619 1348.6378 627.75643 1349.8535 626.69727 C 1351.0693 625.6381 1352.2612 624.526 1353.4277 623.36133 L 1914.9941 61.740234 C 1916.1613 60.573313 1917.2745 59.382025 1918.3359 58.166016 C 1924.7048 50.869959 1929.1826 42.732149 1931.9043 34.255859 C 1932.3579 32.843144 1932.7625 31.421383 1933.1191 29.992188 C 1934.1892 25.704601 1934.8267 21.352058 1935.0469 17 C 1935.1203 15.549314 1935.1474 14.098924 1935.1289 12.650391 C 1935.0733 8.3047909 1934.6065 3.9787015 1933.7461 -0.26367188 C 1933.4593 -1.6777963 1933.1296 -3.0812711 1932.7559 -4.4746094 C 1932.3821 -5.8679477 1931.9653 -7.2512467 1931.5059 -8.6191406 C 1930.587 -11.354928 1929.4982 -14.034565 1928.2441 -16.640625 C 1926.9901 -19.246685 1925.5695 -21.77773 1923.9902 -24.216797 C 1923.2006 -25.43633 1922.371 -26.633889 1921.502 -27.804688 C 1920.6329 -28.975485 1919.7245 -30.120878 1918.7773 -31.238281 C 1917.8301 -32.355684 1916.8444 -33.444556 1915.8203 -34.503906 C 1914.7962 -35.563257 1913.7346 -36.593204 1912.6348 -37.589844 C 1911.535 -38.586484 1910.3969 -39.549245 1909.2227 -40.478516 C 1908.0484 -41.407786 1906.8372 -42.302913 1905.5898 -43.160156 C 1904.3425 -44.0174 1903.0595 -44.836629 1901.7402 -45.617188 C 1900.4209 -46.397745 1899.0657 -47.138677 1897.6758 -47.837891 C 1896.2858 -48.537104 1894.8617 -49.195382 1893.4023 -49.808594 C 1891.943 -50.421805 1890.4494 -50.991121 1888.9219 -51.513672 C 1887.3943 -52.036223 1885.8327 -52.512221 1884.2383 -52.939453 L 1117.0801 -258.49805 C 1110.7111 -260.2046 1104.4083 -260.96936 1098.2832 -260.90039 z M 1288.4023 -94.939453 C 1291.1685 -94.966238 1294.0137 -94.616263 1296.8887 -93.841797 L 1643.1328 -0.36328125 C 1643.8525 -0.16897281 1644.5567 0.047865263 1645.2461 0.28515625 C 1645.9355 0.52244724 1646.611 0.78042466 1647.2695 1.0585938 C 1647.928 1.3367628 1648.5702 1.6342291 1649.1973 1.9511719 C 1649.8244 2.2681146 1650.4361 2.6034193 1651.0312 2.9570312 C 1651.6264 3.3106432 1652.205 3.6821358 1652.7676 4.0703125 C 1653.3301 4.4584892 1653.8768 4.8645192 1654.4062 5.2851562 C 1654.9357 5.7057933 1655.4476 6.1427571 1655.9434 6.59375 C 1656.4391 7.0447429 1656.9173 7.509037 1657.3789 7.9882812 C 1657.8405 8.4675255 1658.2861 8.9614056 1658.7129 9.4667969 C 1659.1397 9.9721881 1659.548 10.490097 1659.9395 11.019531 C 1660.3309 11.548965 1660.705 12.089253 1661.0605 12.640625 C 1661.7716 13.743369 1662.4106 14.888537 1662.9746 16.066406 C 1663.5386 17.244276 1664.0269 18.455247 1664.4395 19.691406 C 1664.6457 20.309486 1664.8324 20.933005 1665 21.5625 C 1665.1676 22.191995 1665.317 22.82799 1665.4453 23.466797 C 1665.8302 25.383217 1666.0373 27.336485 1666.0586 29.298828 C 1666.0657 29.952942 1666.052 30.606711 1666.0176 31.261719 C 1665.9144 33.226742 1665.6217 35.191767 1665.1348 37.126953 C 1664.9725 37.772015 1664.7881 38.413243 1664.582 39.050781 C 1663.9638 40.963395 1663.149 42.837516 1662.127 44.644531 C 1661.1049 46.451547 1659.8767 48.19134 1658.4355 49.835938 C 1657.9552 50.384137 1657.4499 50.923275 1656.9219 51.449219 L 1402.8594 304.57422 C 1402.3323 305.10044 1401.7953 305.60358 1401.2461 306.08203 C 1400.6969 306.56048 1400.1357 307.01601 1399.5664 307.44727 C 1398.9971 307.87852 1398.4193 308.2853 1397.832 308.66992 C 1396.0703 309.82378 1394.2312 310.76928 1392.3457 311.51367 C 1391.7172 311.7618 1391.0834 311.98764 1390.4453 312.19141 C 1389.8073 312.39518 1389.165 312.57635 1388.5195 312.73633 C 1387.874 312.8963 1387.227 313.03559 1386.5762 313.15234 C 1385.2745 313.38584 1383.9628 313.53365 1382.6523 313.59766 C 1381.9971 313.62966 1381.3418 313.64038 1380.6875 313.63086 C 1378.7246 313.60229 1376.7719 313.38815 1374.8555 312.99609 C 1373.5779 312.73472 1372.316 312.39381 1371.0801 311.97656 C 1369.2303 311.35209 1367.4379 310.55469 1365.7285 309.59375 C 1365.7247 309.5916 1365.7206 309.59004 1365.7168 309.58789 C 1365.7163 309.58762 1365.7153 309.58816 1365.7148 309.58789 C 1365.71 309.58515 1365.706 309.58086 1365.7012 309.57812 C 1363.9942 308.61629 1362.3696 307.49141 1360.8594 306.20898 C 1359.8494 305.35136 1358.8913 304.42307 1357.9902 303.42773 C 1356.6387 301.93473 1355.4185 300.29008 1354.3594 298.5 C 1354.0063 297.90331 1353.6699 297.29068 1353.3535 296.66211 C 1352.4045 294.77641 1351.6258 292.74828 1351.0449 290.58594 L 1258.8965 -56.011719 C 1258.5148 -57.449589 1258.2398 -58.878716 1258.0645 -60.294922 C 1257.8891 -61.711127 1257.8133 -63.113874 1257.832 -64.496094 C 1257.8414 -65.187204 1257.8742 -65.872431 1257.9297 -66.552734 C 1258.0631 -68.187298 1258.3417 -69.784745 1258.7266 -71.341797 C 1258.7583 -71.470097 1258.7909 -71.596914 1258.8242 -71.724609 C 1259.2283 -73.272511 1259.7373 -74.780992 1260.3691 -76.228516 C 1260.6324 -76.831686 1260.9146 -77.424689 1261.2148 -78.007812 C 1262.1155 -79.757182 1263.1777 -81.411898 1264.3828 -82.953125 C 1265.1862 -83.980609 1266.0533 -84.957377 1266.9766 -85.876953 C 1267.4382 -86.336741 1267.915 -86.78239 1268.4043 -87.212891 C 1269.8722 -88.504392 1271.4614 -89.661914 1273.1504 -90.662109 C 1273.7134 -90.995508 1274.2866 -91.311424 1274.8711 -91.609375 C 1275.4556 -91.907326 1276.0499 -92.186302 1276.6543 -92.447266 C 1277.8631 -92.969192 1279.1114 -93.416514 1280.3906 -93.78125 C 1281.6699 -94.145986 1282.981 -94.427822 1284.3184 -94.623047 C 1284.987 -94.720659 1285.6629 -94.796685 1286.3438 -94.849609 C 1287.0246 -94.902534 1287.7108 -94.932757 1288.4023 -94.939453 z "
         transform="scale(0.26458)" />
      <path
         id="path5091"
         style="fill:#ff0000;fill-opacity:1;stroke-width:4.48938"
         class="st1"
         d="M 1213.1035 -46.949219 C 1212.1821 -46.938844 1211.2684 -46.898171 1210.3613 -46.826172 C 1209.4542 -46.754173 1208.5548 -46.651096 1207.6641 -46.519531 C 1205.8826 -46.256402 1204.1353 -45.877708 1202.4316 -45.388672 C 1200.728 -44.899635 1199.0684 -44.300033 1197.459 -43.601562 C 1196.6543 -43.252327 1195.8621 -42.878974 1195.084 -42.480469 C 1194.3059 -42.081964 1193.5404 -41.658607 1192.791 -41.212891 C 1190.5429 -39.875743 1188.4294 -38.330449 1186.4766 -36.605469 C 1185.8256 -36.030475 1185.1922 -35.436233 1184.5781 -34.822266 C 1183.35 -33.59433 1182.1989 -32.291399 1181.1309 -30.919922 C 1179.5287 -28.862706 1178.1158 -26.652216 1176.9199 -24.318359 C 1176.5213 -23.540407 1176.1463 -22.749884 1175.7969 -21.945312 C 1174.05 -17.922455 1172.9319 -13.578834 1172.5703 -9.0449219 C 1172.498 -8.1381395 1172.456 -7.2237816 1172.4453 -6.3027344 C 1172.4238 -4.46064 1172.5265 -2.5918769 1172.7637 -0.70507812 C 1173.0009 1.1817207 1173.3725 3.0869228 1173.8848 5.0019531 L 1297.5488 466.61523 C 1298.3254 469.48996 1299.3659 472.18528 1300.6328 474.69141 C 1301.0551 475.52678 1301.5034 476.33989 1301.9746 477.13281 C 1303.3882 479.51157 1305.0153 481.69852 1306.8184 483.68164 C 1308.0204 485.00372 1309.3013 486.23627 1310.6484 487.375 C 1314.6898 490.7912 1319.3319 493.36746 1324.2754 495.02539 C 1325.9232 495.57803 1327.6054 496.02974 1329.3086 496.375 C 1331.8634 496.89289 1334.4676 497.17264 1337.084 497.20703 C 1337.9561 497.21849 1338.8298 497.20392 1339.7031 497.16016 C 1341.4498 497.07263 1343.1968 496.87347 1344.9316 496.56055 C 1345.7991 496.40408 1346.6632 496.2198 1347.5234 496.00586 C 1348.3837 495.79192 1349.2396 495.54756 1350.0898 495.27539 C 1350.9401 495.00322 1351.7836 494.70224 1352.6211 494.37109 C 1355.1335 493.37764 1357.5827 492.11786 1359.9297 490.58008 C 1360.712 490.06748 1361.4839 489.5238 1362.2422 488.94922 C 1363.0005 488.37464 1363.745 487.76817 1364.4766 487.13086 C 1365.2081 486.49354 1365.927 485.8258 1366.6289 485.125 L 1704.5312 147.1875 C 1705.2335 146.48534 1705.9043 145.7688 1706.543 145.03711 C 1710.3752 140.64695 1713.0693 135.75071 1714.707 130.65039 C 1714.98 129.80034 1715.2229 128.94395 1715.4375 128.08398 C 1716.0814 125.50407 1716.4652 122.88628 1716.5977 120.26758 C 1716.6418 119.39468 1716.6576 118.522 1716.6465 117.65039 C 1716.613 115.03557 1716.3322 112.43161 1715.8145 109.87891 C 1715.6419 109.028 1715.4436 108.1841 1715.2188 107.3457 C 1714.9939 106.50731 1714.7432 105.67465 1714.4668 104.85156 C 1713.9139 103.20539 1713.2585 101.5935 1712.5039 100.02539 C 1711.7493 98.457282 1710.8956 96.932469 1709.9453 95.464844 C 1709.4702 94.731031 1708.9702 94.011128 1708.4473 93.306641 C 1707.9244 92.602153 1707.3785 91.914547 1706.8086 91.242188 C 1706.2386 90.569828 1705.6455 89.912819 1705.0293 89.275391 C 1704.4131 88.637962 1703.7731 88.019616 1703.1113 87.419922 C 1702.4496 86.820228 1701.7651 86.240798 1701.0586 85.681641 C 1700.3521 85.122483 1699.6236 84.584177 1698.873 84.068359 C 1698.1225 83.552542 1697.3505 83.057565 1696.5566 82.587891 C 1695.7628 82.118217 1694.9477 81.672681 1694.1113 81.251953 C 1693.275 80.831225 1692.4172 80.435385 1691.5391 80.066406 C 1690.6609 79.697427 1689.7629 79.355443 1688.8438 79.041016 C 1687.9246 78.726588 1686.9848 78.440666 1686.0254 78.183594 L 1641.9434 66.371094 L 1402.8594 304.57422 C 1402.3323 305.10044 1401.7953 305.60358 1401.2461 306.08203 C 1400.6969 306.56048 1400.1357 307.01601 1399.5664 307.44727 C 1398.9971 307.87852 1398.4193 308.2853 1397.832 308.66992 C 1396.0703 309.82378 1394.2312 310.76928 1392.3457 311.51367 C 1391.7172 311.7618 1391.0834 311.98764 1390.4453 312.19141 C 1389.8073 312.39518 1389.165 312.57635 1388.5195 312.73633 C 1387.874 312.8963 1387.227 313.03559 1386.5762 313.15234 C 1385.2745 313.38584 1383.9628 313.53365 1382.6523 313.59766 C 1381.9971 313.62966 1381.3418 313.64038 1380.6875 313.63086 C 1378.7246 313.60229 1376.7719 313.38815 1374.8555 312.99609 C 1373.5779 312.73472 1372.316 312.39381 1371.0801 311.97656 C 1367.3723 310.72482 1363.8894 308.78186 1360.8594 306.20898 C 1359.8494 305.35136 1358.8913 304.42307 1357.9902 303.42773 C 1356.6387 301.93473 1355.4185 300.29008 1354.3594 298.5 C 1354.0063 297.90331 1353.6699 297.29068 1353.3535 296.66211 C 1352.4045 294.77641 1351.6258 292.74828 1351.0449 290.58594 L 1264.5488 -34.751953 L 1224.4141 -45.505859 C 1220.5818 -46.532719 1216.7891 -46.990717 1213.1035 -46.949219 z "
         transform="scale(0.26458)" />
      <path
         id="path5093"
         style="fill:url(#linearGradient5586);fill-opacity:1;stroke-width:4.48938"
         class="st1"
         d="M 1213.1035 -46.949219 C 1212.1821 -46.938844 1211.2684 -46.898171 1210.3613 -46.826172 C 1209.4542 -46.754173 1208.5548 -46.651096 1207.6641 -46.519531 C 1205.8826 -46.256402 1204.1353 -45.877708 1202.4316 -45.388672 C 1200.728 -44.899635 1199.0684 -44.300034 1197.459 -43.601562 C 1196.6543 -43.252327 1195.8621 -42.878974 1195.084 -42.480469 C 1194.3059 -42.081964 1193.5404 -41.658607 1192.791 -41.212891 C 1190.5429 -39.875743 1188.4294 -38.330449 1186.4766 -36.605469 C 1185.8256 -36.030475 1185.1922 -35.436233 1184.5781 -34.822266 C 1183.35 -33.59433 1182.1989 -32.291399 1181.1309 -30.919922 C 1179.5287 -28.862706 1178.1158 -26.652216 1176.9199 -24.318359 C 1176.5213 -23.540407 1176.1463 -22.749885 1175.7969 -21.945312 C 1174.05 -17.922455 1172.9319 -13.578834 1172.5703 -9.0449219 C 1172.498 -8.1381395 1172.456 -7.2237816 1172.4453 -6.3027344 C 1172.4238 -4.46064 1172.5265 -2.5918769 1172.7637 -0.70507812 C 1173.0009 1.1817207 1173.3725 3.0869228 1173.8848 5.0019531 L 1297.5488 466.61523 C 1298.3254 469.48996 1299.3659 472.18528 1300.6328 474.69141 C 1301.0551 475.52678 1301.5034 476.33989 1301.9746 477.13281 C 1303.3882 479.51157 1305.0153 481.69852 1306.8184 483.68164 C 1308.0204 485.00372 1309.3013 486.23627 1310.6484 487.375 C 1314.6898 490.7912 1319.3319 493.36746 1324.2754 495.02539 C 1325.9232 495.57803 1327.6054 496.02974 1329.3086 496.375 C 1331.8634 496.89289 1334.4676 497.17264 1337.084 497.20703 C 1337.9561 497.21849 1338.8298 497.20392 1339.7031 497.16016 C 1341.4498 497.07263 1343.1968 496.87347 1344.9316 496.56055 C 1345.7991 496.40408 1346.6632 496.2198 1347.5234 496.00586 C 1348.3837 495.79192 1349.2396 495.54756 1350.0898 495.27539 C 1350.9401 495.00322 1351.7836 494.70224 1352.6211 494.37109 C 1355.1335 493.37764 1357.5827 492.11786 1359.9297 490.58008 C 1360.712 490.06748 1361.4839 489.5238 1362.2422 488.94922 C 1363.0005 488.37464 1363.745 487.76817 1364.4766 487.13086 C 1365.2081 486.49354 1365.927 485.8258 1366.6289 485.125 L 1704.5312 147.1875 C 1705.2336 146.48534 1705.9043 145.7688 1706.543 145.03711 C 1710.3752 140.64695 1713.0693 135.75071 1714.707 130.65039 C 1714.98 129.80034 1715.2229 128.94395 1715.4375 128.08398 C 1716.0814 125.50407 1716.4652 122.88628 1716.5977 120.26758 C 1716.6418 119.39468 1716.6576 118.522 1716.6465 117.65039 C 1716.613 115.03557 1716.3322 112.43161 1715.8145 109.87891 C 1715.6419 109.028 1715.4436 108.1841 1715.2188 107.3457 C 1714.9938 106.50731 1714.7432 105.67465 1714.4668 104.85156 C 1713.9139 103.20539 1713.2585 101.5935 1712.5039 100.02539 C 1711.7493 98.457283 1710.8956 96.932469 1709.9453 95.464844 C 1709.4702 94.731031 1708.9702 94.011128 1708.4473 93.306641 C 1707.9244 92.602153 1707.3785 91.914547 1706.8086 91.242188 C 1706.2386 90.569827 1705.6455 89.912819 1705.0293 89.275391 C 1704.4131 88.637962 1703.7731 88.019616 1703.1113 87.419922 C 1702.4496 86.820228 1701.7651 86.240798 1701.0586 85.681641 C 1700.3521 85.122483 1699.6236 84.584177 1698.873 84.068359 C 1698.1225 83.552542 1697.3505 83.057565 1696.5566 82.587891 C 1695.7628 82.118217 1694.9477 81.672681 1694.1113 81.251953 C 1693.275 80.831225 1692.4172 80.435385 1691.5391 80.066406 C 1690.6609 79.697427 1689.7629 79.355443 1688.8438 79.041016 C 1687.9245 78.726588 1686.9848 78.440666 1686.0254 78.183594 L 1641.9453 66.371094 L 1402.8594 304.57422 C 1402.3323 305.10044 1401.7953 305.60358 1401.2461 306.08203 C 1400.6969 306.56048 1400.1357 307.01601 1399.5664 307.44727 C 1398.9971 307.87852 1398.4193 308.2853 1397.832 308.66992 C 1396.0703 309.82378 1394.2312 310.76928 1392.3457 311.51367 C 1391.7172 311.7618 1391.0834 311.98764 1390.4453 312.19141 C 1389.8073 312.39518 1389.165 312.57635 1388.5195 312.73633 C 1387.874 312.8963 1387.227 313.03559 1386.5762 313.15234 C 1385.2745 313.38584 1383.9628 313.53365 1382.6523 313.59766 C 1381.9971 313.62966 1381.3418 313.64038 1380.6875 313.63086 C 1378.7246 313.60229 1376.7719 313.38815 1374.8555 312.99609 C 1373.5779 312.73472 1372.316 312.39381 1371.0801 311.97656 C 1369.2303 311.35209 1367.4379 310.55469 1365.7285 309.59375 C 1365.7247 309.5916 1365.7206 309.59004 1365.7168 309.58789 C 1365.7163 309.58762 1365.7153 309.58816 1365.7148 309.58789 C 1365.71 309.58515 1365.706 309.58086 1365.7012 309.57812 C 1363.9942 308.61629 1362.3696 307.49141 1360.8594 306.20898 C 1359.8494 305.35136 1358.8913 304.42307 1357.9902 303.42773 C 1356.6387 301.93473 1355.4185 300.29008 1354.3594 298.5 C 1354.0063 297.90331 1353.6699 297.29068 1353.3535 296.66211 C 1352.4045 294.77641 1351.6258 292.74828 1351.0449 290.58594 L 1264.5488 -34.751953 L 1224.4141 -45.505859 C 1220.5818 -46.532719 1216.7891 -46.990717 1213.1035 -46.949219 z "
         transform="scale(0.26458)" />
      <path
         class="st2"
         d="M 362.51831,82.490203"
         id="path5097"
         style="stroke-width:0.891399" />
      <g
         id="g5109"
         transform="matrix(-6.251087,0,0,-6.352256,549.50429,-641.5421)">
        <path
           class="st3"
           d="m 35.636861,-116.32335 5.248628,2.99655 c 0.34865,0.1988 0.78203,-0.0542 0.78009,-0.45589 l -0.0292,-6.04365 c -0.002,-0.40165 -0.43775,-0.65049 -0.78445,-0.44834 l -5.219454,3.0471 c -0.346703,0.20285 -0.344279,0.70473 0.0044,0.90423 l 5.248624,2.99655 c 0.34865,0.1988 0.78203,-0.0542 0.78009,-0.45589 l -0.0292,-6.04365 c -0.002,-0.40165 -0.43774,-0.65049 -0.78445,-0.44834 l -5.21945,3.0471 c -0.346702,0.20285 -0.344279,0.70473 0.0044,0.90423 z"
           id="path5105"
           style="fill:#ffcc00;fill-opacity:1;stroke-width:0.0700965" />
        <path
           class="st3"
           d="m 35.636861,-116.32335 c 1.847945,0.99885 3.553868,1.9977 5.248628,2.99655 0.34865,0.1988 0.78203,-0.0542 0.78009,-0.45589 l -0.0292,-6.04365 c -0.002,-0.40165 -0.43775,-0.65049 -0.78445,-0.44834 l -5.219454,3.0471 c -0.346703,0.20285 -0.344279,0.70473 0.0044,0.90423 l 5.248624,2.99655 c 0.34865,0.1988 0.78203,-0.0542 0.78009,-0.45589 l -0.0292,-6.04365 c -0.002,-0.40165 -0.43774,-0.65049 -0.78445,-0.44834 l -5.21945,3.0471 c -0.346702,0.20285 -0.344279,0.70473 0.0044,0.90423 z"
           id="path5107"
           style="fill:url(#linearGradient5119);fill-opacity:1;stroke-width:0.0700965"
           sodipodi:nodetypes="ccscccccscccsc" />
      </g>
      <g
         id="g5472"
         transform="matrix(0.03920286,-2.2426358,2.2426358,0.03920286,516.08724,114.83555)">
        <path
           class="st2"
           d="M 49.953689,-116.80525"
           id="path5466"
           style="stroke-width:0.0700965" />
        <path
           class="st2"
           d="m 49.622119,-117.41782 -6.51954,-3.62937 c -0.43351,-0.24142 -0.96485,0.0767 -0.95712,0.57295 l 0.11628,7.46086 c 0.008,0.49552 0.54943,0.79694 0.97451,0.54285 l 6.40327,-3.83079 c 0.42575,-0.25621 0.4161,-0.87578 -0.0174,-1.1165 l -6.51954,-3.62937 c -0.43351,-0.24142 -0.96485,0.0767 -0.95712,0.57295 l 0.11628,7.46086 c 0.008,0.49552 0.54943,0.79694 0.97451,0.54285 l 6.40327,-3.83079 c 0.42575,-0.25621 0.4161,-0.87578 -0.0174,-1.1165 z"
           id="path5468"
           style="fill:#00ccff;fill-opacity:1;stroke-width:0.0700965" />
        <path
           class="st2"
           d="m 49.622258,-117.41732 -6.519069,-3.63024 c -0.433476,-0.24147 -0.964864,0.0766 -0.9572,0.57284 l 0.11527,7.46087 c 0.0078,0.49552 0.549319,0.79702 0.974433,0.54297 l 6.403772,-3.82994 c 0.425786,-0.25615 0.416216,-0.87573 -0.01723,-1.1165 l -6.519069,-3.63024 c -0.433476,-0.24147 -0.964864,0.0766 -0.9572,0.57284 l 0.11527,7.46087 c 0.0078,0.49552 0.549319,0.79702 0.974433,0.54297 l 6.403772,-3.82994 c 0.425786,-0.25615 0.416216,-0.87573 -0.01723,-1.1165 z"
           id="path5470"
           style="fill:url(#linearGradient5117);fill-opacity:1;stroke-width:0.0700965" />
      </g>
      <g
         id="g5591"
         transform="matrix(0.28845995,-0.28845995,0.28845995,0.28845995,250.47181,-15.208837)">
        <g
           id="g5576"
           transform="matrix(-3.8520285,2.2239696,-2.2239696,-3.8520285,-290.90807,-467.34419)"
           style="opacity:1">
          <path
             class="st0"
             d="m 41.212669,-122.20618 -6.462197,-3.73054 c -0.429691,-0.24814 -0.965929,0.0617 -0.965929,0.55797 v 7.46177 c 0,0.49558 0.536939,0.80541 0.965929,0.55797 l 6.462197,-3.73054 c 0.42899,-0.24884 0.42899,-0.86849 0,-1.11663 l -6.462197,-3.73054 c -0.429691,-0.24814 -0.965929,0.0617 -0.965929,0.55797 v 7.46177 c 0,0.49558 0.536939,0.80541 0.965929,0.55797 l 6.462197,-3.73054 c 0.42899,-0.24884 0.42899,-0.86849 0,-1.11663 z"
             id="path5572"
             style="fill:#5aa02c;fill-opacity:1;stroke:none;stroke-width:0.0700965" />
          <path
             class="st0"
             d="m 41.212669,-122.20618 -6.462197,-3.73054 c -0.429691,-0.24814 -0.965929,0.0617 -0.965929,0.55797 v 7.46177 c 0,0.49558 0.536939,0.80541 0.965929,0.55797 l 6.462197,-3.73054 c 0.42899,-0.24884 0.42899,-0.86849 0,-1.11663 l -6.462197,-3.73054 c -0.429691,-0.24814 -0.965929,0.0617 -0.965929,0.55797 v 7.46177 c 0,0.49558 0.536939,0.80541 0.965929,0.55797 l 6.462197,-3.73054 c 0.42899,-0.24884 0.42899,-0.86849 0,-1.11663 z"
             id="path5574"
             style="fill:url(#linearGradient5113);fill-opacity:1;stroke:none;stroke-width:0.0700965" />
        </g>
      </g>
    </g>
  </g>
</svg>
