<?xml version="1.0" encoding="UTF-8" standalone="no"?>
<!-- Created with Inkscape (http://www.inkscape.org/) -->

<svg
   width="210mm"
   height="62.354mm"
   viewBox="0 0 210 62.354"
   version="1.1"
   id="svg63335"
   inkscape:version="1.1 (c68e22c387, 2021-05-23)"
   sodipodi:docname="clouds.svg"
   xmlns:inkscape="http://www.inkscape.org/namespaces/inkscape"
   xmlns:sodipodi="http://sodipodi.sourceforge.net/DTD/sodipodi-0.dtd"
   xmlns="http://www.w3.org/2000/svg"
   xmlns:svg="http://www.w3.org/2000/svg">
  <sodipodi:namedview
     id="namedview63337"
     pagecolor="#505050"
     bordercolor="#ffffff"
     borderopacity="1"
     inkscape:pageshadow="0"
     inkscape:pageopacity="0"
     inkscape:pagecheckerboard="1"
     inkscape:document-units="mm"
     showgrid="false"
     height="62.354mm"
     inkscape:zoom="0.71446409"
     inkscape:cx="301.62468"
     inkscape:cy="114.07151"
     inkscape:window-width="1920"
     inkscape:window-height="991"
     inkscape:window-x="-9"
     inkscape:window-y="-9"
     inkscape:window-maximized="1"
     inkscape:current-layer="layer1" />
  <defs
     id="defs63332" />
  <g
     inkscape:label="Layer 1"
     inkscape:groupmode="layer"
     id="layer1">
    <g
       id="g61755"
       transform="matrix(2.1150879,0,0,2.1150879,336.87506,-322.21075)">
      <g
         id="g54042"
         transform="translate(-218.91059,-0.061612)">
        <path
           id="path54030"
           style="opacity:1;fill:#ffffff;fill-opacity:0.670487;stroke:none;stroke-width:7.55906;stroke-linecap:round;stroke-linejoin:round;stroke-miterlimit:4;stroke-dasharray:none;stroke-opacity:1;paint-order:stroke fill markers"
           d="m 300.40234,585.73438 a 25.484834,19.361363 60 0 0 -8.11718,2.02734 25.484834,19.361363 60 0 0 -8.19922,14.12109 25.558671,21.512634 65.329383 0 0 -18.33203,-2.52148 25.558671,21.512634 65.329383 0 0 -12.82032,18.04883 25.484834,25.484834 0 0 0 -2.04492,-0.084 25.484834,25.484834 0 0 0 -25.48437,25.48633 25.484834,25.484834 0 0 0 9.4082,19.61523 25.484834,25.214821 0 0 1 -6.60938,-16.89648 25.484834,25.214821 0 0 1 25.48438,-25.21484 25.484834,25.214821 0 0 1 2.04492,0.082 25.337371,21.47061 63.917388 0 1 12.82031,-17.85742 25.337371,21.47061 63.917388 0 1 18.33204,2.49414 25.2841,19.308312 58.995419 0 1 8.19921,-13.97071 25.2841,19.308312 58.995419 0 1 8.11719,-2.00586 25.2841,19.308312 58.995419 0 1 16.22266,7.59571 25.484834,19.361363 60 0 0 -19.02149,-10.91992 z"
           transform="scale(0.26458333)" />
        <path
           id="path54032"
           style="opacity:1;fill:#ffffff;fill-opacity:0.670487;stroke:none;stroke-width:1.41292;stroke-linecap:round;stroke-linejoin:round;stroke-miterlimit:4;stroke-dasharray:none;stroke-opacity:1;paint-order:stroke fill markers"
           d="m 84.553624,165.85363 a 4.7851002,3.6027119 61.544966 0 0 -1.504234,0.38221 4.7851002,3.6027119 61.544966 0 0 -1.519438,2.66232 4.8053939,3.9976586 67.386329 0 0 -3.397199,-0.47538 4.8053939,3.9976586 67.386329 0 0 -2.375798,3.40283 4.7227211,4.8047872 0 0 0 -0.378954,-0.0157 4.7227211,4.8047872 0 0 0 -4.722635,4.80507 4.7227211,4.8047872 0 0 0 1.74348,3.69816 4.7227211,4.7538803 0 0 1 -1.224817,-3.18559 4.7227211,4.7538803 0 0 1 4.722637,-4.75388 4.7227211,4.7538803 0 0 1 0.378954,0.0156 4.7623638,3.9910412 66.146412 0 1 2.375796,-3.36676 4.7623638,3.9910412 66.146412 0 1 3.3972,0.47023 4.7462131,3.5937463 60.601372 0 1 1.519437,-2.63395 4.7462131,3.5937463 60.601372 0 1 1.504237,-0.37818 4.7462131,3.5937463 60.601372 0 1 3.006301,1.43206 4.7851002,3.6027119 61.544966 0 0 -3.524967,-2.0588 z" />
        <path
           id="path54034"
           style="opacity:1;fill:#ffffff;fill-opacity:1;stroke:none;stroke-width:7.55906;stroke-linecap:round;stroke-linejoin:round;stroke-miterlimit:4;stroke-dasharray:none;stroke-opacity:1;paint-order:stroke fill markers"
           d="m 365.63281,619.80078 a 13.917688,12.123853 0 0 0 -13.91797,12.125 13.917688,12.123853 0 0 0 0.0547,0.94922 11.752715,11.752715 0 0 0 -2.15625,-0.20703 11.752715,11.752715 0 0 0 -11.56055,9.66797 11.752715,11.752715 0 0 1 0.28516,0.0898 11.752715,11.752715 0 0 1 1.39453,0.65039 11.752715,11.752715 0 0 1 0.82422,0.52539 11.752715,11.752715 0 0 1 11.2207,-8.27539 11.752715,11.752715 0 0 1 0.51954,0.0195 13.917688,12.123853 0 0 0 0.004,0.0137 11.752715,11.752715 0 0 1 0.92578,0.0566 11.752715,11.752715 0 0 1 0.20117,0.0371 13.917688,12.123853 0 0 1 -0.043,-0.80664 13.917688,12.123853 0 0 1 0.084,-1.30273 13.917688,12.123853 0 0 1 13.83398,-10.82031 13.917688,12.123853 0 0 1 9.28711,3.10156 13.917688,12.123853 0 0 1 0.6543,0.56445 11.752715,11.752715 0 0 1 0.46094,-0.25586 11.752715,11.752715 0 0 1 5,-1.12304 11.752715,11.752715 0 0 1 11.74609,11.36718 11.752715,11.752715 0 0 0 0.11914,-0.4707 11.752715,11.752715 0 0 0 -3.23828,-10.86523 11.752715,11.752715 0 0 0 -7.45117,-2.68946 11.752715,11.752715 0 0 0 -7.16602,2.47461 11.752715,11.752715 0 0 0 -0.002,0.002 13.917688,12.123853 0 0 0 -11.08008,-4.82813 z"
           transform="scale(0.26458333)" />
        <path
           id="path54036"
           style="opacity:1;fill:#ffffff;fill-opacity:1;stroke:none;stroke-width:2;stroke-linecap:round;stroke-linejoin:round;stroke-miterlimit:4;stroke-dasharray:none;stroke-opacity:1;paint-order:stroke fill markers"
           d="m 97.170294,159.98713 a 3.6823882,3.2077694 0 0 0 -3.682463,3.20807 3.6823882,3.2077694 0 0 0 0.01447,0.25115 3.1095725,3.1095725 0 0 0 -0.570508,-0.0548 3.1095725,3.1095725 0 0 0 -3.058729,2.55798 3.1095725,3.1095725 0 0 1 0.07545,0.0238 3.1095725,3.1095725 0 0 1 0.368969,0.17208 3.1095725,3.1095725 0 0 1 0.218075,0.13901 3.1095725,3.1095725 0 0 1 2.96881,-2.18953 3.1095725,3.1095725 0 0 1 0.137462,0.005 3.6823882,3.2077694 0 0 0 0.001,0.004 3.1095725,3.1095725 0 0 1 0.244946,0.015 3.1095725,3.1095725 0 0 1 0.05323,0.01 3.6823882,3.2077694 0 0 1 -0.01137,-0.21342 3.6823882,3.2077694 0 0 1 0.02222,-0.34468 3.6823882,3.2077694 0 0 1 3.66024,-2.86288 3.6823882,3.2077694 0 0 1 2.457214,0.82062 3.6823882,3.2077694 0 0 1 0.17312,0.14935 3.1095725,3.1095725 0 0 1 0.12196,-0.0677 3.1095725,3.1095725 0 0 1 1.32291,-0.29714 3.1095725,3.1095725 0 0 1 3.10782,3.00757 3.1095725,3.1095725 0 0 0 0.0315,-0.12454 3.1095725,3.1095725 0 0 0 -0.85679,-2.87476 3.1095725,3.1095725 0 0 0 -1.97146,-0.71159 3.1095725,3.1095725 0 0 0 -1.89601,0.65475 3.1095725,3.1095725 0 0 0 -5.1e-4,5.1e-4 3.6823882,3.2077694 0 0 0 -2.931607,-1.27744 z" />
        <path
           id="path54038"
           style="opacity:1;fill:#ffffff;fill-opacity:1;stroke:none;stroke-width:13.0733;stroke-linecap:round;stroke-linejoin:round;stroke-miterlimit:4;stroke-dasharray:none;stroke-opacity:1;paint-order:stroke fill markers"
           d="m 369.25781,576.01562 a 23.554826,21.875446 0 0 0 -23.10351,17.76954 20.991564,21.875446 0 0 0 -0.0547,-0.002 20.991564,21.875446 0 0 0 -18.95117,12.49414 20.991564,21.875446 0 0 1 0.30468,0.21875 20.991564,21.875446 0 0 0 -11.79101,-3.83789 20.991564,21.875446 0 0 0 -20.99023,21.875 20.991564,21.875446 0 0 0 5.08398,14.25196 20.991564,21.875446 0 0 1 -0.53125,-1.04883 20.991564,21.875446 0 0 1 -0.62695,-1.5 20.991564,21.875446 0 0 1 -0.51954,-1.54297 20.991564,21.875446 0 0 1 -0.40624,-1.58008 20.991564,21.875446 0 0 1 -0.29102,-1.60742 20.991564,21.875446 0 0 1 -0.17578,-1.62695 20.991564,21.875446 0 0 1 -0.0586,-1.63477 20.991564,21.875446 0 0 1 0.0586,-1.63476 20.991564,21.875446 0 0 1 0.17578,-1.625 20.991564,21.875446 0 0 1 0.29102,-1.60743 20.991564,21.875446 0 0 1 0.40624,-1.58007 20.991564,21.875446 0 0 1 0.51954,-1.54297 20.991564,21.875446 0 0 1 0.62695,-1.5 20.991564,21.875446 0 0 1 0.73437,-1.44727 20.991564,21.875446 0 0 1 0.83399,-1.38476 20.991564,21.875446 0 0 1 0.93164,-1.31641 20.991564,21.875446 0 0 1 1.02539,-1.24024 20.991564,21.875446 0 0 1 1.10938,-1.15625 20.991564,21.875446 0 0 1 1.18945,-1.0664 20.991564,21.875446 0 0 1 1.26367,-0.97266 20.991564,21.875446 0 0 1 1.33008,-0.86914 20.991564,21.875446 0 0 1 1.38672,-0.76562 20.991564,21.875446 0 0 1 1.43945,-0.6543 20.991564,21.875446 0 0 1 1.48047,-0.53906 20.991564,21.875446 0 0 1 1.51758,-0.42383 20.991564,21.875446 0 0 1 1.54101,-0.30469 20.991564,21.875446 0 0 1 1.56055,-0.18164 20.991564,21.875446 0 0 1 1.56836,-0.0625 20.991564,21.875446 0 0 1 0.5332,0.008 20.991564,21.875446 0 0 1 0.53125,0.0234 20.991564,21.875446 0 0 1 0.5293,0.0332 20.991564,21.875446 0 0 1 0.53125,0.0488 20.991564,21.875446 0 0 1 0.52734,0.0625 20.991564,21.875446 0 0 1 0.52735,0.0762 20.991564,21.875446 0 0 1 0.52343,0.0918 20.991564,21.875446 0 0 1 0.52344,0.10352 20.991564,21.875446 0 0 1 0.51953,0.11914 20.991564,21.875446 0 0 1 0.51563,0.13281 20.991564,21.875446 0 0 1 0.51367,0.14453 20.991564,21.875446 0 0 1 0.50977,0.16016 20.991564,21.875446 0 0 1 0.50585,0.17187 20.991564,21.875446 0 0 1 0.5,0.18555 20.991564,21.875446 0 0 1 0.4961,0.19922 20.991564,21.875446 0 0 1 0.4707,0.20312 20.991564,21.875446 0 0 1 0.0215,0.01 20.991564,21.875446 0 0 1 0.48632,0.22461 20.991564,21.875446 0 0 1 0.48047,0.23828 20.991564,21.875446 0 0 1 0.47266,0.25 20.991564,21.875446 0 0 1 0.46875,0.26367 20.991564,21.875446 0 0 1 0.46289,0.27344 20.991564,21.875446 0 0 1 0.45312,0.28711 20.991564,21.875446 0 0 1 0.39454,0.26367 20.991564,21.875446 0 0 1 0.0273,-0.0644 20.991564,21.875446 0 0 1 0.53711,-1.07618 20.991564,21.875446 0 0 1 0.19726,-0.37109 20.991564,21.875446 0 0 1 0.83399,-1.38476 20.991564,21.875446 0 0 1 0.93164,-1.31641 20.991564,21.875446 0 0 1 1.02539,-1.24024 20.991564,21.875446 0 0 1 1.10938,-1.15625 20.991564,21.875446 0 0 1 1.18945,-1.0664 20.991564,21.875446 0 0 1 1.26367,-0.97266 20.991564,21.875446 0 0 1 1.33008,-0.86914 20.991564,21.875446 0 0 1 1.38672,-0.76562 20.991564,21.875446 0 0 1 1.43945,-0.6543 20.991564,21.875446 0 0 1 1.48047,-0.53906 20.991564,21.875446 0 0 1 1.51758,-0.42383 20.991564,21.875446 0 0 1 1.54101,-0.30469 20.991564,21.875446 0 0 1 0.26953,-0.0312 20.991564,21.875446 0 0 1 0.008,0 20.991564,21.875446 0 0 1 1.2832,-0.15039 20.991564,21.875446 0 0 1 0.67773,-0.041 20.991564,21.875446 0 0 1 0.89063,-0.0215 20.991564,21.875446 0 0 1 0.32812,0.004 20.991564,21.875446 0 0 1 0.20899,-1.08985 20.991564,21.875446 0 0 1 0.44726,-1.65234 20.991564,21.875446 0 0 1 0.20899,-0.5918 20.991564,21.875446 0 0 1 0.36133,-1.01953 20.991564,21.875446 0 0 1 0.68945,-1.56055 20.991564,21.875446 0 0 1 0.80664,-1.49804 20.991564,21.875446 0 0 1 0.91602,-1.42774 20.991564,21.875446 0 0 1 1.01953,-1.34961 20.991564,21.875446 0 0 1 1.11914,-1.26171 20.991564,21.875446 0 0 1 1.21093,-1.16602 20.991564,21.875446 0 0 1 1.29297,-1.0625 20.991564,21.875446 0 0 1 1.3711,-0.95508 20.991564,21.875446 0 0 1 1.4375,-0.83789 20.991564,21.875446 0 0 1 1.49804,-0.7207 20.991564,21.875446 0 0 1 1.54688,-0.59375 20.991564,21.875446 0 0 1 1.58594,-0.4668 20.991564,21.875446 0 0 1 1.61523,-0.33398 20.991564,21.875446 0 0 1 1.63672,-0.20313 20.991564,21.875446 0 0 1 1.64844,-0.0664 20.991564,21.875446 0 0 1 0.54883,0.008 20.991564,21.875446 0 0 1 0.54882,0.0215 20.991564,21.875446 0 0 1 0.54883,0.0371 20.991564,21.875446 0 0 1 0.54688,0.0527 20.991564,21.875446 0 0 1 0.54687,0.0684 20.991564,21.875446 0 0 1 0.54297,0.082 20.991564,21.875446 0 0 1 0.54102,0.0957 20.991564,21.875446 0 0 1 0.53906,0.11328 20.991564,21.875446 0 0 1 0.53711,0.125 20.991564,21.875446 0 0 1 0.53125,0.14063 20.991564,21.875446 0 0 1 0.5293,0.15625 20.991564,21.875446 0 0 1 0.52539,0.16992 20.991564,21.875446 0 0 1 0.51953,0.18359 20.991564,21.875446 0 0 1 0.51562,0.19922 20.991564,21.875446 0 0 1 0.51172,0.21094 20.991564,21.875446 0 0 1 0.50391,0.22656 20.991564,21.875446 0 0 1 0.5,0.24023 20.991564,21.875446 0 0 1 0.49218,0.25391 20.991564,21.875446 0 0 1 0.48633,0.26563 20.991564,21.875446 0 0 1 0.48047,0.27929 20.991564,21.875446 0 0 1 0.4707,0.29297 20.991564,21.875446 0 0 1 0.46485,0.30664 20.991564,21.875446 0 0 1 0.45703,0.31836 20.991564,21.875446 0 0 1 0.44922,0.33008 20.991564,21.875446 0 0 1 0.4414,0.3418 20.991564,21.875446 0 0 1 0.42969,0.35546 20.991564,21.875446 0 0 1 0.42383,0.36524 20.991564,21.875446 0 0 1 0.41211,0.37891 20.991564,21.875446 0 0 1 0.4043,0.38867 20.991564,21.875446 0 0 1 0.39453,0.39844 20.991564,21.875446 0 0 1 0.38281,0.41015 20.991564,21.875446 0 0 1 0.37305,0.42188 20.991564,21.875446 0 0 1 0.36133,0.42968 20.991564,21.875446 0 0 1 0.35156,0.43946 20.991564,21.875446 0 0 1 0.33984,0.45117 20.991564,21.875446 0 0 1 0.33008,0.45898 20.991564,21.875446 0 0 1 0.31641,0.4668 20.991564,21.875446 0 0 1 0.30664,0.47656 20.991564,21.875446 0 0 1 0.29297,0.48438 20.991564,21.875446 0 0 1 0.28124,0.49218 20.991564,21.875446 0 0 1 0.26758,0.5 20.991564,21.875446 0 0 1 0.25586,0.50586 20.991564,21.875446 0 0 1 0.24219,0.51368 20.991564,21.875446 0 0 1 0.23047,0.51953 20.991564,21.875446 0 0 1 0.2168,0.52734 20.991564,21.875446 0 0 1 0.20507,0.53125 20.991564,21.875446 0 0 1 0.18946,0.53711 20.991564,21.875446 0 0 1 0.17578,0.54297 20.991564,21.875446 0 0 1 0.16406,0.54687 20.991564,21.875446 0 0 1 0.14844,0.55079 20.991564,21.875446 0 0 1 0.13476,0.55468 20.991564,21.875446 0 0 1 0.12305,0.5586 20.991564,21.875446 0 0 1 0.10547,0.5625 20.991564,21.875446 0 0 1 0.0937,0.56445 20.991564,21.875446 0 0 1 0.0781,0.56641 20.991564,21.875446 0 0 1 0.0664,0.56836 20.991564,21.875446 0 0 1 0.0488,0.57031 20.991564,21.875446 0 0 1 0.0371,0.57226 20.991564,21.875446 0 0 1 0.0215,0.57227 20.991564,21.875446 0 0 1 0.006,0.57226 20.991564,21.875446 0 0 1 -0.0644,1.7168 20.991564,21.875446 0 0 1 -0.19336,1.70508 20.991564,21.875446 0 0 1 -0.32227,1.68555 20.991564,21.875446 0 0 1 -0.44726,1.65234 20.991564,21.875446 0 0 1 -0.57031,1.61133 20.991564,21.875446 0 0 1 -0.0469,0.10742 23.554826,21.875446 0 0 0 3.94336,-12.10156 23.554826,21.875446 0 0 0 -23.55469,-21.87696 z"
           transform="scale(0.26458333)" />
        <path
           id="path54040"
           style="opacity:1;fill:#ffffff;fill-opacity:1;stroke:none;stroke-width:7.32087;stroke-linecap:round;stroke-linejoin:round;stroke-miterlimit:4;stroke-dasharray:none;stroke-opacity:1;paint-order:stroke fill markers"
           d="m 384.72266,584.71875 a 11.610796,13.916603 10.305123 0 0 -6.44922,2.08594 11.610796,13.916603 10.305123 0 0 -5.98438,10.34961 11.610796,13.916603 10.305123 0 0 -0.004,0.0332 11.610796,13.916603 10.305123 0 0 -6.15235,-2.2168 11.610796,13.916603 10.305123 0 0 -6.28711,2.08789 v -0.002 a 11.610796,13.916603 10.305123 0 0 -5.16992,7.08398 11.675521,10.038816 77.491337 0 0 -0.0176,-0.01 11.675521,10.038816 77.491337 0 0 -4.27148,-0.78906 11.675521,10.038816 77.491337 0 0 -7.73828,5.45508 11.675521,10.038816 77.491337 0 0 -1.15235,6.47851 9.2591337,11.281148 5.1765205 0 1 0.004,-0.0606 9.2591337,11.281148 5.1765205 0 1 0.13672,-0.875 9.2591337,11.281148 5.1765205 0 1 0.1914,-0.85937 9.2591337,11.281148 5.1765205 0 1 0.2461,-0.84375 9.2591337,11.281148 5.1765205 0 1 0.29883,-0.81836 9.2591337,11.281148 5.1765205 0 1 0.35156,-0.79102 9.2591337,11.281148 5.1765205 0 1 0.12695,-0.25586 9.2591337,11.281148 5.1765205 0 1 0.13477,-0.25195 9.2591337,11.281148 5.1765205 0 1 0.13867,-0.24805 9.2591337,11.281148 5.1765205 0 1 0.14453,-0.24414 9.2591337,11.281148 5.1765205 0 1 0.14844,-0.23828 9.2591337,11.281148 5.1765205 0 1 0.1543,-0.23437 9.2591337,11.281148 5.1765205 0 1 0.1582,-0.22852 9.2591337,11.281148 5.1765205 0 1 0.16406,-0.22656 9.2591337,11.281148 5.1765205 0 1 0.16797,-0.2207 9.2591337,11.281148 5.1765205 0 1 0.17188,-0.21485 9.2591337,11.281148 5.1765205 0 1 0.17773,-0.20898 9.2591337,11.281148 5.1765205 0 1 0.18164,-0.20313 9.2591337,11.281148 5.1765205 0 1 0.18555,-0.19922 9.2591337,11.281148 5.1765205 0 1 0.18945,-0.19335 9.2591337,11.281148 5.1765205 0 1 0.19336,-0.18555 9.2591337,11.281148 5.1765205 0 1 0.19727,-0.18164 9.2591337,11.281148 5.1765205 0 1 0.20117,-0.17383 9.2591337,11.281148 5.1765205 0 1 0.20312,-0.16797 9.2591337,11.281148 5.1765205 0 1 0.20899,-0.16016 9.2591337,11.281148 5.1765205 0 1 0.20898,-0.15625 9.2591337,11.281148 5.1765205 0 1 0.21484,-0.14843 9.2591337,11.281148 5.1765205 0 1 0.2168,-0.14258 9.2591337,11.281148 5.1765205 0 1 0.2207,-0.13477 9.2591337,11.281148 5.1765205 0 1 0.22071,-0.1289 9.2591337,11.281148 5.1765205 0 1 0.22656,-0.1211 9.2591337,11.281148 5.1765205 0 1 0.22656,-0.11523 9.2591337,11.281148 5.1765205 0 1 0.22852,-0.10547 9.2591337,11.281148 5.1765205 0 1 0.23047,-0.0996 9.2591337,11.281148 5.1765205 0 1 0.23437,-0.0937 9.2591337,11.281148 5.1765205 0 1 0.23438,-0.084 9.2591337,11.281148 5.1765205 0 1 0.23633,-0.0781 9.2591337,11.281148 5.1765205 0 1 0.23828,-0.0703 9.2591337,11.281148 5.1765205 0 1 0.23828,-0.0625 9.2591337,11.281148 5.1765205 0 1 0.24023,-0.0547 9.2591337,11.281148 5.1765205 0 1 0.24024,-0.0488 9.2591337,11.281148 5.1765205 0 1 0.24218,-0.0371 9.2591337,11.281148 5.1765205 0 1 0.24219,-0.0312 9.2591337,11.281148 5.1765205 0 1 0.24414,-0.0273 9.2591337,11.281148 5.1765205 0 1 0.24219,-0.0137 9.2591337,11.281148 5.1765205 0 1 0.24219,-0.0117 9.2591337,11.281148 5.1765205 0 1 0.24414,-0.002 9.2591337,11.281148 5.1765205 0 1 0.24218,0.008 9.2591337,11.281148 5.1765205 0 1 0.24219,0.0117 9.2591337,11.281148 5.1765205 0 1 0.24219,0.0234 9.2591337,11.281148 5.1765205 0 1 0.24023,0.0293 9.2591337,11.281148 5.1765205 0 1 0.24024,0.0391 9.2591337,11.281148 5.1765205 0 1 0.23828,0.043 9.2591337,11.281148 5.1765205 0 1 0.23633,0.0527 9.2591337,11.281148 5.1765205 0 1 0.23633,0.0605 9.2591337,11.281148 5.1765205 0 1 0.23437,0.0664 9.2591337,11.281148 5.1765205 0 1 0.23242,0.0762 9.2591337,11.281148 5.1765205 0 1 0.23047,0.084 9.2591337,11.281148 5.1765205 0 1 0.23047,0.0879 9.2591337,11.281148 5.1765205 0 1 0.20898,0.0918 9.2591337,11.281148 5.1765205 0 1 0.0156,0.006 9.2591337,11.281148 5.1765205 0 1 0.22461,0.10547 9.2591337,11.281148 5.1765205 0 1 0.2207,0.11133 9.2591337,11.281148 5.1765205 0 1 0.21875,0.11719 9.2591337,11.281148 5.1765205 0 1 0.2168,0.12695 9.2591337,11.281148 5.1765205 0 1 0.21289,0.13281 9.2591337,11.281148 5.1765205 0 1 0.20898,0.13868 9.2591337,11.281148 5.1765205 0 1 0.53321,0.39843 13.460498,10.697912 85.565439 0 1 0.01,-0.0586 13.460498,10.697912 85.565439 0 1 0.10938,-0.50391 13.460498,10.697912 85.565439 0 1 0.11719,-0.46875 13.460498,10.697912 85.565439 0 1 0.008,-0.0293 13.460498,10.697912 85.565439 0 1 0.29687,-0.97266 13.460498,10.697912 85.565439 0 1 0.35938,-0.93945 13.460498,10.697912 85.565439 0 1 0.41601,-0.89649 13.460498,10.697912 85.565439 0 1 0.47461,-0.85351 13.460498,10.697912 85.565439 0 1 0.52539,-0.79883 13.460498,10.697912 85.565439 0 1 0.57618,-0.74219 13.460498,10.697912 85.565439 0 1 0.62304,-0.68164 13.460498,10.697912 85.565439 0 1 0.66407,-0.61719 13.460498,10.697912 85.565439 0 1 0.70507,-0.54687 13.460498,10.697912 85.565439 0 1 0.24219,-0.16797 13.460498,10.697912 85.565439 0 1 0.24414,-0.1582 13.460498,10.697912 85.565439 0 1 0.25,-0.14844 13.460498,10.697912 85.565439 0 1 0.25391,-0.14258 13.460498,10.697912 85.565439 0 1 0.25586,-0.13281 13.460498,10.697912 85.565439 0 1 0.25781,-0.125 13.460498,10.697912 85.565439 0 1 0.26172,-0.11719 13.460498,10.697912 85.565439 0 1 0.26367,-0.10547 13.460498,10.697912 85.565439 0 1 0.26758,-0.0996 13.460498,10.697912 85.565439 0 1 0.26758,-0.0898 13.460498,10.697912 85.565439 0 1 0.27148,-0.0801 13.460498,10.697912 85.565439 0 1 0.27149,-0.0723 13.460498,10.697912 85.565439 0 1 0.27343,-0.0625 13.460498,10.697912 85.565439 0 1 0.27735,-0.0527 13.460498,10.697912 85.565439 0 1 0.27734,-0.0449 13.460498,10.697912 85.565439 0 1 0.27734,-0.0352 13.460498,10.697912 85.565439 0 1 0.2793,-0.0254 13.460498,10.697912 85.565439 0 1 0.2793,-0.0156 13.460498,10.697912 85.565439 0 1 0.27929,-0.008 13.460498,10.697912 85.565439 0 1 0.28125,0.002 13.460498,10.697912 85.565439 0 1 0.28125,0.0137 13.460498,10.697912 85.565439 0 1 0.2793,0.0195 13.460498,10.697912 85.565439 0 1 0.28125,0.0312 13.460498,10.697912 85.565439 0 1 0.2793,0.0371 13.460498,10.697912 85.565439 0 1 0.28125,0.0469 13.460498,10.697912 85.565439 0 1 0.27734,0.0566 13.460498,10.697912 85.565439 0 1 0.27735,0.0644 13.460498,10.697912 85.565439 0 1 0.27539,0.0762 13.460498,10.697912 85.565439 0 1 0.27539,0.084 13.460498,10.697912 85.565439 0 1 0.27148,0.0918 13.460498,10.697912 85.565439 0 1 0.27149,0.10156 13.460498,10.697912 85.565439 0 1 0.26953,0.11133 13.460498,10.697912 85.565439 0 1 0.26758,0.11914 13.460498,10.697912 85.565439 0 1 0.26562,0.12696 13.460498,10.697912 85.565439 0 1 0.26172,0.13672 13.460498,10.697912 85.565439 0 1 0.25976,0.14453 13.460498,10.697912 85.565439 0 1 0.25586,0.15234 13.460498,10.697912 85.565439 0 1 0.25586,0.16211 13.460498,10.697912 85.565439 0 1 0.25,0.16992 13.460498,10.697912 85.565439 0 1 0.2461,0.17774 13.460498,10.697912 85.565439 0 1 0.24414,0.18554 13.460498,10.697912 85.565439 0 1 0.23828,0.19141 13.460498,10.697912 85.565439 0 1 0.0586,0.0508 13.460498,10.697912 85.565439 0 1 0.17774,0.15039 13.460498,10.697912 85.565439 0 1 0.23242,0.20703 13.460498,10.697912 85.565439 0 1 0.22851,0.2168 13.460498,10.697912 85.565439 0 1 0.22266,0.22265 13.460498,10.697912 85.565439 0 1 0.21875,0.22852 13.460498,10.697912 85.565439 0 1 0.21484,0.23828 13.460498,10.697912 85.565439 0 1 0.20899,0.24219 13.460498,10.697912 85.565439 0 1 0.20508,0.25 13.460498,10.697912 85.565439 0 1 0.19922,0.25781 13.460498,10.697912 85.565439 0 1 0.18359,0.24414 13.460498,10.697912 85.565439 0 1 -0.084,-0.95312 13.460498,10.697912 85.565439 0 1 -0.0254,-1.05664 13.460498,10.697912 85.565439 0 1 0.0293,-0.79492 13.460498,10.697912 85.565439 0 1 0,-0.0137 13.460498,10.697912 85.565439 0 1 0.01,-0.24218 13.460498,10.697912 85.565439 0 1 0.10547,-1.04297 13.460498,10.697912 85.565439 0 1 0.16992,-1.02539 13.460498,10.697912 85.565439 0 1 0.23633,-1.00391 13.460498,10.697912 85.565439 0 1 0.29687,-0.97266 13.460498,10.697912 85.565439 0 1 0.35938,-0.9375 13.460498,10.697912 85.565439 0 1 0.41601,-0.89843 13.460498,10.697912 85.565439 0 1 0.47266,-0.85157 13.460498,10.697912 85.565439 0 1 0.52734,-0.79882 13.460498,10.697912 85.565439 0 1 0.57617,-0.74415 13.460498,10.697912 85.565439 0 1 0.6211,-0.68164 13.460498,10.697912 85.565439 0 1 0.66601,-0.61718 13.460498,10.697912 85.565439 0 1 0.70313,-0.54688 13.460498,10.697912 85.565439 0 1 0.24219,-0.16601 13.460498,10.697912 85.565439 0 1 0.24609,-0.15821 13.460498,10.697912 85.565439 0 1 0.25,-0.15039 13.460498,10.697912 85.565439 0 1 0.25195,-0.14258 13.460498,10.697912 85.565439 0 1 0.25781,-0.13281 13.460498,10.697912 85.565439 0 1 0.25782,-0.12304 13.460498,10.697912 85.565439 0 1 0.25976,-0.11719 13.460498,10.697912 85.565439 0 1 0.26563,-0.10742 13.460498,10.697912 85.565439 0 1 0.26562,-0.0996 13.460498,10.697912 85.565439 0 1 0.26953,-0.0879 13.460498,10.697912 85.565439 0 1 0.26953,-0.082 13.460498,10.697912 85.565439 0 1 0.27344,-0.0703 13.460498,10.697912 85.565439 0 1 0.27344,-0.0625 13.460498,10.697912 85.565439 0 1 0.27539,-0.0527 13.460498,10.697912 85.565439 0 1 0.27734,-0.0469 13.460498,10.697912 85.565439 0 1 0.27735,-0.0332 13.460498,10.697912 85.565439 0 1 0.2793,-0.0273 13.460498,10.697912 85.565439 0 1 0.28124,-0.0156 13.460498,10.697912 85.565439 0 1 0.2793,-0.006 13.460498,10.697912 85.565439 0 1 0.28125,0 13.460498,10.697912 85.565439 0 1 0.2793,0.0156 13.460498,10.697912 85.565439 0 1 0.28125,0.0195 13.460498,10.697912 85.565439 0 1 0.28125,0.0293 13.460498,10.697912 85.565439 0 1 0.2793,0.0371 13.460498,10.697912 85.565439 0 1 0.27929,0.0469 13.460498,10.697912 85.565439 0 1 0.27735,0.0586 13.460498,10.697912 85.565439 0 1 0.27734,0.0645 13.460498,10.697912 85.565439 0 1 0.27539,0.0762 13.460498,10.697912 85.565439 0 1 0.27539,0.082 13.460498,10.697912 85.565439 0 1 0.27344,0.0937 13.460498,10.697912 85.565439 0 1 0.27148,0.10156 13.460498,10.697912 85.565439 0 1 0.26953,0.10938 13.460498,10.697912 85.565439 0 1 0.26758,0.11914 13.460498,10.697912 85.565439 0 1 0.26367,0.12695 13.460498,10.697912 85.565439 0 1 0.26368,0.13867 13.460498,10.697912 85.565439 0 1 0.25976,0.14453 13.460498,10.697912 85.565439 0 1 0.25586,0.15235 13.460498,10.697912 85.565439 0 1 0.25391,0.16015 13.460498,10.697912 85.565439 0 1 0.25,0.16993 13.460498,10.697912 85.565439 0 1 0.24804,0.17773 13.460498,10.697912 85.565439 0 1 0.24219,0.18555 13.460498,10.697912 85.565439 0 1 0.24024,0.19336 13.460498,10.697912 85.565439 0 1 0.23632,0.20117 13.460498,10.697912 85.565439 0 1 0.23047,0.20703 13.460498,10.697912 85.565439 0 1 0.22852,0.21484 13.460498,10.697912 85.565439 0 1 0.22461,0.22266 13.460498,10.697912 85.565439 0 1 0.21875,0.23047 13.460498,10.697912 85.565439 0 1 0.21289,0.23633 13.460498,10.697912 85.565439 0 1 0.21094,0.24414 13.460498,10.697912 85.565439 0 1 0.20312,0.25 13.460498,10.697912 85.565439 0 1 0.19922,0.25586 13.460498,10.697912 85.565439 0 1 0.19531,0.26171 13.460498,10.697912 85.565439 0 1 0.18946,0.26954 13.460498,10.697912 85.565439 0 1 0.18359,0.27539 13.460498,10.697912 85.565439 0 1 0.17578,0.27929 13.460498,10.697912 85.565439 0 1 0.17383,0.28516 13.460498,10.697912 85.565439 0 1 0.16601,0.29101 13.460498,10.697912 85.565439 0 1 0.16016,0.29688 13.460498,10.697912 85.565439 0 1 0.1543,0.30078 13.460498,10.697912 85.565439 0 1 0.14843,0.30469 13.460498,10.697912 85.565439 0 1 0.4043,0.94336 13.460498,10.697912 85.565439 0 1 0.3457,0.97656 13.460498,10.697912 85.565439 0 1 0.28516,1.00586 13.460498,10.697912 85.565439 0 1 0.22266,1.02734 13.460498,10.697912 85.565439 0 1 0.15625,1.04297 13.460498,10.697912 85.565439 0 1 0.004,0.0723 11.610796,13.916603 10.305123 0 0 -1.33007,-7.73047 11.610796,13.916603 10.305123 0 0 -9.38086,-6.53711 z"
           transform="scale(0.26458333)" />
      </g>
      <g
         id="g61572"
         transform="matrix(-1,0,0,1,-0.35361193,-0.061612)">
        <path
           id="path61560"
           style="opacity:1;fill:#ffffff;fill-opacity:0.670487;stroke:none;stroke-width:7.55906;stroke-linecap:round;stroke-linejoin:round;stroke-miterlimit:4;stroke-dasharray:none;stroke-opacity:1;paint-order:stroke fill markers"
           d="m 300.40234,585.73438 a 25.484834,19.361363 60 0 0 -8.11718,2.02734 25.484834,19.361363 60 0 0 -8.19922,14.12109 25.558671,21.512634 65.329383 0 0 -18.33203,-2.52148 25.558671,21.512634 65.329383 0 0 -12.82032,18.04883 25.484834,25.484834 0 0 0 -2.04492,-0.084 25.484834,25.484834 0 0 0 -25.48437,25.48633 25.484834,25.484834 0 0 0 9.4082,19.61523 25.484834,25.214821 0 0 1 -6.60938,-16.89648 25.484834,25.214821 0 0 1 25.48438,-25.21484 25.484834,25.214821 0 0 1 2.04492,0.082 25.337371,21.47061 63.917388 0 1 12.82031,-17.85742 25.337371,21.47061 63.917388 0 1 18.33204,2.49414 25.2841,19.308312 58.995419 0 1 8.19921,-13.97071 25.2841,19.308312 58.995419 0 1 8.11719,-2.00586 25.2841,19.308312 58.995419 0 1 16.22266,7.59571 25.484834,19.361363 60 0 0 -19.02149,-10.91992 z"
           transform="scale(0.26458333)" />
        <path
           id="path61562"
           style="opacity:1;fill:#ffffff;fill-opacity:0.670487;stroke:none;stroke-width:1.41292;stroke-linecap:round;stroke-linejoin:round;stroke-miterlimit:4;stroke-dasharray:none;stroke-opacity:1;paint-order:stroke fill markers"
           d="m 84.553624,165.85363 a 4.7851002,3.6027119 61.544966 0 0 -1.504234,0.38221 4.7851002,3.6027119 61.544966 0 0 -1.519438,2.66232 4.8053939,3.9976586 67.386329 0 0 -3.397199,-0.47538 4.8053939,3.9976586 67.386329 0 0 -2.375798,3.40283 4.7227211,4.8047872 0 0 0 -0.378954,-0.0157 4.7227211,4.8047872 0 0 0 -4.722635,4.80507 4.7227211,4.8047872 0 0 0 1.74348,3.69816 4.7227211,4.7538803 0 0 1 -1.224817,-3.18559 4.7227211,4.7538803 0 0 1 4.722637,-4.75388 4.7227211,4.7538803 0 0 1 0.378954,0.0156 4.7623638,3.9910412 66.146412 0 1 2.375796,-3.36676 4.7623638,3.9910412 66.146412 0 1 3.3972,0.47023 4.7462131,3.5937463 60.601372 0 1 1.519437,-2.63395 4.7462131,3.5937463 60.601372 0 1 1.504237,-0.37818 4.7462131,3.5937463 60.601372 0 1 3.006301,1.43206 4.7851002,3.6027119 61.544966 0 0 -3.524967,-2.0588 z" />
        <path
           id="path61564"
           style="opacity:1;fill:#ffffff;fill-opacity:1;stroke:none;stroke-width:7.55906;stroke-linecap:round;stroke-linejoin:round;stroke-miterlimit:4;stroke-dasharray:none;stroke-opacity:1;paint-order:stroke fill markers"
           d="m 365.63281,619.80078 a 13.917688,12.123853 0 0 0 -13.91797,12.125 13.917688,12.123853 0 0 0 0.0547,0.94922 11.752715,11.752715 0 0 0 -2.15625,-0.20703 11.752715,11.752715 0 0 0 -11.56055,9.66797 11.752715,11.752715 0 0 1 0.28516,0.0898 11.752715,11.752715 0 0 1 1.39453,0.65039 11.752715,11.752715 0 0 1 0.82422,0.52539 11.752715,11.752715 0 0 1 11.2207,-8.27539 11.752715,11.752715 0 0 1 0.51954,0.0195 13.917688,12.123853 0 0 0 0.004,0.0137 11.752715,11.752715 0 0 1 0.92578,0.0566 11.752715,11.752715 0 0 1 0.20117,0.0371 13.917688,12.123853 0 0 1 -0.043,-0.80664 13.917688,12.123853 0 0 1 0.084,-1.30273 13.917688,12.123853 0 0 1 13.83398,-10.82031 13.917688,12.123853 0 0 1 9.28711,3.10156 13.917688,12.123853 0 0 1 0.6543,0.56445 11.752715,11.752715 0 0 1 0.46094,-0.25586 11.752715,11.752715 0 0 1 5,-1.12304 11.752715,11.752715 0 0 1 11.74609,11.36718 11.752715,11.752715 0 0 0 0.11914,-0.4707 11.752715,11.752715 0 0 0 -3.23828,-10.86523 11.752715,11.752715 0 0 0 -7.45117,-2.68946 11.752715,11.752715 0 0 0 -7.16602,2.47461 11.752715,11.752715 0 0 0 -0.002,0.002 13.917688,12.123853 0 0 0 -11.08008,-4.82813 z"
           transform="scale(0.26458333)" />
        <path
           id="path61566"
           style="opacity:1;fill:#ffffff;fill-opacity:1;stroke:none;stroke-width:2;stroke-linecap:round;stroke-linejoin:round;stroke-miterlimit:4;stroke-dasharray:none;stroke-opacity:1;paint-order:stroke fill markers"
           d="m 97.170294,159.98713 a 3.6823882,3.2077694 0 0 0 -3.682463,3.20807 3.6823882,3.2077694 0 0 0 0.01447,0.25115 3.1095725,3.1095725 0 0 0 -0.570508,-0.0548 3.1095725,3.1095725 0 0 0 -3.058729,2.55798 3.1095725,3.1095725 0 0 1 0.07545,0.0238 3.1095725,3.1095725 0 0 1 0.368969,0.17208 3.1095725,3.1095725 0 0 1 0.218075,0.13901 3.1095725,3.1095725 0 0 1 2.96881,-2.18953 3.1095725,3.1095725 0 0 1 0.137462,0.005 3.6823882,3.2077694 0 0 0 0.001,0.004 3.1095725,3.1095725 0 0 1 0.244946,0.015 3.1095725,3.1095725 0 0 1 0.05323,0.01 3.6823882,3.2077694 0 0 1 -0.01137,-0.21342 3.6823882,3.2077694 0 0 1 0.02222,-0.34468 3.6823882,3.2077694 0 0 1 3.66024,-2.86288 3.6823882,3.2077694 0 0 1 2.457214,0.82062 3.6823882,3.2077694 0 0 1 0.17312,0.14935 3.1095725,3.1095725 0 0 1 0.12196,-0.0677 3.1095725,3.1095725 0 0 1 1.32291,-0.29714 3.1095725,3.1095725 0 0 1 3.10782,3.00757 3.1095725,3.1095725 0 0 0 0.0315,-0.12454 3.1095725,3.1095725 0 0 0 -0.85679,-2.87476 3.1095725,3.1095725 0 0 0 -1.97146,-0.71159 3.1095725,3.1095725 0 0 0 -1.89601,0.65475 3.1095725,3.1095725 0 0 0 -5.1e-4,5.1e-4 3.6823882,3.2077694 0 0 0 -2.931607,-1.27744 z" />
        <path
           id="path61568"
           style="opacity:1;fill:#ffffff;fill-opacity:1;stroke:none;stroke-width:13.0733;stroke-linecap:round;stroke-linejoin:round;stroke-miterlimit:4;stroke-dasharray:none;stroke-opacity:1;paint-order:stroke fill markers"
           d="m 369.25781,576.01562 a 23.554826,21.875446 0 0 0 -23.10351,17.76954 20.991564,21.875446 0 0 0 -0.0547,-0.002 20.991564,21.875446 0 0 0 -18.95117,12.49414 20.991564,21.875446 0 0 1 0.30468,0.21875 20.991564,21.875446 0 0 0 -11.79101,-3.83789 20.991564,21.875446 0 0 0 -20.99023,21.875 20.991564,21.875446 0 0 0 5.08398,14.25196 20.991564,21.875446 0 0 1 -0.53125,-1.04883 20.991564,21.875446 0 0 1 -0.62695,-1.5 20.991564,21.875446 0 0 1 -0.51954,-1.54297 20.991564,21.875446 0 0 1 -0.40624,-1.58008 20.991564,21.875446 0 0 1 -0.29102,-1.60742 20.991564,21.875446 0 0 1 -0.17578,-1.62695 20.991564,21.875446 0 0 1 -0.0586,-1.63477 20.991564,21.875446 0 0 1 0.0586,-1.63476 20.991564,21.875446 0 0 1 0.17578,-1.625 20.991564,21.875446 0 0 1 0.29102,-1.60743 20.991564,21.875446 0 0 1 0.40624,-1.58007 20.991564,21.875446 0 0 1 0.51954,-1.54297 20.991564,21.875446 0 0 1 0.62695,-1.5 20.991564,21.875446 0 0 1 0.73437,-1.44727 20.991564,21.875446 0 0 1 0.83399,-1.38476 20.991564,21.875446 0 0 1 0.93164,-1.31641 20.991564,21.875446 0 0 1 1.02539,-1.24024 20.991564,21.875446 0 0 1 1.10938,-1.15625 20.991564,21.875446 0 0 1 1.18945,-1.0664 20.991564,21.875446 0 0 1 1.26367,-0.97266 20.991564,21.875446 0 0 1 1.33008,-0.86914 20.991564,21.875446 0 0 1 1.38672,-0.76562 20.991564,21.875446 0 0 1 1.43945,-0.6543 20.991564,21.875446 0 0 1 1.48047,-0.53906 20.991564,21.875446 0 0 1 1.51758,-0.42383 20.991564,21.875446 0 0 1 1.54101,-0.30469 20.991564,21.875446 0 0 1 1.56055,-0.18164 20.991564,21.875446 0 0 1 1.56836,-0.0625 20.991564,21.875446 0 0 1 0.5332,0.008 20.991564,21.875446 0 0 1 0.53125,0.0234 20.991564,21.875446 0 0 1 0.5293,0.0332 20.991564,21.875446 0 0 1 0.53125,0.0488 20.991564,21.875446 0 0 1 0.52734,0.0625 20.991564,21.875446 0 0 1 0.52735,0.0762 20.991564,21.875446 0 0 1 0.52343,0.0918 20.991564,21.875446 0 0 1 0.52344,0.10352 20.991564,21.875446 0 0 1 0.51953,0.11914 20.991564,21.875446 0 0 1 0.51563,0.13281 20.991564,21.875446 0 0 1 0.51367,0.14453 20.991564,21.875446 0 0 1 0.50977,0.16016 20.991564,21.875446 0 0 1 0.50585,0.17187 20.991564,21.875446 0 0 1 0.5,0.18555 20.991564,21.875446 0 0 1 0.4961,0.19922 20.991564,21.875446 0 0 1 0.4707,0.20312 20.991564,21.875446 0 0 1 0.0215,0.01 20.991564,21.875446 0 0 1 0.48632,0.22461 20.991564,21.875446 0 0 1 0.48047,0.23828 20.991564,21.875446 0 0 1 0.47266,0.25 20.991564,21.875446 0 0 1 0.46875,0.26367 20.991564,21.875446 0 0 1 0.46289,0.27344 20.991564,21.875446 0 0 1 0.45312,0.28711 20.991564,21.875446 0 0 1 0.39454,0.26367 20.991564,21.875446 0 0 1 0.0273,-0.0644 20.991564,21.875446 0 0 1 0.53711,-1.07618 20.991564,21.875446 0 0 1 0.19726,-0.37109 20.991564,21.875446 0 0 1 0.83399,-1.38476 20.991564,21.875446 0 0 1 0.93164,-1.31641 20.991564,21.875446 0 0 1 1.02539,-1.24024 20.991564,21.875446 0 0 1 1.10938,-1.15625 20.991564,21.875446 0 0 1 1.18945,-1.0664 20.991564,21.875446 0 0 1 1.26367,-0.97266 20.991564,21.875446 0 0 1 1.33008,-0.86914 20.991564,21.875446 0 0 1 1.38672,-0.76562 20.991564,21.875446 0 0 1 1.43945,-0.6543 20.991564,21.875446 0 0 1 1.48047,-0.53906 20.991564,21.875446 0 0 1 1.51758,-0.42383 20.991564,21.875446 0 0 1 1.54101,-0.30469 20.991564,21.875446 0 0 1 0.26953,-0.0312 20.991564,21.875446 0 0 1 0.008,0 20.991564,21.875446 0 0 1 1.2832,-0.15039 20.991564,21.875446 0 0 1 0.67773,-0.041 20.991564,21.875446 0 0 1 0.89063,-0.0215 20.991564,21.875446 0 0 1 0.32812,0.004 20.991564,21.875446 0 0 1 0.20899,-1.08985 20.991564,21.875446 0 0 1 0.44726,-1.65234 20.991564,21.875446 0 0 1 0.20899,-0.5918 20.991564,21.875446 0 0 1 0.36133,-1.01953 20.991564,21.875446 0 0 1 0.68945,-1.56055 20.991564,21.875446 0 0 1 0.80664,-1.49804 20.991564,21.875446 0 0 1 0.91602,-1.42774 20.991564,21.875446 0 0 1 1.01953,-1.34961 20.991564,21.875446 0 0 1 1.11914,-1.26171 20.991564,21.875446 0 0 1 1.21093,-1.16602 20.991564,21.875446 0 0 1 1.29297,-1.0625 20.991564,21.875446 0 0 1 1.3711,-0.95508 20.991564,21.875446 0 0 1 1.4375,-0.83789 20.991564,21.875446 0 0 1 1.49804,-0.7207 20.991564,21.875446 0 0 1 1.54688,-0.59375 20.991564,21.875446 0 0 1 1.58594,-0.4668 20.991564,21.875446 0 0 1 1.61523,-0.33398 20.991564,21.875446 0 0 1 1.63672,-0.20313 20.991564,21.875446 0 0 1 1.64844,-0.0664 20.991564,21.875446 0 0 1 0.54883,0.008 20.991564,21.875446 0 0 1 0.54882,0.0215 20.991564,21.875446 0 0 1 0.54883,0.0371 20.991564,21.875446 0 0 1 0.54688,0.0527 20.991564,21.875446 0 0 1 0.54687,0.0684 20.991564,21.875446 0 0 1 0.54297,0.082 20.991564,21.875446 0 0 1 0.54102,0.0957 20.991564,21.875446 0 0 1 0.53906,0.11328 20.991564,21.875446 0 0 1 0.53711,0.125 20.991564,21.875446 0 0 1 0.53125,0.14063 20.991564,21.875446 0 0 1 0.5293,0.15625 20.991564,21.875446 0 0 1 0.52539,0.16992 20.991564,21.875446 0 0 1 0.51953,0.18359 20.991564,21.875446 0 0 1 0.51562,0.19922 20.991564,21.875446 0 0 1 0.51172,0.21094 20.991564,21.875446 0 0 1 0.50391,0.22656 20.991564,21.875446 0 0 1 0.5,0.24023 20.991564,21.875446 0 0 1 0.49218,0.25391 20.991564,21.875446 0 0 1 0.48633,0.26563 20.991564,21.875446 0 0 1 0.48047,0.27929 20.991564,21.875446 0 0 1 0.4707,0.29297 20.991564,21.875446 0 0 1 0.46485,0.30664 20.991564,21.875446 0 0 1 0.45703,0.31836 20.991564,21.875446 0 0 1 0.44922,0.33008 20.991564,21.875446 0 0 1 0.4414,0.3418 20.991564,21.875446 0 0 1 0.42969,0.35546 20.991564,21.875446 0 0 1 0.42383,0.36524 20.991564,21.875446 0 0 1 0.41211,0.37891 20.991564,21.875446 0 0 1 0.4043,0.38867 20.991564,21.875446 0 0 1 0.39453,0.39844 20.991564,21.875446 0 0 1 0.38281,0.41015 20.991564,21.875446 0 0 1 0.37305,0.42188 20.991564,21.875446 0 0 1 0.36133,0.42968 20.991564,21.875446 0 0 1 0.35156,0.43946 20.991564,21.875446 0 0 1 0.33984,0.45117 20.991564,21.875446 0 0 1 0.33008,0.45898 20.991564,21.875446 0 0 1 0.31641,0.4668 20.991564,21.875446 0 0 1 0.30664,0.47656 20.991564,21.875446 0 0 1 0.29297,0.48438 20.991564,21.875446 0 0 1 0.28124,0.49218 20.991564,21.875446 0 0 1 0.26758,0.5 20.991564,21.875446 0 0 1 0.25586,0.50586 20.991564,21.875446 0 0 1 0.24219,0.51368 20.991564,21.875446 0 0 1 0.23047,0.51953 20.991564,21.875446 0 0 1 0.2168,0.52734 20.991564,21.875446 0 0 1 0.20507,0.53125 20.991564,21.875446 0 0 1 0.18946,0.53711 20.991564,21.875446 0 0 1 0.17578,0.54297 20.991564,21.875446 0 0 1 0.16406,0.54687 20.991564,21.875446 0 0 1 0.14844,0.55079 20.991564,21.875446 0 0 1 0.13476,0.55468 20.991564,21.875446 0 0 1 0.12305,0.5586 20.991564,21.875446 0 0 1 0.10547,0.5625 20.991564,21.875446 0 0 1 0.0937,0.56445 20.991564,21.875446 0 0 1 0.0781,0.56641 20.991564,21.875446 0 0 1 0.0664,0.56836 20.991564,21.875446 0 0 1 0.0488,0.57031 20.991564,21.875446 0 0 1 0.0371,0.57226 20.991564,21.875446 0 0 1 0.0215,0.57227 20.991564,21.875446 0 0 1 0.006,0.57226 20.991564,21.875446 0 0 1 -0.0644,1.7168 20.991564,21.875446 0 0 1 -0.19336,1.70508 20.991564,21.875446 0 0 1 -0.32227,1.68555 20.991564,21.875446 0 0 1 -0.44726,1.65234 20.991564,21.875446 0 0 1 -0.57031,1.61133 20.991564,21.875446 0 0 1 -0.0469,0.10742 23.554826,21.875446 0 0 0 3.94336,-12.10156 23.554826,21.875446 0 0 0 -23.55469,-21.87696 z"
           transform="scale(0.26458333)" />
        <path
           id="path61570"
           style="opacity:1;fill:#ffffff;fill-opacity:1;stroke:none;stroke-width:7.32087;stroke-linecap:round;stroke-linejoin:round;stroke-miterlimit:4;stroke-dasharray:none;stroke-opacity:1;paint-order:stroke fill markers"
           d="m 384.72266,584.71875 a 11.610796,13.916603 10.305123 0 0 -6.44922,2.08594 11.610796,13.916603 10.305123 0 0 -5.98438,10.34961 11.610796,13.916603 10.305123 0 0 -0.004,0.0332 11.610796,13.916603 10.305123 0 0 -6.15235,-2.2168 11.610796,13.916603 10.305123 0 0 -6.28711,2.08789 v -0.002 a 11.610796,13.916603 10.305123 0 0 -5.16992,7.08398 11.675521,10.038816 77.491337 0 0 -0.0176,-0.01 11.675521,10.038816 77.491337 0 0 -4.27148,-0.78906 11.675521,10.038816 77.491337 0 0 -7.73828,5.45508 11.675521,10.038816 77.491337 0 0 -1.15235,6.47851 9.2591337,11.281148 5.1765205 0 1 0.004,-0.0606 9.2591337,11.281148 5.1765205 0 1 0.13672,-0.875 9.2591337,11.281148 5.1765205 0 1 0.1914,-0.85937 9.2591337,11.281148 5.1765205 0 1 0.2461,-0.84375 9.2591337,11.281148 5.1765205 0 1 0.29883,-0.81836 9.2591337,11.281148 5.1765205 0 1 0.35156,-0.79102 9.2591337,11.281148 5.1765205 0 1 0.12695,-0.25586 9.2591337,11.281148 5.1765205 0 1 0.13477,-0.25195 9.2591337,11.281148 5.1765205 0 1 0.13867,-0.24805 9.2591337,11.281148 5.1765205 0 1 0.14453,-0.24414 9.2591337,11.281148 5.1765205 0 1 0.14844,-0.23828 9.2591337,11.281148 5.1765205 0 1 0.1543,-0.23437 9.2591337,11.281148 5.1765205 0 1 0.1582,-0.22852 9.2591337,11.281148 5.1765205 0 1 0.16406,-0.22656 9.2591337,11.281148 5.1765205 0 1 0.16797,-0.2207 9.2591337,11.281148 5.1765205 0 1 0.17188,-0.21485 9.2591337,11.281148 5.1765205 0 1 0.17773,-0.20898 9.2591337,11.281148 5.1765205 0 1 0.18164,-0.20313 9.2591337,11.281148 5.1765205 0 1 0.18555,-0.19922 9.2591337,11.281148 5.1765205 0 1 0.18945,-0.19335 9.2591337,11.281148 5.1765205 0 1 0.19336,-0.18555 9.2591337,11.281148 5.1765205 0 1 0.19727,-0.18164 9.2591337,11.281148 5.1765205 0 1 0.20117,-0.17383 9.2591337,11.281148 5.1765205 0 1 0.20312,-0.16797 9.2591337,11.281148 5.1765205 0 1 0.20899,-0.16016 9.2591337,11.281148 5.1765205 0 1 0.20898,-0.15625 9.2591337,11.281148 5.1765205 0 1 0.21484,-0.14843 9.2591337,11.281148 5.1765205 0 1 0.2168,-0.14258 9.2591337,11.281148 5.1765205 0 1 0.2207,-0.13477 9.2591337,11.281148 5.1765205 0 1 0.22071,-0.1289 9.2591337,11.281148 5.1765205 0 1 0.22656,-0.1211 9.2591337,11.281148 5.1765205 0 1 0.22656,-0.11523 9.2591337,11.281148 5.1765205 0 1 0.22852,-0.10547 9.2591337,11.281148 5.1765205 0 1 0.23047,-0.0996 9.2591337,11.281148 5.1765205 0 1 0.23437,-0.0937 9.2591337,11.281148 5.1765205 0 1 0.23438,-0.084 9.2591337,11.281148 5.1765205 0 1 0.23633,-0.0781 9.2591337,11.281148 5.1765205 0 1 0.23828,-0.0703 9.2591337,11.281148 5.1765205 0 1 0.23828,-0.0625 9.2591337,11.281148 5.1765205 0 1 0.24023,-0.0547 9.2591337,11.281148 5.1765205 0 1 0.24024,-0.0488 9.2591337,11.281148 5.1765205 0 1 0.24218,-0.0371 9.2591337,11.281148 5.1765205 0 1 0.24219,-0.0312 9.2591337,11.281148 5.1765205 0 1 0.24414,-0.0273 9.2591337,11.281148 5.1765205 0 1 0.24219,-0.0137 9.2591337,11.281148 5.1765205 0 1 0.24219,-0.0117 9.2591337,11.281148 5.1765205 0 1 0.24414,-0.002 9.2591337,11.281148 5.1765205 0 1 0.24218,0.008 9.2591337,11.281148 5.1765205 0 1 0.24219,0.0117 9.2591337,11.281148 5.1765205 0 1 0.24219,0.0234 9.2591337,11.281148 5.1765205 0 1 0.24023,0.0293 9.2591337,11.281148 5.1765205 0 1 0.24024,0.0391 9.2591337,11.281148 5.1765205 0 1 0.23828,0.043 9.2591337,11.281148 5.1765205 0 1 0.23633,0.0527 9.2591337,11.281148 5.1765205 0 1 0.23633,0.0605 9.2591337,11.281148 5.1765205 0 1 0.23437,0.0664 9.2591337,11.281148 5.1765205 0 1 0.23242,0.0762 9.2591337,11.281148 5.1765205 0 1 0.23047,0.084 9.2591337,11.281148 5.1765205 0 1 0.23047,0.0879 9.2591337,11.281148 5.1765205 0 1 0.20898,0.0918 9.2591337,11.281148 5.1765205 0 1 0.0156,0.006 9.2591337,11.281148 5.1765205 0 1 0.22461,0.10547 9.2591337,11.281148 5.1765205 0 1 0.2207,0.11133 9.2591337,11.281148 5.1765205 0 1 0.21875,0.11719 9.2591337,11.281148 5.1765205 0 1 0.2168,0.12695 9.2591337,11.281148 5.1765205 0 1 0.21289,0.13281 9.2591337,11.281148 5.1765205 0 1 0.20898,0.13868 9.2591337,11.281148 5.1765205 0 1 0.53321,0.39843 13.460498,10.697912 85.565439 0 1 0.01,-0.0586 13.460498,10.697912 85.565439 0 1 0.10938,-0.50391 13.460498,10.697912 85.565439 0 1 0.11719,-0.46875 13.460498,10.697912 85.565439 0 1 0.008,-0.0293 13.460498,10.697912 85.565439 0 1 0.29687,-0.97266 13.460498,10.697912 85.565439 0 1 0.35938,-0.93945 13.460498,10.697912 85.565439 0 1 0.41601,-0.89649 13.460498,10.697912 85.565439 0 1 0.47461,-0.85351 13.460498,10.697912 85.565439 0 1 0.52539,-0.79883 13.460498,10.697912 85.565439 0 1 0.57618,-0.74219 13.460498,10.697912 85.565439 0 1 0.62304,-0.68164 13.460498,10.697912 85.565439 0 1 0.66407,-0.61719 13.460498,10.697912 85.565439 0 1 0.70507,-0.54687 13.460498,10.697912 85.565439 0 1 0.24219,-0.16797 13.460498,10.697912 85.565439 0 1 0.24414,-0.1582 13.460498,10.697912 85.565439 0 1 0.25,-0.14844 13.460498,10.697912 85.565439 0 1 0.25391,-0.14258 13.460498,10.697912 85.565439 0 1 0.25586,-0.13281 13.460498,10.697912 85.565439 0 1 0.25781,-0.125 13.460498,10.697912 85.565439 0 1 0.26172,-0.11719 13.460498,10.697912 85.565439 0 1 0.26367,-0.10547 13.460498,10.697912 85.565439 0 1 0.26758,-0.0996 13.460498,10.697912 85.565439 0 1 0.26758,-0.0898 13.460498,10.697912 85.565439 0 1 0.27148,-0.0801 13.460498,10.697912 85.565439 0 1 0.27149,-0.0723 13.460498,10.697912 85.565439 0 1 0.27343,-0.0625 13.460498,10.697912 85.565439 0 1 0.27735,-0.0527 13.460498,10.697912 85.565439 0 1 0.27734,-0.0449 13.460498,10.697912 85.565439 0 1 0.27734,-0.0352 13.460498,10.697912 85.565439 0 1 0.2793,-0.0254 13.460498,10.697912 85.565439 0 1 0.2793,-0.0156 13.460498,10.697912 85.565439 0 1 0.27929,-0.008 13.460498,10.697912 85.565439 0 1 0.28125,0.002 13.460498,10.697912 85.565439 0 1 0.28125,0.0137 13.460498,10.697912 85.565439 0 1 0.2793,0.0195 13.460498,10.697912 85.565439 0 1 0.28125,0.0312 13.460498,10.697912 85.565439 0 1 0.2793,0.0371 13.460498,10.697912 85.565439 0 1 0.28125,0.0469 13.460498,10.697912 85.565439 0 1 0.27734,0.0566 13.460498,10.697912 85.565439 0 1 0.27735,0.0644 13.460498,10.697912 85.565439 0 1 0.27539,0.0762 13.460498,10.697912 85.565439 0 1 0.27539,0.084 13.460498,10.697912 85.565439 0 1 0.27148,0.0918 13.460498,10.697912 85.565439 0 1 0.27149,0.10156 13.460498,10.697912 85.565439 0 1 0.26953,0.11133 13.460498,10.697912 85.565439 0 1 0.26758,0.11914 13.460498,10.697912 85.565439 0 1 0.26562,0.12696 13.460498,10.697912 85.565439 0 1 0.26172,0.13672 13.460498,10.697912 85.565439 0 1 0.25976,0.14453 13.460498,10.697912 85.565439 0 1 0.25586,0.15234 13.460498,10.697912 85.565439 0 1 0.25586,0.16211 13.460498,10.697912 85.565439 0 1 0.25,0.16992 13.460498,10.697912 85.565439 0 1 0.2461,0.17774 13.460498,10.697912 85.565439 0 1 0.24414,0.18554 13.460498,10.697912 85.565439 0 1 0.23828,0.19141 13.460498,10.697912 85.565439 0 1 0.0586,0.0508 13.460498,10.697912 85.565439 0 1 0.17774,0.15039 13.460498,10.697912 85.565439 0 1 0.23242,0.20703 13.460498,10.697912 85.565439 0 1 0.22851,0.2168 13.460498,10.697912 85.565439 0 1 0.22266,0.22265 13.460498,10.697912 85.565439 0 1 0.21875,0.22852 13.460498,10.697912 85.565439 0 1 0.21484,0.23828 13.460498,10.697912 85.565439 0 1 0.20899,0.24219 13.460498,10.697912 85.565439 0 1 0.20508,0.25 13.460498,10.697912 85.565439 0 1 0.19922,0.25781 13.460498,10.697912 85.565439 0 1 0.18359,0.24414 13.460498,10.697912 85.565439 0 1 -0.084,-0.95312 13.460498,10.697912 85.565439 0 1 -0.0254,-1.05664 13.460498,10.697912 85.565439 0 1 0.0293,-0.79492 13.460498,10.697912 85.565439 0 1 0,-0.0137 13.460498,10.697912 85.565439 0 1 0.01,-0.24218 13.460498,10.697912 85.565439 0 1 0.10547,-1.04297 13.460498,10.697912 85.565439 0 1 0.16992,-1.02539 13.460498,10.697912 85.565439 0 1 0.23633,-1.00391 13.460498,10.697912 85.565439 0 1 0.29687,-0.97266 13.460498,10.697912 85.565439 0 1 0.35938,-0.9375 13.460498,10.697912 85.565439 0 1 0.41601,-0.89843 13.460498,10.697912 85.565439 0 1 0.47266,-0.85157 13.460498,10.697912 85.565439 0 1 0.52734,-0.79882 13.460498,10.697912 85.565439 0 1 0.57617,-0.74415 13.460498,10.697912 85.565439 0 1 0.6211,-0.68164 13.460498,10.697912 85.565439 0 1 0.66601,-0.61718 13.460498,10.697912 85.565439 0 1 0.70313,-0.54688 13.460498,10.697912 85.565439 0 1 0.24219,-0.16601 13.460498,10.697912 85.565439 0 1 0.24609,-0.15821 13.460498,10.697912 85.565439 0 1 0.25,-0.15039 13.460498,10.697912 85.565439 0 1 0.25195,-0.14258 13.460498,10.697912 85.565439 0 1 0.25781,-0.13281 13.460498,10.697912 85.565439 0 1 0.25782,-0.12304 13.460498,10.697912 85.565439 0 1 0.25976,-0.11719 13.460498,10.697912 85.565439 0 1 0.26563,-0.10742 13.460498,10.697912 85.565439 0 1 0.26562,-0.0996 13.460498,10.697912 85.565439 0 1 0.26953,-0.0879 13.460498,10.697912 85.565439 0 1 0.26953,-0.082 13.460498,10.697912 85.565439 0 1 0.27344,-0.0703 13.460498,10.697912 85.565439 0 1 0.27344,-0.0625 13.460498,10.697912 85.565439 0 1 0.27539,-0.0527 13.460498,10.697912 85.565439 0 1 0.27734,-0.0469 13.460498,10.697912 85.565439 0 1 0.27735,-0.0332 13.460498,10.697912 85.565439 0 1 0.2793,-0.0273 13.460498,10.697912 85.565439 0 1 0.28124,-0.0156 13.460498,10.697912 85.565439 0 1 0.2793,-0.006 13.460498,10.697912 85.565439 0 1 0.28125,0 13.460498,10.697912 85.565439 0 1 0.2793,0.0156 13.460498,10.697912 85.565439 0 1 0.28125,0.0195 13.460498,10.697912 85.565439 0 1 0.28125,0.0293 13.460498,10.697912 85.565439 0 1 0.2793,0.0371 13.460498,10.697912 85.565439 0 1 0.27929,0.0469 13.460498,10.697912 85.565439 0 1 0.27735,0.0586 13.460498,10.697912 85.565439 0 1 0.27734,0.0645 13.460498,10.697912 85.565439 0 1 0.27539,0.0762 13.460498,10.697912 85.565439 0 1 0.27539,0.082 13.460498,10.697912 85.565439 0 1 0.27344,0.0937 13.460498,10.697912 85.565439 0 1 0.27148,0.10156 13.460498,10.697912 85.565439 0 1 0.26953,0.10938 13.460498,10.697912 85.565439 0 1 0.26758,0.11914 13.460498,10.697912 85.565439 0 1 0.26367,0.12695 13.460498,10.697912 85.565439 0 1 0.26368,0.13867 13.460498,10.697912 85.565439 0 1 0.25976,0.14453 13.460498,10.697912 85.565439 0 1 0.25586,0.15235 13.460498,10.697912 85.565439 0 1 0.25391,0.16015 13.460498,10.697912 85.565439 0 1 0.25,0.16993 13.460498,10.697912 85.565439 0 1 0.24804,0.17773 13.460498,10.697912 85.565439 0 1 0.24219,0.18555 13.460498,10.697912 85.565439 0 1 0.24024,0.19336 13.460498,10.697912 85.565439 0 1 0.23632,0.20117 13.460498,10.697912 85.565439 0 1 0.23047,0.20703 13.460498,10.697912 85.565439 0 1 0.22852,0.21484 13.460498,10.697912 85.565439 0 1 0.22461,0.22266 13.460498,10.697912 85.565439 0 1 0.21875,0.23047 13.460498,10.697912 85.565439 0 1 0.21289,0.23633 13.460498,10.697912 85.565439 0 1 0.21094,0.24414 13.460498,10.697912 85.565439 0 1 0.20312,0.25 13.460498,10.697912 85.565439 0 1 0.19922,0.25586 13.460498,10.697912 85.565439 0 1 0.19531,0.26171 13.460498,10.697912 85.565439 0 1 0.18946,0.26954 13.460498,10.697912 85.565439 0 1 0.18359,0.27539 13.460498,10.697912 85.565439 0 1 0.17578,0.27929 13.460498,10.697912 85.565439 0 1 0.17383,0.28516 13.460498,10.697912 85.565439 0 1 0.16601,0.29101 13.460498,10.697912 85.565439 0 1 0.16016,0.29688 13.460498,10.697912 85.565439 0 1 0.1543,0.30078 13.460498,10.697912 85.565439 0 1 0.14843,0.30469 13.460498,10.697912 85.565439 0 1 0.4043,0.94336 13.460498,10.697912 85.565439 0 1 0.3457,0.97656 13.460498,10.697912 85.565439 0 1 0.28516,1.00586 13.460498,10.697912 85.565439 0 1 0.22266,1.02734 13.460498,10.697912 85.565439 0 1 0.15625,1.04297 13.460498,10.697912 85.565439 0 1 0.004,0.0723 11.610796,13.916603 10.305123 0 0 -1.33007,-7.73047 11.610796,13.916603 10.305123 0 0 -9.38086,-6.53711 z"
           transform="scale(0.26458333)" />
      </g>
    </g>
  </g>
</svg>
