<?xml version="1.0" encoding="UTF-8" standalone="no"?>
<!-- Created with Inkscape (http://www.inkscape.org/) -->

<svg
   width="793.70081"
   height="779.70801"
   viewBox="0 0 210 206.29775"
   version="1.1"
   id="svg62080"
   sodipodi:docname="full-rocket.svg"
   inkscape:version="1.1 (c68e22c387, 2021-05-23)"
   xmlns:inkscape="http://www.inkscape.org/namespaces/inkscape"
   xmlns:sodipodi="http://sodipodi.sourceforge.net/DTD/sodipodi-0.dtd"
   xmlns="http://www.w3.org/2000/svg"
   xmlns:svg="http://www.w3.org/2000/svg">
  <sodipodi:namedview
     id="namedview62082"
     pagecolor="#505050"
     bordercolor="#ffffff"
     borderopacity="1"
     inkscape:pageshadow="0"
     inkscape:pageopacity="0"
     inkscape:pagecheckerboard="1"
     inkscape:document-units="mm"
     showgrid="false"
     units="px"
     inkscape:zoom="1.0104048"
     inkscape:cx="397.36549"
     inkscape:cy="421.11835"
     inkscape:window-width="1920"
     inkscape:window-height="991"
     inkscape:window-x="-9"
     inkscape:window-y="-9"
     inkscape:window-maximized="1"
     inkscape:current-layer="layer1" />
  <defs
     id="defs62077" />
  <g
     inkscape:label="Layer 1"
     inkscape:groupmode="layer"
     id="layer1">
    <ellipse
       style="fill:#f5f5f5;fill-opacity:1;stroke:none;stroke-width:13.2717;stroke-linecap:round;stroke-linejoin:round;paint-order:stroke fill markers"
       id="ellipse3603"
       cx="104.81011"
       cy="83.013504"
       rx="80.637749"
       ry="79.806969" />
    <path
       id="path42656"
       style="fill:#ececec;fill-opacity:1;stroke:none;stroke-width:14.9076;stroke-linecap:round;stroke-linejoin:round;paint-order:stroke fill markers"
       d="m 115.55986,83.819984 a 13.337598,13.337598 0 0 0 -16.335294,9.431177 13.337598,13.337598 0 0 0 7.239074,15.527329 12.930964,12.930964 0 0 1 -3.20896,-12.341901 12.930964,12.930964 0 0 1 15.83714,-9.144646 12.930964,12.930964 0 0 1 4.00424,1.853219 13.337598,13.337598 0 0 0 -7.5362,-5.325178 z" />
    <path
       id="path3605"
       style="fill:#dadada;fill-opacity:1;stroke:none;stroke-width:13.2716;stroke-linecap:round;stroke-linejoin:round;paint-order:stroke fill markers"
       d="M 104.80998,3.2060803 A 80.637749,79.806968 0 0 0 53.938398,21.124754 67.788024,67.089628 0 0 1 94.852722,7.4742515 67.788024,67.089628 0 0 1 160.76293,59.023497 a 5.3626539,5.3626539 0 0 1 1.3914,-0.188031 5.3626539,5.3626539 0 0 1 5.36226,5.363355 5.3626539,5.3626539 0 0 1 -5.08573,5.351342 67.788024,67.089628 0 0 1 0.20986,5.013604 67.788024,67.089628 0 0 1 -5.82899,27.166573 5.5515125,5.5515125 0 0 1 3.31399,5.08027 5.5515125,5.5515125 0 0 1 -5.55245,5.55244 5.5515125,5.5515125 0 0 1 -3.09757,-0.94654 67.788024,67.089628 0 0 1 -14.40905,15.47144 6.6774609,6.6774609 0 0 1 0.78478,3.12708 6.6774609,6.6774609 0 0 1 -6.67715,6.67824 6.6774609,6.6774609 0 0 1 -4.9666,-2.21769 5.0619697,5.0619697 0 0 1 0.0175,0.41096 5.0619697,5.0619697 0 0 1 -5.06276,5.0617 5.0619697,5.0619697 0 0 1 -4.14031,-2.1554 67.788024,67.089628 0 0 1 -22.169354,3.86158 A 67.788024,67.089628 0 0 1 27.064831,74.563767 67.788024,67.089628 0 0 1 35.316995,42.573782 80.637749,79.806968 0 0 0 24.172745,83.013755 80.637749,79.806968 0 0 0 104.81005,162.8204 80.637749,79.806968 0 0 0 185.44846,83.013755 80.637749,79.806968 0 0 0 104.81005,3.206038 Z m 63.05201,41.8521477 a 3.0780054,3.0780054 0 0 1 3.07789,3.078975 3.0780054,3.0780054 0 0 1 -3.07789,3.077898 3.0780054,3.0780054 0 0 1 -3.0779,-3.077898 3.0780054,3.0780054 0 0 1 3.0779,-3.078975 z m -16.81256,79.111482 a 5.5515125,5.5515125 0 0 1 5.55135,5.55244 5.5515125,5.5515125 0 0 1 -5.55135,5.55134 5.5515125,5.5515125 0 0 1 -5.55136,-5.55134 5.5515125,5.5515125 0 0 1 5.55136,-5.55244 z m -12.58155,15.66599 a 2.5653025,2.5653025 0 0 1 2.56528,2.56526 2.5653025,2.5653025 0 0 1 -2.56528,2.56528 2.5653025,2.5653025 0 0 1 -2.56527,-2.56528 2.5653025,2.5653025 0 0 1 2.56527,-2.56526 z" />
    <path
       id="path3607"
       style="fill:#e6e6e6;fill-opacity:1;stroke:none;stroke-width:12.6905;stroke-linecap:round;stroke-linejoin:round;paint-order:stroke fill markers"
       d="m 95.186884,32.543346 a 11.354013,11.354013 0 0 0 -11.354109,11.3541 11.354013,11.354013 0 0 0 9.373583,11.172677 11.007854,11.007854 0 0 1 -5.357898,-9.44135 11.007854,11.007854 0 0 1 11.007637,-11.008716 11.007854,11.007854 0 0 1 3.700893,0.641591 11.354013,11.354013 0 0 0 -7.370106,-2.718302 z" />
    <path
       id="path3609"
       style="fill:#e6e6e6;fill-opacity:1;stroke:none;stroke-width:10.3244;stroke-linecap:round;stroke-linejoin:round;paint-order:stroke fill markers"
       d="m 65.13561,91.851248 a 9.237047,9.237047 0 0 0 -13.063269,-2.1e-5 9.237047,9.237047 0 0 0 -1.034955,11.819573 8.95543,8.95543 0 0 1 2.34908,-8.5135 8.95543,8.95543 0 0 1 12.665252,-6.35e-4 8.95543,8.95543 0 0 1 1.759922,2.498088 9.237047,9.237047 0 0 0 -2.67603,-5.803505 z" />
    <path
       id="path3611"
       style="fill:#e6e6e6;fill-opacity:1;stroke:none;stroke-width:8.04414;stroke-linecap:round;stroke-linejoin:round;paint-order:stroke fill markers"
       d="m 87.80601,83.81844 a 7.1969508,7.1969508 0 0 0 -8.814502,5.08905 7.1969508,7.1969508 0 0 0 3.906208,8.378519 6.9775318,6.9775318 0 0 1 -1.731559,-6.659672 6.9775318,6.9775318 0 0 1 8.545696,-4.934437 6.9775318,6.9775318 0 0 1 2.160689,0.999993 7.1969508,7.1969508 0 0 0 -4.066532,-2.873453 z" />
    <circle
       style="fill:#e6e6e6;fill-opacity:1;stroke:none;stroke-width:12.6905;stroke-linecap:round;stroke-linejoin:round;paint-order:stroke fill markers"
       id="circle3613"
       cx="58.361496"
       cy="69.784027"
       r="5.9234657" />
    <circle
       style="fill:#e6e6e6;fill-opacity:1;stroke:none;stroke-width:5.57101;stroke-linecap:round;stroke-linejoin:round;paint-order:stroke fill markers"
       id="circle3615"
       cx="97.546684"
       cy="22.291029"
       r="2.6003404" />
    <circle
       style="fill:#e6e6e6;fill-opacity:1;stroke:none;stroke-width:8.53749;stroke-linecap:round;stroke-linejoin:round;paint-order:stroke fill markers"
       id="circle3617"
       cx="143.23964"
       cy="62.999306"
       r="3.9849761" />
    <circle
       style="opacity:0.658537;fill:none;stroke:#f5f5f5;stroke-width:4.23018;stroke-linecap:round;stroke-linejoin:round;stroke-miterlimit:4;stroke-dasharray:none;stroke-opacity:1;paint-order:stroke fill markers"
       id="circle3619"
       cx="161.15691"
       cy="86.105713"
       r="9.1741285" />
    <path
       id="circle3621"
       style="fill:#dadada;fill-opacity:1;stroke:none;stroke-width:11.1301;stroke-linecap:round;stroke-linejoin:round;paint-order:stroke fill markers"
       d="m 161.63509,59.216288 c -0.34016,0.001 -0.67943,0.03278 -1.01322,0.09433 0.18116,-0.01904 0.36321,-0.02771 0.54541,-0.02877 2.96184,-3.38e-4 4.8266,2.252802 4.82682,5.03245 -0.002,2.409255 -1.28666,4.479206 -3.80705,4.937038 2.73148,-0.265443 4.80792,-2.424504 4.81031,-5.001654 3.8e-4,-2.779669 -2.40044,-5.033274 -5.36227,-5.033465 z"
       sodipodi:nodetypes="ccccccc" />
    <path
       id="circle25792"
       style="fill:#dadada;fill-opacity:1;stroke:none;stroke-width:4.23018;stroke-linecap:round;stroke-linejoin:round;stroke-miterlimit:4;stroke-dasharray:none;stroke-opacity:1;paint-order:stroke fill markers"
       d="m 161.15641,76.931249 a 9.1741282,9.1741282 0 0 0 -9.17356,9.174659 9.1741282,9.1741282 0 0 0 7.40181,8.995405 9.1741282,9.1741282 0 0 0 1.77175,0.178091 9.1741282,9.1741282 0 0 0 9.17466,-9.17356 9.1741282,9.1741282 0 0 0 -7.74282,-9.062073 9.1741282,9.1741282 0 0 0 -1.43184,-0.112522 z" />
    <path
       id="path41301"
       style="fill:#dadada;fill-opacity:1;stroke:none;stroke-width:11.1301;stroke-linecap:round;stroke-linejoin:round;paint-order:stroke fill markers"
       d="m 156.93828,102.4853 c -0.29071,-0.17661 -0.59672,-0.32655 -0.91359,-0.44815 0.16443,0.0785 0.32427,0.16604 0.48028,0.26005 2.52682,1.5452 2.94191,4.44031 1.49168,6.81164 -1.25913,2.05405 -3.43486,3.14971 -5.82382,2.22514 2.46865,1.19883 5.3666,0.44049 6.71338,-1.75675 1.45076,-2.37106 0.57862,-5.54627 -1.94793,-7.09191 z"
       sodipodi:nodetypes="ccccccc" />
    <g
       id="g61739"
       transform="matrix(2.1150879,0,0,2.1150879,336.87506,-178.26722)">
      <g
         id="g46581"
         transform="translate(-219.78741,-1.1109725)">
        <path
           id="path46351"
           style="fill:#ffffff;stroke:none;stroke-width:0.264583px;stroke-linecap:butt;stroke-linejoin:miter;stroke-opacity:1"
           d="m 73.254959,97.973863 -0.995288,1.828313 -1.45831,0.694534 1.596803,1.01854 0.856795,1.64331 0.856279,-1.64331 1.5968,-1.01854 -1.457791,-0.694534 z" />
        <path
           id="path46472"
           style="fill:#ffffff;stroke:none;stroke-width:0.164738px;stroke-linecap:butt;stroke-linejoin:miter;stroke-opacity:1"
           d="m 135.78392,85.394601 -0.6197,1.138367 -0.90799,0.432438 0.99422,0.634178 0.53347,1.023177 0.53315,-1.023177 0.99422,-0.634178 -0.90767,-0.432438 z" />
        <path
           id="path46573"
           style="fill:#ffffff;stroke:none;stroke-width:0.254598px;stroke-linecap:butt;stroke-linejoin:miter;stroke-opacity:1"
           d="m 138.7466,91.087415 -0.95773,1.759317 -1.40328,0.668323 1.53654,0.980106 0.82447,1.581294 0.82397,-1.581294 1.53654,-0.980106 -1.40278,-0.668323 z" />
        <path
           id="path46575"
           style="fill:#ffffff;stroke:none;stroke-width:0.334474px;stroke-linecap:butt;stroke-linejoin:miter;stroke-opacity:1"
           d="m 147.35672,93.452558 -1.2582,2.311273 -1.84354,0.877998 2.0186,1.287597 1.08314,2.077394 1.08248,-2.077394 2.0186,-1.287597 -1.84288,-0.877998 z" />
      </g>
    </g>
    <g
       id="g63863">
      <g
         id="g63836">
        <g
           id="g61789"
           transform="matrix(2.1150879,0,0,2.1150879,336.87506,-178.26722)">
          <path
             id="path3633"
             style="fill:#00263b;fill-opacity:1;stroke:none;stroke-width:0.264583px;stroke-linecap:butt;stroke-linejoin:miter;stroke-opacity:1"
             d="m -109.52937,106.86169 c 0,0 -9.26156,8.42475 -5.75418,21.51445 l -3.14192,3.14244 v 9.55756 l 4.56613,-4.56613 0.70383,7.47965 h 3.62614 3.62613 l 0.70383,-7.47965 4.56613,4.56613 v -9.55756 l -3.14244,-3.14244 c 3.50738,-13.0897 -5.75365,-21.51445 -5.75365,-21.51445 z" />
          <g
             id="g61780">
            <path
               style="fill:#ffffff;stroke:none;stroke-width:0.264583px;stroke-linecap:butt;stroke-linejoin:miter;stroke-opacity:1"
               d="m -108.70411,108.34406 c 0,0 6.5792,9.42691 4.28793,19.08295 l -0.68737,-0.42552 c 0,0 2.94591,-7.69209 -3.60056,-18.65743 z"
               id="path3635" />
            <circle
               style="fill:#ffffff;stroke:none;stroke-width:5.48688;stroke-linecap:round;stroke-linejoin:round;paint-order:stroke fill markers"
               id="circle3637"
               cx="-109.5294"
               cy="122.53657"
               r="2.5610666" />
            <circle
               style="fill:#ffffff;stroke:none;stroke-width:3.73372;stroke-linecap:round;stroke-linejoin:round;paint-order:stroke fill markers"
               id="circle3639"
               cx="-109.5294"
               cy="131.21063"
               r="1.742758" />
            <circle
               style="fill:#ffffff;stroke:none;stroke-width:3.13765;stroke-linecap:round;stroke-linejoin:round;paint-order:stroke fill markers"
               id="circle3641"
               cx="-109.5294"
               cy="135.60495"
               r="1.4645331" />
            <circle
               style="fill:#ffffff;stroke:none;stroke-width:2.05069;stroke-linecap:round;stroke-linejoin:round;paint-order:stroke fill markers"
               id="circle3643"
               cx="-109.5294"
               cy="139.2137"
               r="0.95718175" />
          </g>
        </g>
        <path
           id="path3645"
           style="fill:#00263b;fill-opacity:1;stroke:none;stroke-width:0.559616px;stroke-linecap:butt;stroke-linejoin:miter;stroke-opacity:1"
           d="m 103.71807,127.67278 -6.176564,0.0645 -9.044581,21.10257 a 13.221836,16.232523 0 0 0 -7.683797,-3.03964 13.221836,16.232523 0 0 0 -11.72793,8.75932 80.637749,79.806968 0 0 0 0.06007,0.0307 80.637749,79.806968 0 0 0 2.38493,1.11706 80.637749,79.806968 0 0 0 2.420993,1.03834 80.637749,79.806968 0 0 0 2.454877,0.95966 80.637749,79.806968 0 0 0 2.484404,0.87988 80.637749,79.806968 0 0 0 2.511709,0.79897 80.637749,79.806968 0 0 0 1.302852,0.36834 l -0.0011,0.001 a 80.637749,79.806968 0 0 0 0.15419,0.0414 80.637749,79.806968 0 0 0 1.082058,0.30605 80.637749,79.806968 0 0 0 0.494042,0.12247 80.637749,79.806968 0 0 0 0.433931,0.11802 80.637749,79.806968 0 0 0 0.713737,0.1673 80.637749,79.806968 0 0 0 0.918117,0.22735 80.637749,79.806968 0 0 0 0.657983,0.14108 80.637749,79.806968 0 0 0 0.511534,0.11908 80.637749,79.806968 0 0 0 0.618642,0.12246 80.637749,79.806968 0 0 0 0.790218,0.16836 80.637749,79.806968 0 0 0 0.774947,0.13981 80.637749,79.806968 0 0 0 0.639412,0.12564 80.637749,79.806968 0 0 0 0.548675,0.0873 80.637749,79.806968 0 0 0 0.633955,0.11485 80.637749,79.806968 0 0 0 0.898447,0.13114 80.637749,79.806968 0 0 0 0.760713,0.12246 80.637749,79.806968 0 0 0 0.482028,0.0601 80.637749,79.806968 0 0 0 0.217495,0.0317 13.221836,16.232523 0 0 0 0,-0.001 13.221836,16.232523 0 0 0 0,-0.001 13.221836,16.232523 0 0 0 0,-0.001 13.221836,16.232523 0 0 0 0,-0.001 80.637749,79.806968 0 0 0 2.156501,0.26779 80.637749,79.806968 0 0 0 2.866938,0.25358 80.637749,79.806968 0 0 0 2.874594,0.15313 80.637749,79.806968 0 0 0 2.87787,0.0503 80.637749,79.806968 0 0 0 0.16942,-0.004 z m 2.56091,0 -1.26134,35.14438 a 80.637749,79.806968 0 0 0 0.16942,0.004 80.637749,79.806968 0 0 0 2.87788,-0.0503 80.637749,79.806968 0 0 0 2.87459,-0.15292 80.637749,79.806968 0 0 0 2.86694,-0.25357 80.637749,79.806968 0 0 0 2.1565,-0.2678 13.221836,16.232523 0 0 0 0,0.004 80.637749,79.806968 0 0 0 0.21752,-0.0317 80.637749,79.806968 0 0 0 0.482,-0.0601 80.637749,79.806968 0 0 0 0.76074,-0.12246 80.637749,79.806968 0 0 0 0.89844,-0.13114 80.637749,79.806968 0 0 0 0.63394,-0.11485 80.637749,79.806968 0 0 0 0.54869,-0.0873 80.637749,79.806968 0 0 0 0.63939,-0.12564 80.637749,79.806968 0 0 0 0.77495,-0.1398 80.637749,79.806968 0 0 0 0.79024,-0.16837 80.637749,79.806968 0 0 0 0.61864,-0.12246 80.637749,79.806968 0 0 0 0.51152,-0.11908 80.637749,79.806968 0 0 0 0.658,-0.14108 80.637749,79.806968 0 0 0 0.91812,-0.22732 80.637749,79.806968 0 0 0 0.71373,-0.16731 80.637749,79.806968 0 0 0 0.43392,-0.11802 80.637749,79.806968 0 0 0 0.49403,-0.12246 80.637749,79.806968 0 0 0 1.08207,-0.30606 80.637749,79.806968 0 0 0 0.15411,-0.0415 l -0.001,-0.001 a 80.637749,79.806968 0 0 0 1.30286,-0.36835 80.637749,79.806968 0 0 0 2.51172,-0.79899 80.637749,79.806968 0 0 0 2.48439,-0.87986 80.637749,79.806968 0 0 0 2.45488,-0.95966 80.637749,79.806968 0 0 0 2.421,-1.03833 80.637749,79.806968 0 0 0 2.38493,-1.11707 80.637749,79.806968 0 0 0 0.0601,-0.0307 13.221836,16.232523 0 0 0 -11.72791,-8.75931 13.221836,16.232523 0 0 0 -7.68382,3.03963 l -9.04458,-21.10259 z" />
      </g>
      <g
         id="g61755"
         transform="matrix(2.1150879,0,0,2.1150879,336.87506,-178.26722)">
        <g
           id="g54042"
           transform="translate(-218.91059,-0.061612)">
          <path
             id="path54030"
             style="opacity:1;fill:#ffffff;fill-opacity:0.670487;stroke:none;stroke-width:7.55906;stroke-linecap:round;stroke-linejoin:round;stroke-miterlimit:4;stroke-dasharray:none;stroke-opacity:1;paint-order:stroke fill markers"
             d="m 300.40234,585.73438 a 25.484834,19.361363 60 0 0 -8.11718,2.02734 25.484834,19.361363 60 0 0 -8.19922,14.12109 25.558671,21.512634 65.329383 0 0 -18.33203,-2.52148 25.558671,21.512634 65.329383 0 0 -12.82032,18.04883 25.484834,25.484834 0 0 0 -2.04492,-0.084 25.484834,25.484834 0 0 0 -25.48437,25.48633 25.484834,25.484834 0 0 0 9.4082,19.61523 25.484834,25.214821 0 0 1 -6.60938,-16.89648 25.484834,25.214821 0 0 1 25.48438,-25.21484 25.484834,25.214821 0 0 1 2.04492,0.082 25.337371,21.47061 63.917388 0 1 12.82031,-17.85742 25.337371,21.47061 63.917388 0 1 18.33204,2.49414 25.2841,19.308312 58.995419 0 1 8.19921,-13.97071 25.2841,19.308312 58.995419 0 1 8.11719,-2.00586 25.2841,19.308312 58.995419 0 1 16.22266,7.59571 25.484834,19.361363 60 0 0 -19.02149,-10.91992 z"
             transform="scale(0.26458333)" />
          <path
             id="path54032"
             style="opacity:1;fill:#ffffff;fill-opacity:0.670487;stroke:none;stroke-width:1.41292;stroke-linecap:round;stroke-linejoin:round;stroke-miterlimit:4;stroke-dasharray:none;stroke-opacity:1;paint-order:stroke fill markers"
             d="m 84.553624,165.85363 a 4.7851002,3.6027119 61.544966 0 0 -1.504234,0.38221 4.7851002,3.6027119 61.544966 0 0 -1.519438,2.66232 4.8053939,3.9976586 67.386329 0 0 -3.397199,-0.47538 4.8053939,3.9976586 67.386329 0 0 -2.375798,3.40283 4.7227211,4.8047872 0 0 0 -0.378954,-0.0157 4.7227211,4.8047872 0 0 0 -4.722635,4.80507 4.7227211,4.8047872 0 0 0 1.74348,3.69816 4.7227211,4.7538803 0 0 1 -1.224817,-3.18559 4.7227211,4.7538803 0 0 1 4.722637,-4.75388 4.7227211,4.7538803 0 0 1 0.378954,0.0156 4.7623638,3.9910412 66.146412 0 1 2.375796,-3.36676 4.7623638,3.9910412 66.146412 0 1 3.3972,0.47023 4.7462131,3.5937463 60.601372 0 1 1.519437,-2.63395 4.7462131,3.5937463 60.601372 0 1 1.504237,-0.37818 4.7462131,3.5937463 60.601372 0 1 3.006301,1.43206 4.7851002,3.6027119 61.544966 0 0 -3.524967,-2.0588 z" />
          <path
             id="path54034"
             style="opacity:1;fill:#ffffff;fill-opacity:1;stroke:none;stroke-width:7.55906;stroke-linecap:round;stroke-linejoin:round;stroke-miterlimit:4;stroke-dasharray:none;stroke-opacity:1;paint-order:stroke fill markers"
             d="m 365.63281,619.80078 a 13.917688,12.123853 0 0 0 -13.91797,12.125 13.917688,12.123853 0 0 0 0.0547,0.94922 11.752715,11.752715 0 0 0 -2.15625,-0.20703 11.752715,11.752715 0 0 0 -11.56055,9.66797 11.752715,11.752715 0 0 1 0.28516,0.0898 11.752715,11.752715 0 0 1 1.39453,0.65039 11.752715,11.752715 0 0 1 0.82422,0.52539 11.752715,11.752715 0 0 1 11.2207,-8.27539 11.752715,11.752715 0 0 1 0.51954,0.0195 13.917688,12.123853 0 0 0 0.004,0.0137 11.752715,11.752715 0 0 1 0.92578,0.0566 11.752715,11.752715 0 0 1 0.20117,0.0371 13.917688,12.123853 0 0 1 -0.043,-0.80664 13.917688,12.123853 0 0 1 0.084,-1.30273 13.917688,12.123853 0 0 1 13.83398,-10.82031 13.917688,12.123853 0 0 1 9.28711,3.10156 13.917688,12.123853 0 0 1 0.6543,0.56445 11.752715,11.752715 0 0 1 0.46094,-0.25586 11.752715,11.752715 0 0 1 5,-1.12304 11.752715,11.752715 0 0 1 11.74609,11.36718 11.752715,11.752715 0 0 0 0.11914,-0.4707 11.752715,11.752715 0 0 0 -3.23828,-10.86523 11.752715,11.752715 0 0 0 -7.45117,-2.68946 11.752715,11.752715 0 0 0 -7.16602,2.47461 11.752715,11.752715 0 0 0 -0.002,0.002 13.917688,12.123853 0 0 0 -11.08008,-4.82813 z"
             transform="scale(0.26458333)" />
          <path
             id="path54036"
             style="opacity:1;fill:#ffffff;fill-opacity:1;stroke:none;stroke-width:2;stroke-linecap:round;stroke-linejoin:round;stroke-miterlimit:4;stroke-dasharray:none;stroke-opacity:1;paint-order:stroke fill markers"
             d="m 97.170294,159.98713 a 3.6823882,3.2077694 0 0 0 -3.682463,3.20807 3.6823882,3.2077694 0 0 0 0.01447,0.25115 3.1095725,3.1095725 0 0 0 -0.570508,-0.0548 3.1095725,3.1095725 0 0 0 -3.058729,2.55798 3.1095725,3.1095725 0 0 1 0.07545,0.0238 3.1095725,3.1095725 0 0 1 0.368969,0.17208 3.1095725,3.1095725 0 0 1 0.218075,0.13901 3.1095725,3.1095725 0 0 1 2.96881,-2.18953 3.1095725,3.1095725 0 0 1 0.137462,0.005 3.6823882,3.2077694 0 0 0 0.001,0.004 3.1095725,3.1095725 0 0 1 0.244946,0.015 3.1095725,3.1095725 0 0 1 0.05323,0.01 3.6823882,3.2077694 0 0 1 -0.01137,-0.21342 3.6823882,3.2077694 0 0 1 0.02222,-0.34468 3.6823882,3.2077694 0 0 1 3.66024,-2.86288 3.6823882,3.2077694 0 0 1 2.457214,0.82062 3.6823882,3.2077694 0 0 1 0.17312,0.14935 3.1095725,3.1095725 0 0 1 0.12196,-0.0677 3.1095725,3.1095725 0 0 1 1.32291,-0.29714 3.1095725,3.1095725 0 0 1 3.10782,3.00757 3.1095725,3.1095725 0 0 0 0.0315,-0.12454 3.1095725,3.1095725 0 0 0 -0.85679,-2.87476 3.1095725,3.1095725 0 0 0 -1.97146,-0.71159 3.1095725,3.1095725 0 0 0 -1.89601,0.65475 3.1095725,3.1095725 0 0 0 -5.1e-4,5.1e-4 3.6823882,3.2077694 0 0 0 -2.931607,-1.27744 z" />
          <path
             id="path54038"
             style="opacity:1;fill:#ffffff;fill-opacity:1;stroke:none;stroke-width:13.0733;stroke-linecap:round;stroke-linejoin:round;stroke-miterlimit:4;stroke-dasharray:none;stroke-opacity:1;paint-order:stroke fill markers"
             d="m 369.25781,576.01562 a 23.554826,21.875446 0 0 0 -23.10351,17.76954 20.991564,21.875446 0 0 0 -0.0547,-0.002 20.991564,21.875446 0 0 0 -18.95117,12.49414 20.991564,21.875446 0 0 1 0.30468,0.21875 20.991564,21.875446 0 0 0 -11.79101,-3.83789 20.991564,21.875446 0 0 0 -20.99023,21.875 20.991564,21.875446 0 0 0 5.08398,14.25196 20.991564,21.875446 0 0 1 -0.53125,-1.04883 20.991564,21.875446 0 0 1 -0.62695,-1.5 20.991564,21.875446 0 0 1 -0.51954,-1.54297 20.991564,21.875446 0 0 1 -0.40624,-1.58008 20.991564,21.875446 0 0 1 -0.29102,-1.60742 20.991564,21.875446 0 0 1 -0.17578,-1.62695 20.991564,21.875446 0 0 1 -0.0586,-1.63477 20.991564,21.875446 0 0 1 0.0586,-1.63476 20.991564,21.875446 0 0 1 0.17578,-1.625 20.991564,21.875446 0 0 1 0.29102,-1.60743 20.991564,21.875446 0 0 1 0.40624,-1.58007 20.991564,21.875446 0 0 1 0.51954,-1.54297 20.991564,21.875446 0 0 1 0.62695,-1.5 20.991564,21.875446 0 0 1 0.73437,-1.44727 20.991564,21.875446 0 0 1 0.83399,-1.38476 20.991564,21.875446 0 0 1 0.93164,-1.31641 20.991564,21.875446 0 0 1 1.02539,-1.24024 20.991564,21.875446 0 0 1 1.10938,-1.15625 20.991564,21.875446 0 0 1 1.18945,-1.0664 20.991564,21.875446 0 0 1 1.26367,-0.97266 20.991564,21.875446 0 0 1 1.33008,-0.86914 20.991564,21.875446 0 0 1 1.38672,-0.76562 20.991564,21.875446 0 0 1 1.43945,-0.6543 20.991564,21.875446 0 0 1 1.48047,-0.53906 20.991564,21.875446 0 0 1 1.51758,-0.42383 20.991564,21.875446 0 0 1 1.54101,-0.30469 20.991564,21.875446 0 0 1 1.56055,-0.18164 20.991564,21.875446 0 0 1 1.56836,-0.0625 20.991564,21.875446 0 0 1 0.5332,0.008 20.991564,21.875446 0 0 1 0.53125,0.0234 20.991564,21.875446 0 0 1 0.5293,0.0332 20.991564,21.875446 0 0 1 0.53125,0.0488 20.991564,21.875446 0 0 1 0.52734,0.0625 20.991564,21.875446 0 0 1 0.52735,0.0762 20.991564,21.875446 0 0 1 0.52343,0.0918 20.991564,21.875446 0 0 1 0.52344,0.10352 20.991564,21.875446 0 0 1 0.51953,0.11914 20.991564,21.875446 0 0 1 0.51563,0.13281 20.991564,21.875446 0 0 1 0.51367,0.14453 20.991564,21.875446 0 0 1 0.50977,0.16016 20.991564,21.875446 0 0 1 0.50585,0.17187 20.991564,21.875446 0 0 1 0.5,0.18555 20.991564,21.875446 0 0 1 0.4961,0.19922 20.991564,21.875446 0 0 1 0.4707,0.20312 20.991564,21.875446 0 0 1 0.0215,0.01 20.991564,21.875446 0 0 1 0.48632,0.22461 20.991564,21.875446 0 0 1 0.48047,0.23828 20.991564,21.875446 0 0 1 0.47266,0.25 20.991564,21.875446 0 0 1 0.46875,0.26367 20.991564,21.875446 0 0 1 0.46289,0.27344 20.991564,21.875446 0 0 1 0.45312,0.28711 20.991564,21.875446 0 0 1 0.39454,0.26367 20.991564,21.875446 0 0 1 0.0273,-0.0644 20.991564,21.875446 0 0 1 0.53711,-1.07618 20.991564,21.875446 0 0 1 0.19726,-0.37109 20.991564,21.875446 0 0 1 0.83399,-1.38476 20.991564,21.875446 0 0 1 0.93164,-1.31641 20.991564,21.875446 0 0 1 1.02539,-1.24024 20.991564,21.875446 0 0 1 1.10938,-1.15625 20.991564,21.875446 0 0 1 1.18945,-1.0664 20.991564,21.875446 0 0 1 1.26367,-0.97266 20.991564,21.875446 0 0 1 1.33008,-0.86914 20.991564,21.875446 0 0 1 1.38672,-0.76562 20.991564,21.875446 0 0 1 1.43945,-0.6543 20.991564,21.875446 0 0 1 1.48047,-0.53906 20.991564,21.875446 0 0 1 1.51758,-0.42383 20.991564,21.875446 0 0 1 1.54101,-0.30469 20.991564,21.875446 0 0 1 0.26953,-0.0312 20.991564,21.875446 0 0 1 0.008,0 20.991564,21.875446 0 0 1 1.2832,-0.15039 20.991564,21.875446 0 0 1 0.67773,-0.041 20.991564,21.875446 0 0 1 0.89063,-0.0215 20.991564,21.875446 0 0 1 0.32812,0.004 20.991564,21.875446 0 0 1 0.20899,-1.08985 20.991564,21.875446 0 0 1 0.44726,-1.65234 20.991564,21.875446 0 0 1 0.20899,-0.5918 20.991564,21.875446 0 0 1 0.36133,-1.01953 20.991564,21.875446 0 0 1 0.68945,-1.56055 20.991564,21.875446 0 0 1 0.80664,-1.49804 20.991564,21.875446 0 0 1 0.91602,-1.42774 20.991564,21.875446 0 0 1 1.01953,-1.34961 20.991564,21.875446 0 0 1 1.11914,-1.26171 20.991564,21.875446 0 0 1 1.21093,-1.16602 20.991564,21.875446 0 0 1 1.29297,-1.0625 20.991564,21.875446 0 0 1 1.3711,-0.95508 20.991564,21.875446 0 0 1 1.4375,-0.83789 20.991564,21.875446 0 0 1 1.49804,-0.7207 20.991564,21.875446 0 0 1 1.54688,-0.59375 20.991564,21.875446 0 0 1 1.58594,-0.4668 20.991564,21.875446 0 0 1 1.61523,-0.33398 20.991564,21.875446 0 0 1 1.63672,-0.20313 20.991564,21.875446 0 0 1 1.64844,-0.0664 20.991564,21.875446 0 0 1 0.54883,0.008 20.991564,21.875446 0 0 1 0.54882,0.0215 20.991564,21.875446 0 0 1 0.54883,0.0371 20.991564,21.875446 0 0 1 0.54688,0.0527 20.991564,21.875446 0 0 1 0.54687,0.0684 20.991564,21.875446 0 0 1 0.54297,0.082 20.991564,21.875446 0 0 1 0.54102,0.0957 20.991564,21.875446 0 0 1 0.53906,0.11328 20.991564,21.875446 0 0 1 0.53711,0.125 20.991564,21.875446 0 0 1 0.53125,0.14063 20.991564,21.875446 0 0 1 0.5293,0.15625 20.991564,21.875446 0 0 1 0.52539,0.16992 20.991564,21.875446 0 0 1 0.51953,0.18359 20.991564,21.875446 0 0 1 0.51562,0.19922 20.991564,21.875446 0 0 1 0.51172,0.21094 20.991564,21.875446 0 0 1 0.50391,0.22656 20.991564,21.875446 0 0 1 0.5,0.24023 20.991564,21.875446 0 0 1 0.49218,0.25391 20.991564,21.875446 0 0 1 0.48633,0.26563 20.991564,21.875446 0 0 1 0.48047,0.27929 20.991564,21.875446 0 0 1 0.4707,0.29297 20.991564,21.875446 0 0 1 0.46485,0.30664 20.991564,21.875446 0 0 1 0.45703,0.31836 20.991564,21.875446 0 0 1 0.44922,0.33008 20.991564,21.875446 0 0 1 0.4414,0.3418 20.991564,21.875446 0 0 1 0.42969,0.35546 20.991564,21.875446 0 0 1 0.42383,0.36524 20.991564,21.875446 0 0 1 0.41211,0.37891 20.991564,21.875446 0 0 1 0.4043,0.38867 20.991564,21.875446 0 0 1 0.39453,0.39844 20.991564,21.875446 0 0 1 0.38281,0.41015 20.991564,21.875446 0 0 1 0.37305,0.42188 20.991564,21.875446 0 0 1 0.36133,0.42968 20.991564,21.875446 0 0 1 0.35156,0.43946 20.991564,21.875446 0 0 1 0.33984,0.45117 20.991564,21.875446 0 0 1 0.33008,0.45898 20.991564,21.875446 0 0 1 0.31641,0.4668 20.991564,21.875446 0 0 1 0.30664,0.47656 20.991564,21.875446 0 0 1 0.29297,0.48438 20.991564,21.875446 0 0 1 0.28124,0.49218 20.991564,21.875446 0 0 1 0.26758,0.5 20.991564,21.875446 0 0 1 0.25586,0.50586 20.991564,21.875446 0 0 1 0.24219,0.51368 20.991564,21.875446 0 0 1 0.23047,0.51953 20.991564,21.875446 0 0 1 0.2168,0.52734 20.991564,21.875446 0 0 1 0.20507,0.53125 20.991564,21.875446 0 0 1 0.18946,0.53711 20.991564,21.875446 0 0 1 0.17578,0.54297 20.991564,21.875446 0 0 1 0.16406,0.54687 20.991564,21.875446 0 0 1 0.14844,0.55079 20.991564,21.875446 0 0 1 0.13476,0.55468 20.991564,21.875446 0 0 1 0.12305,0.5586 20.991564,21.875446 0 0 1 0.10547,0.5625 20.991564,21.875446 0 0 1 0.0937,0.56445 20.991564,21.875446 0 0 1 0.0781,0.56641 20.991564,21.875446 0 0 1 0.0664,0.56836 20.991564,21.875446 0 0 1 0.0488,0.57031 20.991564,21.875446 0 0 1 0.0371,0.57226 20.991564,21.875446 0 0 1 0.0215,0.57227 20.991564,21.875446 0 0 1 0.006,0.57226 20.991564,21.875446 0 0 1 -0.0644,1.7168 20.991564,21.875446 0 0 1 -0.19336,1.70508 20.991564,21.875446 0 0 1 -0.32227,1.68555 20.991564,21.875446 0 0 1 -0.44726,1.65234 20.991564,21.875446 0 0 1 -0.57031,1.61133 20.991564,21.875446 0 0 1 -0.0469,0.10742 23.554826,21.875446 0 0 0 3.94336,-12.10156 23.554826,21.875446 0 0 0 -23.55469,-21.87696 z"
             transform="scale(0.26458333)" />
          <path
             id="path54040"
             style="opacity:1;fill:#ffffff;fill-opacity:1;stroke:none;stroke-width:7.32087;stroke-linecap:round;stroke-linejoin:round;stroke-miterlimit:4;stroke-dasharray:none;stroke-opacity:1;paint-order:stroke fill markers"
             d="m 384.72266,584.71875 a 11.610796,13.916603 10.305123 0 0 -6.44922,2.08594 11.610796,13.916603 10.305123 0 0 -5.98438,10.34961 11.610796,13.916603 10.305123 0 0 -0.004,0.0332 11.610796,13.916603 10.305123 0 0 -6.15235,-2.2168 11.610796,13.916603 10.305123 0 0 -6.28711,2.08789 v -0.002 a 11.610796,13.916603 10.305123 0 0 -5.16992,7.08398 11.675521,10.038816 77.491337 0 0 -0.0176,-0.01 11.675521,10.038816 77.491337 0 0 -4.27148,-0.78906 11.675521,10.038816 77.491337 0 0 -7.73828,5.45508 11.675521,10.038816 77.491337 0 0 -1.15235,6.47851 9.2591337,11.281148 5.1765205 0 1 0.004,-0.0606 9.2591337,11.281148 5.1765205 0 1 0.13672,-0.875 9.2591337,11.281148 5.1765205 0 1 0.1914,-0.85937 9.2591337,11.281148 5.1765205 0 1 0.2461,-0.84375 9.2591337,11.281148 5.1765205 0 1 0.29883,-0.81836 9.2591337,11.281148 5.1765205 0 1 0.35156,-0.79102 9.2591337,11.281148 5.1765205 0 1 0.12695,-0.25586 9.2591337,11.281148 5.1765205 0 1 0.13477,-0.25195 9.2591337,11.281148 5.1765205 0 1 0.13867,-0.24805 9.2591337,11.281148 5.1765205 0 1 0.14453,-0.24414 9.2591337,11.281148 5.1765205 0 1 0.14844,-0.23828 9.2591337,11.281148 5.1765205 0 1 0.1543,-0.23437 9.2591337,11.281148 5.1765205 0 1 0.1582,-0.22852 9.2591337,11.281148 5.1765205 0 1 0.16406,-0.22656 9.2591337,11.281148 5.1765205 0 1 0.16797,-0.2207 9.2591337,11.281148 5.1765205 0 1 0.17188,-0.21485 9.2591337,11.281148 5.1765205 0 1 0.17773,-0.20898 9.2591337,11.281148 5.1765205 0 1 0.18164,-0.20313 9.2591337,11.281148 5.1765205 0 1 0.18555,-0.19922 9.2591337,11.281148 5.1765205 0 1 0.18945,-0.19335 9.2591337,11.281148 5.1765205 0 1 0.19336,-0.18555 9.2591337,11.281148 5.1765205 0 1 0.19727,-0.18164 9.2591337,11.281148 5.1765205 0 1 0.20117,-0.17383 9.2591337,11.281148 5.1765205 0 1 0.20312,-0.16797 9.2591337,11.281148 5.1765205 0 1 0.20899,-0.16016 9.2591337,11.281148 5.1765205 0 1 0.20898,-0.15625 9.2591337,11.281148 5.1765205 0 1 0.21484,-0.14843 9.2591337,11.281148 5.1765205 0 1 0.2168,-0.14258 9.2591337,11.281148 5.1765205 0 1 0.2207,-0.13477 9.2591337,11.281148 5.1765205 0 1 0.22071,-0.1289 9.2591337,11.281148 5.1765205 0 1 0.22656,-0.1211 9.2591337,11.281148 5.1765205 0 1 0.22656,-0.11523 9.2591337,11.281148 5.1765205 0 1 0.22852,-0.10547 9.2591337,11.281148 5.1765205 0 1 0.23047,-0.0996 9.2591337,11.281148 5.1765205 0 1 0.23437,-0.0937 9.2591337,11.281148 5.1765205 0 1 0.23438,-0.084 9.2591337,11.281148 5.1765205 0 1 0.23633,-0.0781 9.2591337,11.281148 5.1765205 0 1 0.23828,-0.0703 9.2591337,11.281148 5.1765205 0 1 0.23828,-0.0625 9.2591337,11.281148 5.1765205 0 1 0.24023,-0.0547 9.2591337,11.281148 5.1765205 0 1 0.24024,-0.0488 9.2591337,11.281148 5.1765205 0 1 0.24218,-0.0371 9.2591337,11.281148 5.1765205 0 1 0.24219,-0.0312 9.2591337,11.281148 5.1765205 0 1 0.24414,-0.0273 9.2591337,11.281148 5.1765205 0 1 0.24219,-0.0137 9.2591337,11.281148 5.1765205 0 1 0.24219,-0.0117 9.2591337,11.281148 5.1765205 0 1 0.24414,-0.002 9.2591337,11.281148 5.1765205 0 1 0.24218,0.008 9.2591337,11.281148 5.1765205 0 1 0.24219,0.0117 9.2591337,11.281148 5.1765205 0 1 0.24219,0.0234 9.2591337,11.281148 5.1765205 0 1 0.24023,0.0293 9.2591337,11.281148 5.1765205 0 1 0.24024,0.0391 9.2591337,11.281148 5.1765205 0 1 0.23828,0.043 9.2591337,11.281148 5.1765205 0 1 0.23633,0.0527 9.2591337,11.281148 5.1765205 0 1 0.23633,0.0605 9.2591337,11.281148 5.1765205 0 1 0.23437,0.0664 9.2591337,11.281148 5.1765205 0 1 0.23242,0.0762 9.2591337,11.281148 5.1765205 0 1 0.23047,0.084 9.2591337,11.281148 5.1765205 0 1 0.23047,0.0879 9.2591337,11.281148 5.1765205 0 1 0.20898,0.0918 9.2591337,11.281148 5.1765205 0 1 0.0156,0.006 9.2591337,11.281148 5.1765205 0 1 0.22461,0.10547 9.2591337,11.281148 5.1765205 0 1 0.2207,0.11133 9.2591337,11.281148 5.1765205 0 1 0.21875,0.11719 9.2591337,11.281148 5.1765205 0 1 0.2168,0.12695 9.2591337,11.281148 5.1765205 0 1 0.21289,0.13281 9.2591337,11.281148 5.1765205 0 1 0.20898,0.13868 9.2591337,11.281148 5.1765205 0 1 0.53321,0.39843 13.460498,10.697912 85.565439 0 1 0.01,-0.0586 13.460498,10.697912 85.565439 0 1 0.10938,-0.50391 13.460498,10.697912 85.565439 0 1 0.11719,-0.46875 13.460498,10.697912 85.565439 0 1 0.008,-0.0293 13.460498,10.697912 85.565439 0 1 0.29687,-0.97266 13.460498,10.697912 85.565439 0 1 0.35938,-0.93945 13.460498,10.697912 85.565439 0 1 0.41601,-0.89649 13.460498,10.697912 85.565439 0 1 0.47461,-0.85351 13.460498,10.697912 85.565439 0 1 0.52539,-0.79883 13.460498,10.697912 85.565439 0 1 0.57618,-0.74219 13.460498,10.697912 85.565439 0 1 0.62304,-0.68164 13.460498,10.697912 85.565439 0 1 0.66407,-0.61719 13.460498,10.697912 85.565439 0 1 0.70507,-0.54687 13.460498,10.697912 85.565439 0 1 0.24219,-0.16797 13.460498,10.697912 85.565439 0 1 0.24414,-0.1582 13.460498,10.697912 85.565439 0 1 0.25,-0.14844 13.460498,10.697912 85.565439 0 1 0.25391,-0.14258 13.460498,10.697912 85.565439 0 1 0.25586,-0.13281 13.460498,10.697912 85.565439 0 1 0.25781,-0.125 13.460498,10.697912 85.565439 0 1 0.26172,-0.11719 13.460498,10.697912 85.565439 0 1 0.26367,-0.10547 13.460498,10.697912 85.565439 0 1 0.26758,-0.0996 13.460498,10.697912 85.565439 0 1 0.26758,-0.0898 13.460498,10.697912 85.565439 0 1 0.27148,-0.0801 13.460498,10.697912 85.565439 0 1 0.27149,-0.0723 13.460498,10.697912 85.565439 0 1 0.27343,-0.0625 13.460498,10.697912 85.565439 0 1 0.27735,-0.0527 13.460498,10.697912 85.565439 0 1 0.27734,-0.0449 13.460498,10.697912 85.565439 0 1 0.27734,-0.0352 13.460498,10.697912 85.565439 0 1 0.2793,-0.0254 13.460498,10.697912 85.565439 0 1 0.2793,-0.0156 13.460498,10.697912 85.565439 0 1 0.27929,-0.008 13.460498,10.697912 85.565439 0 1 0.28125,0.002 13.460498,10.697912 85.565439 0 1 0.28125,0.0137 13.460498,10.697912 85.565439 0 1 0.2793,0.0195 13.460498,10.697912 85.565439 0 1 0.28125,0.0312 13.460498,10.697912 85.565439 0 1 0.2793,0.0371 13.460498,10.697912 85.565439 0 1 0.28125,0.0469 13.460498,10.697912 85.565439 0 1 0.27734,0.0566 13.460498,10.697912 85.565439 0 1 0.27735,0.0644 13.460498,10.697912 85.565439 0 1 0.27539,0.0762 13.460498,10.697912 85.565439 0 1 0.27539,0.084 13.460498,10.697912 85.565439 0 1 0.27148,0.0918 13.460498,10.697912 85.565439 0 1 0.27149,0.10156 13.460498,10.697912 85.565439 0 1 0.26953,0.11133 13.460498,10.697912 85.565439 0 1 0.26758,0.11914 13.460498,10.697912 85.565439 0 1 0.26562,0.12696 13.460498,10.697912 85.565439 0 1 0.26172,0.13672 13.460498,10.697912 85.565439 0 1 0.25976,0.14453 13.460498,10.697912 85.565439 0 1 0.25586,0.15234 13.460498,10.697912 85.565439 0 1 0.25586,0.16211 13.460498,10.697912 85.565439 0 1 0.25,0.16992 13.460498,10.697912 85.565439 0 1 0.2461,0.17774 13.460498,10.697912 85.565439 0 1 0.24414,0.18554 13.460498,10.697912 85.565439 0 1 0.23828,0.19141 13.460498,10.697912 85.565439 0 1 0.0586,0.0508 13.460498,10.697912 85.565439 0 1 0.17774,0.15039 13.460498,10.697912 85.565439 0 1 0.23242,0.20703 13.460498,10.697912 85.565439 0 1 0.22851,0.2168 13.460498,10.697912 85.565439 0 1 0.22266,0.22265 13.460498,10.697912 85.565439 0 1 0.21875,0.22852 13.460498,10.697912 85.565439 0 1 0.21484,0.23828 13.460498,10.697912 85.565439 0 1 0.20899,0.24219 13.460498,10.697912 85.565439 0 1 0.20508,0.25 13.460498,10.697912 85.565439 0 1 0.19922,0.25781 13.460498,10.697912 85.565439 0 1 0.18359,0.24414 13.460498,10.697912 85.565439 0 1 -0.084,-0.95312 13.460498,10.697912 85.565439 0 1 -0.0254,-1.05664 13.460498,10.697912 85.565439 0 1 0.0293,-0.79492 13.460498,10.697912 85.565439 0 1 0,-0.0137 13.460498,10.697912 85.565439 0 1 0.01,-0.24218 13.460498,10.697912 85.565439 0 1 0.10547,-1.04297 13.460498,10.697912 85.565439 0 1 0.16992,-1.02539 13.460498,10.697912 85.565439 0 1 0.23633,-1.00391 13.460498,10.697912 85.565439 0 1 0.29687,-0.97266 13.460498,10.697912 85.565439 0 1 0.35938,-0.9375 13.460498,10.697912 85.565439 0 1 0.41601,-0.89843 13.460498,10.697912 85.565439 0 1 0.47266,-0.85157 13.460498,10.697912 85.565439 0 1 0.52734,-0.79882 13.460498,10.697912 85.565439 0 1 0.57617,-0.74415 13.460498,10.697912 85.565439 0 1 0.6211,-0.68164 13.460498,10.697912 85.565439 0 1 0.66601,-0.61718 13.460498,10.697912 85.565439 0 1 0.70313,-0.54688 13.460498,10.697912 85.565439 0 1 0.24219,-0.16601 13.460498,10.697912 85.565439 0 1 0.24609,-0.15821 13.460498,10.697912 85.565439 0 1 0.25,-0.15039 13.460498,10.697912 85.565439 0 1 0.25195,-0.14258 13.460498,10.697912 85.565439 0 1 0.25781,-0.13281 13.460498,10.697912 85.565439 0 1 0.25782,-0.12304 13.460498,10.697912 85.565439 0 1 0.25976,-0.11719 13.460498,10.697912 85.565439 0 1 0.26563,-0.10742 13.460498,10.697912 85.565439 0 1 0.26562,-0.0996 13.460498,10.697912 85.565439 0 1 0.26953,-0.0879 13.460498,10.697912 85.565439 0 1 0.26953,-0.082 13.460498,10.697912 85.565439 0 1 0.27344,-0.0703 13.460498,10.697912 85.565439 0 1 0.27344,-0.0625 13.460498,10.697912 85.565439 0 1 0.27539,-0.0527 13.460498,10.697912 85.565439 0 1 0.27734,-0.0469 13.460498,10.697912 85.565439 0 1 0.27735,-0.0332 13.460498,10.697912 85.565439 0 1 0.2793,-0.0273 13.460498,10.697912 85.565439 0 1 0.28124,-0.0156 13.460498,10.697912 85.565439 0 1 0.2793,-0.006 13.460498,10.697912 85.565439 0 1 0.28125,0 13.460498,10.697912 85.565439 0 1 0.2793,0.0156 13.460498,10.697912 85.565439 0 1 0.28125,0.0195 13.460498,10.697912 85.565439 0 1 0.28125,0.0293 13.460498,10.697912 85.565439 0 1 0.2793,0.0371 13.460498,10.697912 85.565439 0 1 0.27929,0.0469 13.460498,10.697912 85.565439 0 1 0.27735,0.0586 13.460498,10.697912 85.565439 0 1 0.27734,0.0645 13.460498,10.697912 85.565439 0 1 0.27539,0.0762 13.460498,10.697912 85.565439 0 1 0.27539,0.082 13.460498,10.697912 85.565439 0 1 0.27344,0.0937 13.460498,10.697912 85.565439 0 1 0.27148,0.10156 13.460498,10.697912 85.565439 0 1 0.26953,0.10938 13.460498,10.697912 85.565439 0 1 0.26758,0.11914 13.460498,10.697912 85.565439 0 1 0.26367,0.12695 13.460498,10.697912 85.565439 0 1 0.26368,0.13867 13.460498,10.697912 85.565439 0 1 0.25976,0.14453 13.460498,10.697912 85.565439 0 1 0.25586,0.15235 13.460498,10.697912 85.565439 0 1 0.25391,0.16015 13.460498,10.697912 85.565439 0 1 0.25,0.16993 13.460498,10.697912 85.565439 0 1 0.24804,0.17773 13.460498,10.697912 85.565439 0 1 0.24219,0.18555 13.460498,10.697912 85.565439 0 1 0.24024,0.19336 13.460498,10.697912 85.565439 0 1 0.23632,0.20117 13.460498,10.697912 85.565439 0 1 0.23047,0.20703 13.460498,10.697912 85.565439 0 1 0.22852,0.21484 13.460498,10.697912 85.565439 0 1 0.22461,0.22266 13.460498,10.697912 85.565439 0 1 0.21875,0.23047 13.460498,10.697912 85.565439 0 1 0.21289,0.23633 13.460498,10.697912 85.565439 0 1 0.21094,0.24414 13.460498,10.697912 85.565439 0 1 0.20312,0.25 13.460498,10.697912 85.565439 0 1 0.19922,0.25586 13.460498,10.697912 85.565439 0 1 0.19531,0.26171 13.460498,10.697912 85.565439 0 1 0.18946,0.26954 13.460498,10.697912 85.565439 0 1 0.18359,0.27539 13.460498,10.697912 85.565439 0 1 0.17578,0.27929 13.460498,10.697912 85.565439 0 1 0.17383,0.28516 13.460498,10.697912 85.565439 0 1 0.16601,0.29101 13.460498,10.697912 85.565439 0 1 0.16016,0.29688 13.460498,10.697912 85.565439 0 1 0.1543,0.30078 13.460498,10.697912 85.565439 0 1 0.14843,0.30469 13.460498,10.697912 85.565439 0 1 0.4043,0.94336 13.460498,10.697912 85.565439 0 1 0.3457,0.97656 13.460498,10.697912 85.565439 0 1 0.28516,1.00586 13.460498,10.697912 85.565439 0 1 0.22266,1.02734 13.460498,10.697912 85.565439 0 1 0.15625,1.04297 13.460498,10.697912 85.565439 0 1 0.004,0.0723 11.610796,13.916603 10.305123 0 0 -1.33007,-7.73047 11.610796,13.916603 10.305123 0 0 -9.38086,-6.53711 z"
             transform="scale(0.26458333)" />
        </g>
        <g
           id="g61572"
           transform="matrix(-1,0,0,1,-0.35361193,-0.061612)">
          <path
             id="path61560"
             style="opacity:1;fill:#ffffff;fill-opacity:0.670487;stroke:none;stroke-width:7.55906;stroke-linecap:round;stroke-linejoin:round;stroke-miterlimit:4;stroke-dasharray:none;stroke-opacity:1;paint-order:stroke fill markers"
             d="m 300.40234,585.73438 a 25.484834,19.361363 60 0 0 -8.11718,2.02734 25.484834,19.361363 60 0 0 -8.19922,14.12109 25.558671,21.512634 65.329383 0 0 -18.33203,-2.52148 25.558671,21.512634 65.329383 0 0 -12.82032,18.04883 25.484834,25.484834 0 0 0 -2.04492,-0.084 25.484834,25.484834 0 0 0 -25.48437,25.48633 25.484834,25.484834 0 0 0 9.4082,19.61523 25.484834,25.214821 0 0 1 -6.60938,-16.89648 25.484834,25.214821 0 0 1 25.48438,-25.21484 25.484834,25.214821 0 0 1 2.04492,0.082 25.337371,21.47061 63.917388 0 1 12.82031,-17.85742 25.337371,21.47061 63.917388 0 1 18.33204,2.49414 25.2841,19.308312 58.995419 0 1 8.19921,-13.97071 25.2841,19.308312 58.995419 0 1 8.11719,-2.00586 25.2841,19.308312 58.995419 0 1 16.22266,7.59571 25.484834,19.361363 60 0 0 -19.02149,-10.91992 z"
             transform="scale(0.26458333)" />
          <path
             id="path61562"
             style="opacity:1;fill:#ffffff;fill-opacity:0.670487;stroke:none;stroke-width:1.41292;stroke-linecap:round;stroke-linejoin:round;stroke-miterlimit:4;stroke-dasharray:none;stroke-opacity:1;paint-order:stroke fill markers"
             d="m 84.553624,165.85363 a 4.7851002,3.6027119 61.544966 0 0 -1.504234,0.38221 4.7851002,3.6027119 61.544966 0 0 -1.519438,2.66232 4.8053939,3.9976586 67.386329 0 0 -3.397199,-0.47538 4.8053939,3.9976586 67.386329 0 0 -2.375798,3.40283 4.7227211,4.8047872 0 0 0 -0.378954,-0.0157 4.7227211,4.8047872 0 0 0 -4.722635,4.80507 4.7227211,4.8047872 0 0 0 1.74348,3.69816 4.7227211,4.7538803 0 0 1 -1.224817,-3.18559 4.7227211,4.7538803 0 0 1 4.722637,-4.75388 4.7227211,4.7538803 0 0 1 0.378954,0.0156 4.7623638,3.9910412 66.146412 0 1 2.375796,-3.36676 4.7623638,3.9910412 66.146412 0 1 3.3972,0.47023 4.7462131,3.5937463 60.601372 0 1 1.519437,-2.63395 4.7462131,3.5937463 60.601372 0 1 1.504237,-0.37818 4.7462131,3.5937463 60.601372 0 1 3.006301,1.43206 4.7851002,3.6027119 61.544966 0 0 -3.524967,-2.0588 z" />
          <path
             id="path61564"
             style="opacity:1;fill:#ffffff;fill-opacity:1;stroke:none;stroke-width:7.55906;stroke-linecap:round;stroke-linejoin:round;stroke-miterlimit:4;stroke-dasharray:none;stroke-opacity:1;paint-order:stroke fill markers"
             d="m 365.63281,619.80078 a 13.917688,12.123853 0 0 0 -13.91797,12.125 13.917688,12.123853 0 0 0 0.0547,0.94922 11.752715,11.752715 0 0 0 -2.15625,-0.20703 11.752715,11.752715 0 0 0 -11.56055,9.66797 11.752715,11.752715 0 0 1 0.28516,0.0898 11.752715,11.752715 0 0 1 1.39453,0.65039 11.752715,11.752715 0 0 1 0.82422,0.52539 11.752715,11.752715 0 0 1 11.2207,-8.27539 11.752715,11.752715 0 0 1 0.51954,0.0195 13.917688,12.123853 0 0 0 0.004,0.0137 11.752715,11.752715 0 0 1 0.92578,0.0566 11.752715,11.752715 0 0 1 0.20117,0.0371 13.917688,12.123853 0 0 1 -0.043,-0.80664 13.917688,12.123853 0 0 1 0.084,-1.30273 13.917688,12.123853 0 0 1 13.83398,-10.82031 13.917688,12.123853 0 0 1 9.28711,3.10156 13.917688,12.123853 0 0 1 0.6543,0.56445 11.752715,11.752715 0 0 1 0.46094,-0.25586 11.752715,11.752715 0 0 1 5,-1.12304 11.752715,11.752715 0 0 1 11.74609,11.36718 11.752715,11.752715 0 0 0 0.11914,-0.4707 11.752715,11.752715 0 0 0 -3.23828,-10.86523 11.752715,11.752715 0 0 0 -7.45117,-2.68946 11.752715,11.752715 0 0 0 -7.16602,2.47461 11.752715,11.752715 0 0 0 -0.002,0.002 13.917688,12.123853 0 0 0 -11.08008,-4.82813 z"
             transform="scale(0.26458333)" />
          <path
             id="path61566"
             style="opacity:1;fill:#ffffff;fill-opacity:1;stroke:none;stroke-width:2;stroke-linecap:round;stroke-linejoin:round;stroke-miterlimit:4;stroke-dasharray:none;stroke-opacity:1;paint-order:stroke fill markers"
             d="m 97.170294,159.98713 a 3.6823882,3.2077694 0 0 0 -3.682463,3.20807 3.6823882,3.2077694 0 0 0 0.01447,0.25115 3.1095725,3.1095725 0 0 0 -0.570508,-0.0548 3.1095725,3.1095725 0 0 0 -3.058729,2.55798 3.1095725,3.1095725 0 0 1 0.07545,0.0238 3.1095725,3.1095725 0 0 1 0.368969,0.17208 3.1095725,3.1095725 0 0 1 0.218075,0.13901 3.1095725,3.1095725 0 0 1 2.96881,-2.18953 3.1095725,3.1095725 0 0 1 0.137462,0.005 3.6823882,3.2077694 0 0 0 0.001,0.004 3.1095725,3.1095725 0 0 1 0.244946,0.015 3.1095725,3.1095725 0 0 1 0.05323,0.01 3.6823882,3.2077694 0 0 1 -0.01137,-0.21342 3.6823882,3.2077694 0 0 1 0.02222,-0.34468 3.6823882,3.2077694 0 0 1 3.66024,-2.86288 3.6823882,3.2077694 0 0 1 2.457214,0.82062 3.6823882,3.2077694 0 0 1 0.17312,0.14935 3.1095725,3.1095725 0 0 1 0.12196,-0.0677 3.1095725,3.1095725 0 0 1 1.32291,-0.29714 3.1095725,3.1095725 0 0 1 3.10782,3.00757 3.1095725,3.1095725 0 0 0 0.0315,-0.12454 3.1095725,3.1095725 0 0 0 -0.85679,-2.87476 3.1095725,3.1095725 0 0 0 -1.97146,-0.71159 3.1095725,3.1095725 0 0 0 -1.89601,0.65475 3.1095725,3.1095725 0 0 0 -5.1e-4,5.1e-4 3.6823882,3.2077694 0 0 0 -2.931607,-1.27744 z" />
          <path
             id="path61568"
             style="opacity:1;fill:#ffffff;fill-opacity:1;stroke:none;stroke-width:13.0733;stroke-linecap:round;stroke-linejoin:round;stroke-miterlimit:4;stroke-dasharray:none;stroke-opacity:1;paint-order:stroke fill markers"
             d="m 369.25781,576.01562 a 23.554826,21.875446 0 0 0 -23.10351,17.76954 20.991564,21.875446 0 0 0 -0.0547,-0.002 20.991564,21.875446 0 0 0 -18.95117,12.49414 20.991564,21.875446 0 0 1 0.30468,0.21875 20.991564,21.875446 0 0 0 -11.79101,-3.83789 20.991564,21.875446 0 0 0 -20.99023,21.875 20.991564,21.875446 0 0 0 5.08398,14.25196 20.991564,21.875446 0 0 1 -0.53125,-1.04883 20.991564,21.875446 0 0 1 -0.62695,-1.5 20.991564,21.875446 0 0 1 -0.51954,-1.54297 20.991564,21.875446 0 0 1 -0.40624,-1.58008 20.991564,21.875446 0 0 1 -0.29102,-1.60742 20.991564,21.875446 0 0 1 -0.17578,-1.62695 20.991564,21.875446 0 0 1 -0.0586,-1.63477 20.991564,21.875446 0 0 1 0.0586,-1.63476 20.991564,21.875446 0 0 1 0.17578,-1.625 20.991564,21.875446 0 0 1 0.29102,-1.60743 20.991564,21.875446 0 0 1 0.40624,-1.58007 20.991564,21.875446 0 0 1 0.51954,-1.54297 20.991564,21.875446 0 0 1 0.62695,-1.5 20.991564,21.875446 0 0 1 0.73437,-1.44727 20.991564,21.875446 0 0 1 0.83399,-1.38476 20.991564,21.875446 0 0 1 0.93164,-1.31641 20.991564,21.875446 0 0 1 1.02539,-1.24024 20.991564,21.875446 0 0 1 1.10938,-1.15625 20.991564,21.875446 0 0 1 1.18945,-1.0664 20.991564,21.875446 0 0 1 1.26367,-0.97266 20.991564,21.875446 0 0 1 1.33008,-0.86914 20.991564,21.875446 0 0 1 1.38672,-0.76562 20.991564,21.875446 0 0 1 1.43945,-0.6543 20.991564,21.875446 0 0 1 1.48047,-0.53906 20.991564,21.875446 0 0 1 1.51758,-0.42383 20.991564,21.875446 0 0 1 1.54101,-0.30469 20.991564,21.875446 0 0 1 1.56055,-0.18164 20.991564,21.875446 0 0 1 1.56836,-0.0625 20.991564,21.875446 0 0 1 0.5332,0.008 20.991564,21.875446 0 0 1 0.53125,0.0234 20.991564,21.875446 0 0 1 0.5293,0.0332 20.991564,21.875446 0 0 1 0.53125,0.0488 20.991564,21.875446 0 0 1 0.52734,0.0625 20.991564,21.875446 0 0 1 0.52735,0.0762 20.991564,21.875446 0 0 1 0.52343,0.0918 20.991564,21.875446 0 0 1 0.52344,0.10352 20.991564,21.875446 0 0 1 0.51953,0.11914 20.991564,21.875446 0 0 1 0.51563,0.13281 20.991564,21.875446 0 0 1 0.51367,0.14453 20.991564,21.875446 0 0 1 0.50977,0.16016 20.991564,21.875446 0 0 1 0.50585,0.17187 20.991564,21.875446 0 0 1 0.5,0.18555 20.991564,21.875446 0 0 1 0.4961,0.19922 20.991564,21.875446 0 0 1 0.4707,0.20312 20.991564,21.875446 0 0 1 0.0215,0.01 20.991564,21.875446 0 0 1 0.48632,0.22461 20.991564,21.875446 0 0 1 0.48047,0.23828 20.991564,21.875446 0 0 1 0.47266,0.25 20.991564,21.875446 0 0 1 0.46875,0.26367 20.991564,21.875446 0 0 1 0.46289,0.27344 20.991564,21.875446 0 0 1 0.45312,0.28711 20.991564,21.875446 0 0 1 0.39454,0.26367 20.991564,21.875446 0 0 1 0.0273,-0.0644 20.991564,21.875446 0 0 1 0.53711,-1.07618 20.991564,21.875446 0 0 1 0.19726,-0.37109 20.991564,21.875446 0 0 1 0.83399,-1.38476 20.991564,21.875446 0 0 1 0.93164,-1.31641 20.991564,21.875446 0 0 1 1.02539,-1.24024 20.991564,21.875446 0 0 1 1.10938,-1.15625 20.991564,21.875446 0 0 1 1.18945,-1.0664 20.991564,21.875446 0 0 1 1.26367,-0.97266 20.991564,21.875446 0 0 1 1.33008,-0.86914 20.991564,21.875446 0 0 1 1.38672,-0.76562 20.991564,21.875446 0 0 1 1.43945,-0.6543 20.991564,21.875446 0 0 1 1.48047,-0.53906 20.991564,21.875446 0 0 1 1.51758,-0.42383 20.991564,21.875446 0 0 1 1.54101,-0.30469 20.991564,21.875446 0 0 1 0.26953,-0.0312 20.991564,21.875446 0 0 1 0.008,0 20.991564,21.875446 0 0 1 1.2832,-0.15039 20.991564,21.875446 0 0 1 0.67773,-0.041 20.991564,21.875446 0 0 1 0.89063,-0.0215 20.991564,21.875446 0 0 1 0.32812,0.004 20.991564,21.875446 0 0 1 0.20899,-1.08985 20.991564,21.875446 0 0 1 0.44726,-1.65234 20.991564,21.875446 0 0 1 0.20899,-0.5918 20.991564,21.875446 0 0 1 0.36133,-1.01953 20.991564,21.875446 0 0 1 0.68945,-1.56055 20.991564,21.875446 0 0 1 0.80664,-1.49804 20.991564,21.875446 0 0 1 0.91602,-1.42774 20.991564,21.875446 0 0 1 1.01953,-1.34961 20.991564,21.875446 0 0 1 1.11914,-1.26171 20.991564,21.875446 0 0 1 1.21093,-1.16602 20.991564,21.875446 0 0 1 1.29297,-1.0625 20.991564,21.875446 0 0 1 1.3711,-0.95508 20.991564,21.875446 0 0 1 1.4375,-0.83789 20.991564,21.875446 0 0 1 1.49804,-0.7207 20.991564,21.875446 0 0 1 1.54688,-0.59375 20.991564,21.875446 0 0 1 1.58594,-0.4668 20.991564,21.875446 0 0 1 1.61523,-0.33398 20.991564,21.875446 0 0 1 1.63672,-0.20313 20.991564,21.875446 0 0 1 1.64844,-0.0664 20.991564,21.875446 0 0 1 0.54883,0.008 20.991564,21.875446 0 0 1 0.54882,0.0215 20.991564,21.875446 0 0 1 0.54883,0.0371 20.991564,21.875446 0 0 1 0.54688,0.0527 20.991564,21.875446 0 0 1 0.54687,0.0684 20.991564,21.875446 0 0 1 0.54297,0.082 20.991564,21.875446 0 0 1 0.54102,0.0957 20.991564,21.875446 0 0 1 0.53906,0.11328 20.991564,21.875446 0 0 1 0.53711,0.125 20.991564,21.875446 0 0 1 0.53125,0.14063 20.991564,21.875446 0 0 1 0.5293,0.15625 20.991564,21.875446 0 0 1 0.52539,0.16992 20.991564,21.875446 0 0 1 0.51953,0.18359 20.991564,21.875446 0 0 1 0.51562,0.19922 20.991564,21.875446 0 0 1 0.51172,0.21094 20.991564,21.875446 0 0 1 0.50391,0.22656 20.991564,21.875446 0 0 1 0.5,0.24023 20.991564,21.875446 0 0 1 0.49218,0.25391 20.991564,21.875446 0 0 1 0.48633,0.26563 20.991564,21.875446 0 0 1 0.48047,0.27929 20.991564,21.875446 0 0 1 0.4707,0.29297 20.991564,21.875446 0 0 1 0.46485,0.30664 20.991564,21.875446 0 0 1 0.45703,0.31836 20.991564,21.875446 0 0 1 0.44922,0.33008 20.991564,21.875446 0 0 1 0.4414,0.3418 20.991564,21.875446 0 0 1 0.42969,0.35546 20.991564,21.875446 0 0 1 0.42383,0.36524 20.991564,21.875446 0 0 1 0.41211,0.37891 20.991564,21.875446 0 0 1 0.4043,0.38867 20.991564,21.875446 0 0 1 0.39453,0.39844 20.991564,21.875446 0 0 1 0.38281,0.41015 20.991564,21.875446 0 0 1 0.37305,0.42188 20.991564,21.875446 0 0 1 0.36133,0.42968 20.991564,21.875446 0 0 1 0.35156,0.43946 20.991564,21.875446 0 0 1 0.33984,0.45117 20.991564,21.875446 0 0 1 0.33008,0.45898 20.991564,21.875446 0 0 1 0.31641,0.4668 20.991564,21.875446 0 0 1 0.30664,0.47656 20.991564,21.875446 0 0 1 0.29297,0.48438 20.991564,21.875446 0 0 1 0.28124,0.49218 20.991564,21.875446 0 0 1 0.26758,0.5 20.991564,21.875446 0 0 1 0.25586,0.50586 20.991564,21.875446 0 0 1 0.24219,0.51368 20.991564,21.875446 0 0 1 0.23047,0.51953 20.991564,21.875446 0 0 1 0.2168,0.52734 20.991564,21.875446 0 0 1 0.20507,0.53125 20.991564,21.875446 0 0 1 0.18946,0.53711 20.991564,21.875446 0 0 1 0.17578,0.54297 20.991564,21.875446 0 0 1 0.16406,0.54687 20.991564,21.875446 0 0 1 0.14844,0.55079 20.991564,21.875446 0 0 1 0.13476,0.55468 20.991564,21.875446 0 0 1 0.12305,0.5586 20.991564,21.875446 0 0 1 0.10547,0.5625 20.991564,21.875446 0 0 1 0.0937,0.56445 20.991564,21.875446 0 0 1 0.0781,0.56641 20.991564,21.875446 0 0 1 0.0664,0.56836 20.991564,21.875446 0 0 1 0.0488,0.57031 20.991564,21.875446 0 0 1 0.0371,0.57226 20.991564,21.875446 0 0 1 0.0215,0.57227 20.991564,21.875446 0 0 1 0.006,0.57226 20.991564,21.875446 0 0 1 -0.0644,1.7168 20.991564,21.875446 0 0 1 -0.19336,1.70508 20.991564,21.875446 0 0 1 -0.32227,1.68555 20.991564,21.875446 0 0 1 -0.44726,1.65234 20.991564,21.875446 0 0 1 -0.57031,1.61133 20.991564,21.875446 0 0 1 -0.0469,0.10742 23.554826,21.875446 0 0 0 3.94336,-12.10156 23.554826,21.875446 0 0 0 -23.55469,-21.87696 z"
             transform="scale(0.26458333)" />
          <path
             id="path61570"
             style="opacity:1;fill:#ffffff;fill-opacity:1;stroke:none;stroke-width:7.32087;stroke-linecap:round;stroke-linejoin:round;stroke-miterlimit:4;stroke-dasharray:none;stroke-opacity:1;paint-order:stroke fill markers"
             d="m 384.72266,584.71875 a 11.610796,13.916603 10.305123 0 0 -6.44922,2.08594 11.610796,13.916603 10.305123 0 0 -5.98438,10.34961 11.610796,13.916603 10.305123 0 0 -0.004,0.0332 11.610796,13.916603 10.305123 0 0 -6.15235,-2.2168 11.610796,13.916603 10.305123 0 0 -6.28711,2.08789 v -0.002 a 11.610796,13.916603 10.305123 0 0 -5.16992,7.08398 11.675521,10.038816 77.491337 0 0 -0.0176,-0.01 11.675521,10.038816 77.491337 0 0 -4.27148,-0.78906 11.675521,10.038816 77.491337 0 0 -7.73828,5.45508 11.675521,10.038816 77.491337 0 0 -1.15235,6.47851 9.2591337,11.281148 5.1765205 0 1 0.004,-0.0606 9.2591337,11.281148 5.1765205 0 1 0.13672,-0.875 9.2591337,11.281148 5.1765205 0 1 0.1914,-0.85937 9.2591337,11.281148 5.1765205 0 1 0.2461,-0.84375 9.2591337,11.281148 5.1765205 0 1 0.29883,-0.81836 9.2591337,11.281148 5.1765205 0 1 0.35156,-0.79102 9.2591337,11.281148 5.1765205 0 1 0.12695,-0.25586 9.2591337,11.281148 5.1765205 0 1 0.13477,-0.25195 9.2591337,11.281148 5.1765205 0 1 0.13867,-0.24805 9.2591337,11.281148 5.1765205 0 1 0.14453,-0.24414 9.2591337,11.281148 5.1765205 0 1 0.14844,-0.23828 9.2591337,11.281148 5.1765205 0 1 0.1543,-0.23437 9.2591337,11.281148 5.1765205 0 1 0.1582,-0.22852 9.2591337,11.281148 5.1765205 0 1 0.16406,-0.22656 9.2591337,11.281148 5.1765205 0 1 0.16797,-0.2207 9.2591337,11.281148 5.1765205 0 1 0.17188,-0.21485 9.2591337,11.281148 5.1765205 0 1 0.17773,-0.20898 9.2591337,11.281148 5.1765205 0 1 0.18164,-0.20313 9.2591337,11.281148 5.1765205 0 1 0.18555,-0.19922 9.2591337,11.281148 5.1765205 0 1 0.18945,-0.19335 9.2591337,11.281148 5.1765205 0 1 0.19336,-0.18555 9.2591337,11.281148 5.1765205 0 1 0.19727,-0.18164 9.2591337,11.281148 5.1765205 0 1 0.20117,-0.17383 9.2591337,11.281148 5.1765205 0 1 0.20312,-0.16797 9.2591337,11.281148 5.1765205 0 1 0.20899,-0.16016 9.2591337,11.281148 5.1765205 0 1 0.20898,-0.15625 9.2591337,11.281148 5.1765205 0 1 0.21484,-0.14843 9.2591337,11.281148 5.1765205 0 1 0.2168,-0.14258 9.2591337,11.281148 5.1765205 0 1 0.2207,-0.13477 9.2591337,11.281148 5.1765205 0 1 0.22071,-0.1289 9.2591337,11.281148 5.1765205 0 1 0.22656,-0.1211 9.2591337,11.281148 5.1765205 0 1 0.22656,-0.11523 9.2591337,11.281148 5.1765205 0 1 0.22852,-0.10547 9.2591337,11.281148 5.1765205 0 1 0.23047,-0.0996 9.2591337,11.281148 5.1765205 0 1 0.23437,-0.0937 9.2591337,11.281148 5.1765205 0 1 0.23438,-0.084 9.2591337,11.281148 5.1765205 0 1 0.23633,-0.0781 9.2591337,11.281148 5.1765205 0 1 0.23828,-0.0703 9.2591337,11.281148 5.1765205 0 1 0.23828,-0.0625 9.2591337,11.281148 5.1765205 0 1 0.24023,-0.0547 9.2591337,11.281148 5.1765205 0 1 0.24024,-0.0488 9.2591337,11.281148 5.1765205 0 1 0.24218,-0.0371 9.2591337,11.281148 5.1765205 0 1 0.24219,-0.0312 9.2591337,11.281148 5.1765205 0 1 0.24414,-0.0273 9.2591337,11.281148 5.1765205 0 1 0.24219,-0.0137 9.2591337,11.281148 5.1765205 0 1 0.24219,-0.0117 9.2591337,11.281148 5.1765205 0 1 0.24414,-0.002 9.2591337,11.281148 5.1765205 0 1 0.24218,0.008 9.2591337,11.281148 5.1765205 0 1 0.24219,0.0117 9.2591337,11.281148 5.1765205 0 1 0.24219,0.0234 9.2591337,11.281148 5.1765205 0 1 0.24023,0.0293 9.2591337,11.281148 5.1765205 0 1 0.24024,0.0391 9.2591337,11.281148 5.1765205 0 1 0.23828,0.043 9.2591337,11.281148 5.1765205 0 1 0.23633,0.0527 9.2591337,11.281148 5.1765205 0 1 0.23633,0.0605 9.2591337,11.281148 5.1765205 0 1 0.23437,0.0664 9.2591337,11.281148 5.1765205 0 1 0.23242,0.0762 9.2591337,11.281148 5.1765205 0 1 0.23047,0.084 9.2591337,11.281148 5.1765205 0 1 0.23047,0.0879 9.2591337,11.281148 5.1765205 0 1 0.20898,0.0918 9.2591337,11.281148 5.1765205 0 1 0.0156,0.006 9.2591337,11.281148 5.1765205 0 1 0.22461,0.10547 9.2591337,11.281148 5.1765205 0 1 0.2207,0.11133 9.2591337,11.281148 5.1765205 0 1 0.21875,0.11719 9.2591337,11.281148 5.1765205 0 1 0.2168,0.12695 9.2591337,11.281148 5.1765205 0 1 0.21289,0.13281 9.2591337,11.281148 5.1765205 0 1 0.20898,0.13868 9.2591337,11.281148 5.1765205 0 1 0.53321,0.39843 13.460498,10.697912 85.565439 0 1 0.01,-0.0586 13.460498,10.697912 85.565439 0 1 0.10938,-0.50391 13.460498,10.697912 85.565439 0 1 0.11719,-0.46875 13.460498,10.697912 85.565439 0 1 0.008,-0.0293 13.460498,10.697912 85.565439 0 1 0.29687,-0.97266 13.460498,10.697912 85.565439 0 1 0.35938,-0.93945 13.460498,10.697912 85.565439 0 1 0.41601,-0.89649 13.460498,10.697912 85.565439 0 1 0.47461,-0.85351 13.460498,10.697912 85.565439 0 1 0.52539,-0.79883 13.460498,10.697912 85.565439 0 1 0.57618,-0.74219 13.460498,10.697912 85.565439 0 1 0.62304,-0.68164 13.460498,10.697912 85.565439 0 1 0.66407,-0.61719 13.460498,10.697912 85.565439 0 1 0.70507,-0.54687 13.460498,10.697912 85.565439 0 1 0.24219,-0.16797 13.460498,10.697912 85.565439 0 1 0.24414,-0.1582 13.460498,10.697912 85.565439 0 1 0.25,-0.14844 13.460498,10.697912 85.565439 0 1 0.25391,-0.14258 13.460498,10.697912 85.565439 0 1 0.25586,-0.13281 13.460498,10.697912 85.565439 0 1 0.25781,-0.125 13.460498,10.697912 85.565439 0 1 0.26172,-0.11719 13.460498,10.697912 85.565439 0 1 0.26367,-0.10547 13.460498,10.697912 85.565439 0 1 0.26758,-0.0996 13.460498,10.697912 85.565439 0 1 0.26758,-0.0898 13.460498,10.697912 85.565439 0 1 0.27148,-0.0801 13.460498,10.697912 85.565439 0 1 0.27149,-0.0723 13.460498,10.697912 85.565439 0 1 0.27343,-0.0625 13.460498,10.697912 85.565439 0 1 0.27735,-0.0527 13.460498,10.697912 85.565439 0 1 0.27734,-0.0449 13.460498,10.697912 85.565439 0 1 0.27734,-0.0352 13.460498,10.697912 85.565439 0 1 0.2793,-0.0254 13.460498,10.697912 85.565439 0 1 0.2793,-0.0156 13.460498,10.697912 85.565439 0 1 0.27929,-0.008 13.460498,10.697912 85.565439 0 1 0.28125,0.002 13.460498,10.697912 85.565439 0 1 0.28125,0.0137 13.460498,10.697912 85.565439 0 1 0.2793,0.0195 13.460498,10.697912 85.565439 0 1 0.28125,0.0312 13.460498,10.697912 85.565439 0 1 0.2793,0.0371 13.460498,10.697912 85.565439 0 1 0.28125,0.0469 13.460498,10.697912 85.565439 0 1 0.27734,0.0566 13.460498,10.697912 85.565439 0 1 0.27735,0.0644 13.460498,10.697912 85.565439 0 1 0.27539,0.0762 13.460498,10.697912 85.565439 0 1 0.27539,0.084 13.460498,10.697912 85.565439 0 1 0.27148,0.0918 13.460498,10.697912 85.565439 0 1 0.27149,0.10156 13.460498,10.697912 85.565439 0 1 0.26953,0.11133 13.460498,10.697912 85.565439 0 1 0.26758,0.11914 13.460498,10.697912 85.565439 0 1 0.26562,0.12696 13.460498,10.697912 85.565439 0 1 0.26172,0.13672 13.460498,10.697912 85.565439 0 1 0.25976,0.14453 13.460498,10.697912 85.565439 0 1 0.25586,0.15234 13.460498,10.697912 85.565439 0 1 0.25586,0.16211 13.460498,10.697912 85.565439 0 1 0.25,0.16992 13.460498,10.697912 85.565439 0 1 0.2461,0.17774 13.460498,10.697912 85.565439 0 1 0.24414,0.18554 13.460498,10.697912 85.565439 0 1 0.23828,0.19141 13.460498,10.697912 85.565439 0 1 0.0586,0.0508 13.460498,10.697912 85.565439 0 1 0.17774,0.15039 13.460498,10.697912 85.565439 0 1 0.23242,0.20703 13.460498,10.697912 85.565439 0 1 0.22851,0.2168 13.460498,10.697912 85.565439 0 1 0.22266,0.22265 13.460498,10.697912 85.565439 0 1 0.21875,0.22852 13.460498,10.697912 85.565439 0 1 0.21484,0.23828 13.460498,10.697912 85.565439 0 1 0.20899,0.24219 13.460498,10.697912 85.565439 0 1 0.20508,0.25 13.460498,10.697912 85.565439 0 1 0.19922,0.25781 13.460498,10.697912 85.565439 0 1 0.18359,0.24414 13.460498,10.697912 85.565439 0 1 -0.084,-0.95312 13.460498,10.697912 85.565439 0 1 -0.0254,-1.05664 13.460498,10.697912 85.565439 0 1 0.0293,-0.79492 13.460498,10.697912 85.565439 0 1 0,-0.0137 13.460498,10.697912 85.565439 0 1 0.01,-0.24218 13.460498,10.697912 85.565439 0 1 0.10547,-1.04297 13.460498,10.697912 85.565439 0 1 0.16992,-1.02539 13.460498,10.697912 85.565439 0 1 0.23633,-1.00391 13.460498,10.697912 85.565439 0 1 0.29687,-0.97266 13.460498,10.697912 85.565439 0 1 0.35938,-0.9375 13.460498,10.697912 85.565439 0 1 0.41601,-0.89843 13.460498,10.697912 85.565439 0 1 0.47266,-0.85157 13.460498,10.697912 85.565439 0 1 0.52734,-0.79882 13.460498,10.697912 85.565439 0 1 0.57617,-0.74415 13.460498,10.697912 85.565439 0 1 0.6211,-0.68164 13.460498,10.697912 85.565439 0 1 0.66601,-0.61718 13.460498,10.697912 85.565439 0 1 0.70313,-0.54688 13.460498,10.697912 85.565439 0 1 0.24219,-0.16601 13.460498,10.697912 85.565439 0 1 0.24609,-0.15821 13.460498,10.697912 85.565439 0 1 0.25,-0.15039 13.460498,10.697912 85.565439 0 1 0.25195,-0.14258 13.460498,10.697912 85.565439 0 1 0.25781,-0.13281 13.460498,10.697912 85.565439 0 1 0.25782,-0.12304 13.460498,10.697912 85.565439 0 1 0.25976,-0.11719 13.460498,10.697912 85.565439 0 1 0.26563,-0.10742 13.460498,10.697912 85.565439 0 1 0.26562,-0.0996 13.460498,10.697912 85.565439 0 1 0.26953,-0.0879 13.460498,10.697912 85.565439 0 1 0.26953,-0.082 13.460498,10.697912 85.565439 0 1 0.27344,-0.0703 13.460498,10.697912 85.565439 0 1 0.27344,-0.0625 13.460498,10.697912 85.565439 0 1 0.27539,-0.0527 13.460498,10.697912 85.565439 0 1 0.27734,-0.0469 13.460498,10.697912 85.565439 0 1 0.27735,-0.0332 13.460498,10.697912 85.565439 0 1 0.2793,-0.0273 13.460498,10.697912 85.565439 0 1 0.28124,-0.0156 13.460498,10.697912 85.565439 0 1 0.2793,-0.006 13.460498,10.697912 85.565439 0 1 0.28125,0 13.460498,10.697912 85.565439 0 1 0.2793,0.0156 13.460498,10.697912 85.565439 0 1 0.28125,0.0195 13.460498,10.697912 85.565439 0 1 0.28125,0.0293 13.460498,10.697912 85.565439 0 1 0.2793,0.0371 13.460498,10.697912 85.565439 0 1 0.27929,0.0469 13.460498,10.697912 85.565439 0 1 0.27735,0.0586 13.460498,10.697912 85.565439 0 1 0.27734,0.0645 13.460498,10.697912 85.565439 0 1 0.27539,0.0762 13.460498,10.697912 85.565439 0 1 0.27539,0.082 13.460498,10.697912 85.565439 0 1 0.27344,0.0937 13.460498,10.697912 85.565439 0 1 0.27148,0.10156 13.460498,10.697912 85.565439 0 1 0.26953,0.10938 13.460498,10.697912 85.565439 0 1 0.26758,0.11914 13.460498,10.697912 85.565439 0 1 0.26367,0.12695 13.460498,10.697912 85.565439 0 1 0.26368,0.13867 13.460498,10.697912 85.565439 0 1 0.25976,0.14453 13.460498,10.697912 85.565439 0 1 0.25586,0.15235 13.460498,10.697912 85.565439 0 1 0.25391,0.16015 13.460498,10.697912 85.565439 0 1 0.25,0.16993 13.460498,10.697912 85.565439 0 1 0.24804,0.17773 13.460498,10.697912 85.565439 0 1 0.24219,0.18555 13.460498,10.697912 85.565439 0 1 0.24024,0.19336 13.460498,10.697912 85.565439 0 1 0.23632,0.20117 13.460498,10.697912 85.565439 0 1 0.23047,0.20703 13.460498,10.697912 85.565439 0 1 0.22852,0.21484 13.460498,10.697912 85.565439 0 1 0.22461,0.22266 13.460498,10.697912 85.565439 0 1 0.21875,0.23047 13.460498,10.697912 85.565439 0 1 0.21289,0.23633 13.460498,10.697912 85.565439 0 1 0.21094,0.24414 13.460498,10.697912 85.565439 0 1 0.20312,0.25 13.460498,10.697912 85.565439 0 1 0.19922,0.25586 13.460498,10.697912 85.565439 0 1 0.19531,0.26171 13.460498,10.697912 85.565439 0 1 0.18946,0.26954 13.460498,10.697912 85.565439 0 1 0.18359,0.27539 13.460498,10.697912 85.565439 0 1 0.17578,0.27929 13.460498,10.697912 85.565439 0 1 0.17383,0.28516 13.460498,10.697912 85.565439 0 1 0.16601,0.29101 13.460498,10.697912 85.565439 0 1 0.16016,0.29688 13.460498,10.697912 85.565439 0 1 0.1543,0.30078 13.460498,10.697912 85.565439 0 1 0.14843,0.30469 13.460498,10.697912 85.565439 0 1 0.4043,0.94336 13.460498,10.697912 85.565439 0 1 0.3457,0.97656 13.460498,10.697912 85.565439 0 1 0.28516,1.00586 13.460498,10.697912 85.565439 0 1 0.22266,1.02734 13.460498,10.697912 85.565439 0 1 0.15625,1.04297 13.460498,10.697912 85.565439 0 1 0.004,0.0723 11.610796,13.916603 10.305123 0 0 -1.33007,-7.73047 11.610796,13.916603 10.305123 0 0 -9.38086,-6.53711 z"
             transform="scale(0.26458333)" />
        </g>
      </g>
    </g>
  </g>
</svg>
