<?xml version="1.0" encoding="UTF-8" standalone="no"?>
<!-- Created with Inkscape (http://www.inkscape.org/) -->

<svg
   width="161.276mm"
   height="159.614mm"
   viewBox="0 0 161.276 159.614"
   version="1.1"
   id="svg62382"
   inkscape:version="1.1 (c68e22c387, 2021-05-23)"
   sodipodi:docname="moon-off.svg"
   xmlns:inkscape="http://www.inkscape.org/namespaces/inkscape"
   xmlns:sodipodi="http://sodipodi.sourceforge.net/DTD/sodipodi-0.dtd"
   xmlns="http://www.w3.org/2000/svg"
   xmlns:svg="http://www.w3.org/2000/svg">
  <sodipodi:namedview
     id="namedview62384"
     pagecolor="#505050"
     bordercolor="#ffffff"
     borderopacity="1"
     inkscape:pageshadow="0"
     inkscape:pageopacity="0"
     inkscape:pagecheckerboard="1"
     inkscape:document-units="mm"
     showgrid="false"
     width="161.276mm"
     inkscape:zoom="0.71446409"
     inkscape:cx="333.81664"
     inkscape:cy="388.40301"
     inkscape:window-width="1920"
     inkscape:window-height="991"
     inkscape:window-x="-9"
     inkscape:window-y="-9"
     inkscape:window-maximized="1"
     inkscape:current-layer="layer1" />
  <defs
     id="defs62379" />
  <g
     inkscape:label="Layer 1"
     inkscape:groupmode="layer"
     id="layer1">
    <path
       id="path42656"
       style="fill:#ececec;fill-opacity:1;stroke:none;stroke-width:14.9076;stroke-linecap:round;stroke-linejoin:round;paint-order:stroke fill markers"
       d="m 91.387442,80.613727 a 13.337598,13.337598 0 0 0 -16.335289,9.431177 13.337598,13.337598 0 0 0 7.239079,15.527326 12.930964,12.930964 0 0 1 -3.208969,-12.341898 12.930964,12.930964 0 0 1 15.837143,-9.144646 12.930964,12.930964 0 0 1 4.004243,1.853219 13.337598,13.337598 0 0 0 -7.536207,-5.325178 z" />
    <path
       id="path3605"
       style="fill:#dadada;fill-opacity:1;stroke:none;stroke-width:13.2716;stroke-linecap:round;stroke-linejoin:round;paint-order:stroke fill markers"
       d="M 80.637572,-1.77e-4 A 80.637749,79.806968 0 0 0 29.765985,17.918497 67.788024,67.089628 0 0 1 70.680309,4.267995 67.788024,67.089628 0 0 1 136.59052,55.81724 a 5.3626539,5.3626539 0 0 1 1.3914,-0.188031 5.3626539,5.3626539 0 0 1 5.36226,5.363355 5.3626539,5.3626539 0 0 1 -5.08574,5.351342 67.788024,67.089628 0 0 1 0.20986,5.013604 67.788024,67.089628 0 0 1 -5.82898,27.16657 5.5515125,5.5515125 0 0 1 3.31399,5.08027 5.5515125,5.5515125 0 0 1 -5.55246,5.55245 5.5515125,5.5515125 0 0 1 -3.09757,-0.94655 67.788024,67.089628 0 0 1 -14.40904,15.47145 6.6774609,6.6774609 0 0 1 0.78478,3.12707 6.6774609,6.6774609 0 0 1 -6.67715,6.67824 6.6774609,6.6774609 0 0 1 -4.9666,-2.21769 5.0619697,5.0619697 0 0 1 0.0176,0.41096 5.0619697,5.0619697 0 0 1 -5.06277,5.0617 5.0619697,5.0619697 0 0 1 -4.140305,-2.1554 67.788024,67.089628 0 0 1 -22.169358,3.86158 A 67.788024,67.089628 0 0 1 2.892422,71.35751 67.788024,67.089628 0 0 1 11.144586,39.367525 80.637749,79.806968 0 0 0 3.36e-4,79.807498 80.637749,79.806968 0 0 0 80.637639,159.61414 80.637749,79.806968 0 0 0 161.27605,79.807498 80.637749,79.806968 0 0 0 80.637639,-2.19e-4 Z m 63.051998,41.852148 a 3.0780054,3.0780054 0 0 1 3.0779,3.078975 3.0780054,3.0780054 0 0 1 -3.0779,3.077897 3.0780054,3.0780054 0 0 1 -3.07789,-3.077897 3.0780054,3.0780054 0 0 1 3.07789,-3.078975 z m -16.81255,79.111479 a 5.5515125,5.5515125 0 0 1 5.55135,5.55244 5.5515125,5.5515125 0 0 1 -5.55135,5.55135 5.5515125,5.5515125 0 0 1 -5.55137,-5.55135 5.5515125,5.5515125 0 0 1 5.55137,-5.55244 z m -12.58156,15.66599 a 2.5653025,2.5653025 0 0 1 2.56528,2.56526 2.5653025,2.5653025 0 0 1 -2.56528,2.56529 2.5653025,2.5653025 0 0 1 -2.56527,-2.56529 2.5653025,2.5653025 0 0 1 2.56527,-2.56526 z" />
    <path
       id="path3607"
       style="fill:#e6e6e6;fill-opacity:1;stroke:none;stroke-width:12.6905;stroke-linecap:round;stroke-linejoin:round;paint-order:stroke fill markers"
       d="m 71.014471,29.337089 a 11.354013,11.354013 0 0 0 -11.354109,11.3541 11.354013,11.354013 0 0 0 9.373583,11.172677 11.007854,11.007854 0 0 1 -5.357898,-9.44135 11.007854,11.007854 0 0 1 11.007637,-11.008716 11.007854,11.007854 0 0 1 3.700896,0.641591 11.354013,11.354013 0 0 0 -7.370109,-2.718302 z" />
    <path
       id="path3609"
       style="fill:#e6e6e6;fill-opacity:1;stroke:none;stroke-width:10.3244;stroke-linecap:round;stroke-linejoin:round;paint-order:stroke fill markers"
       d="m 40.963197,88.644991 a 9.237047,9.237047 0 0 0 -13.063269,-2.1e-5 9.237047,9.237047 0 0 0 -1.034955,11.81958 8.95543,8.95543 0 0 1 2.34908,-8.513507 8.95543,8.95543 0 0 1 12.665252,-6.35e-4 8.95543,8.95543 0 0 1 1.759922,2.498088 9.237047,9.237047 0 0 0 -2.67603,-5.803505 z" />
    <path
       id="path3611"
       style="fill:#e6e6e6;fill-opacity:1;stroke:none;stroke-width:8.04414;stroke-linecap:round;stroke-linejoin:round;paint-order:stroke fill markers"
       d="m 63.633597,80.612183 a 7.1969508,7.1969508 0 0 0 -8.814502,5.08905 7.1969508,7.1969508 0 0 0 3.906208,8.378519 6.9775318,6.9775318 0 0 1 -1.731559,-6.659672 6.9775318,6.9775318 0 0 1 8.545696,-4.934437 6.9775318,6.9775318 0 0 1 2.160689,0.999993 7.1969508,7.1969508 0 0 0 -4.066532,-2.873453 z" />
    <circle
       style="fill:#e6e6e6;fill-opacity:1;stroke:none;stroke-width:12.6905;stroke-linecap:round;stroke-linejoin:round;paint-order:stroke fill markers"
       id="circle3613"
       cx="34.189083"
       cy="66.577766"
       r="5.9234657" />
    <circle
       style="fill:#e6e6e6;fill-opacity:1;stroke:none;stroke-width:5.57101;stroke-linecap:round;stroke-linejoin:round;paint-order:stroke fill markers"
       id="circle3615"
       cx="73.374268"
       cy="19.084772"
       r="2.6003404" />
    <circle
       style="fill:#e6e6e6;fill-opacity:1;stroke:none;stroke-width:8.53749;stroke-linecap:round;stroke-linejoin:round;paint-order:stroke fill markers"
       id="circle3617"
       cx="119.06723"
       cy="59.793049"
       r="3.9849761" />
    <circle
       style="opacity:0.658537;fill:none;stroke:#f5f5f5;stroke-width:4.23018;stroke-linecap:round;stroke-linejoin:round;stroke-miterlimit:4;stroke-dasharray:none;stroke-opacity:1;paint-order:stroke fill markers"
       id="circle3619"
       cx="136.9845"
       cy="82.89946"
       r="9.1741285" />
    <path
       id="circle3621"
       style="fill:#dadada;fill-opacity:1;stroke:none;stroke-width:11.1301;stroke-linecap:round;stroke-linejoin:round;paint-order:stroke fill markers"
       d="m 137.46268,56.010031 c -0.34017,0.001 -0.67943,0.03278 -1.01322,0.09433 0.18116,-0.01904 0.3632,-0.02771 0.54541,-0.02876 2.96183,-3.39e-4 4.8266,2.252801 4.82681,5.03245 -0.002,2.409254 -1.28666,4.479206 -3.80704,4.937038 2.73147,-0.265444 4.80792,-2.424504 4.8103,-5.001654 3.9e-4,-2.77967 -2.40043,-5.033275 -5.36226,-5.033465 z"
       sodipodi:nodetypes="ccccccc" />
    <path
       id="circle25792"
       style="fill:#dadada;fill-opacity:1;stroke:none;stroke-width:4.23018;stroke-linecap:round;stroke-linejoin:round;stroke-miterlimit:4;stroke-dasharray:none;stroke-opacity:1;paint-order:stroke fill markers"
       d="m 136.984,73.724992 a 9.1741282,9.1741282 0 0 0 -9.17356,9.174659 9.1741282,9.1741282 0 0 0 7.40181,8.995405 9.1741282,9.1741282 0 0 0 1.77175,0.178091 9.1741282,9.1741282 0 0 0 9.17466,-9.17356 9.1741282,9.1741282 0 0 0 -7.74282,-9.062073 9.1741282,9.1741282 0 0 0 -1.43184,-0.112522 z" />
    <path
       id="path41301"
       style="fill:#dadada;fill-opacity:1;stroke:none;stroke-width:11.1301;stroke-linecap:round;stroke-linejoin:round;paint-order:stroke fill markers"
       d="m 132.76586,99.27904 c -0.2907,-0.17661 -0.59671,-0.326549 -0.91358,-0.448145 0.16442,0.07847 0.32426,0.166034 0.48027,0.26005 2.52683,1.545195 2.94191,4.440315 1.49169,6.811645 -1.25914,2.05404 -3.43486,3.1497 -5.82382,2.22513 2.46865,1.19883 5.36659,0.44049 6.71338,-1.75675 1.45076,-2.37105 0.57862,-5.54627 -1.94793,-7.091909 z"
       sodipodi:nodetypes="ccccccc" />
  </g>
</svg>
