<?xml version="1.0" encoding="UTF-8" standalone="no"?>
<!-- Created with Inkscape (http://www.inkscape.org/) -->

<svg
   width="50"
   height="57.269001"
   viewBox="0 0 13.229166 15.152424"
   version="1.1"
   id="svg8267"
   inkscape:version="1.1 (c68e22c387, 2021-05-23)"
   sodipodi:docname="logo.svg"
   xmlns:inkscape="http://www.inkscape.org/namespaces/inkscape"
   xmlns:sodipodi="http://sodipodi.sourceforge.net/DTD/sodipodi-0.dtd"
   xmlns:xlink="http://www.w3.org/1999/xlink"
   xmlns="http://www.w3.org/2000/svg"
   xmlns:svg="http://www.w3.org/2000/svg">
  <sodipodi:namedview
     id="namedview8269"
     pagecolor="#505050"
     bordercolor="#ffffff"
     borderopacity="1"
     inkscape:pageshadow="0"
     inkscape:pageopacity="0"
     inkscape:pagecheckerboard="1"
     inkscape:document-units="px"
     showgrid="false"
     units="px"
     inkscape:zoom="1.4289282"
     inkscape:cx="19.945019"
     inkscape:cy="155.71112"
     inkscape:window-width="1920"
     inkscape:window-height="991"
     inkscape:window-x="-9"
     inkscape:window-y="-9"
     inkscape:window-maximized="1"
     inkscape:current-layer="layer1" />
  <defs
     id="defs8264">
    <linearGradient
       inkscape:collect="always"
       xlink:href="#linearGradient42527"
       id="linearGradient42529-8"
       x1="231.49336"
       y1="452.87482"
       x2="231.49336"
       y2="327.76132"
       gradientUnits="userSpaceOnUse"
       gradientTransform="matrix(0.07009646,0,0,0.07009646,20.86927,-148.98513)" />
    <linearGradient
       inkscape:collect="always"
       id="linearGradient42527">
      <stop
         style="stop-color:#2d5116;stop-opacity:1"
         offset="0"
         id="stop42523" />
      <stop
         style="stop-color:#5aa02c;stop-opacity:0;"
         offset="1"
         id="stop42525" />
    </linearGradient>
    <linearGradient
       inkscape:collect="always"
       xlink:href="#linearGradient50653"
       id="linearGradient50655-2"
       x1="236.31744"
       y1="592.23981"
       x2="236.31744"
       y2="465.52701"
       gradientUnits="userSpaceOnUse"
       gradientTransform="matrix(0.07009646,0,0,0.07009646,20.86927,-148.98513)" />
    <linearGradient
       inkscape:collect="always"
       id="linearGradient50653">
      <stop
         style="stop-color:#800000;stop-opacity:1"
         offset="0"
         id="stop50649" />
      <stop
         style="stop-color:#ff0000;stop-opacity:0;"
         offset="1"
         id="stop50651" />
    </linearGradient>
    <linearGradient
       inkscape:collect="always"
       xlink:href="#linearGradient62249"
       id="linearGradient62251-2"
       x1="350.06433"
       y1="522.47559"
       x2="350.06433"
       y2="398.52744"
       gradientUnits="userSpaceOnUse"
       gradientTransform="matrix(0.07009646,9.1755561e-6,-9.1755561e-6,0.07009646,20.873535,-148.9884)" />
    <linearGradient
       inkscape:collect="always"
       id="linearGradient62249">
      <stop
         style="stop-color:#0067ff;stop-opacity:1"
         offset="0"
         id="stop62245" />
      <stop
         style="stop-color:#00ccff;stop-opacity:0;"
         offset="1"
         id="stop62247" />
    </linearGradient>
    <linearGradient
       inkscape:collect="always"
       xlink:href="#linearGradient22868"
       id="linearGradient1548"
       gradientUnits="userSpaceOnUse"
       x1="277.54178"
       y1="460.64337"
       x2="296.17435"
       y2="460.44223"
       gradientTransform="matrix(0.07009646,0,0,0.07009646,20.86927,-148.98513)" />
    <linearGradient
       inkscape:collect="always"
       id="linearGradient22868">
      <stop
         style="stop-color:#ff9400;stop-opacity:1"
         offset="0"
         id="stop22864" />
      <stop
         style="stop-color:#ffcc00;stop-opacity:0;"
         offset="1"
         id="stop22866" />
    </linearGradient>
  </defs>
  <g
     inkscape:label="Layer 1"
     inkscape:groupmode="layer"
     id="layer1">
    <g
       id="g4378"
       transform="matrix(0.82173839,0,0,0.82173839,-27.762056,103.55886)">
      <g
         id="g4363">
        <path
           class="st0"
           d="m 41.212669,-122.20618 -6.462197,-3.73054 c -0.429691,-0.24814 -0.965929,0.0617 -0.965929,0.55797 v 7.46177 c 0,0.49558 0.536939,0.80541 0.965929,0.55797 l 6.462197,-3.73054 c 0.42899,-0.24884 0.42899,-0.86849 0,-1.11663 l -6.462197,-3.73054 c -0.429691,-0.24814 -0.965929,0.0617 -0.965929,0.55797 v 7.46177 c 0,0.49558 0.536939,0.80541 0.965929,0.55797 l 6.462197,-3.73054 c 0.42899,-0.24884 0.42899,-0.86849 0,-1.11663 z"
           id="path15999-9"
           style="fill:#5aa02c;fill-opacity:1;stroke:none;stroke-width:0.0700965" />
        <path
           class="st0"
           d="m 41.212669,-122.20618 -6.462197,-3.73054 c -0.429691,-0.24814 -0.965929,0.0617 -0.965929,0.55797 v 7.46177 c 0,0.49558 0.536939,0.80541 0.965929,0.55797 l 6.462197,-3.73054 c 0.42899,-0.24884 0.42899,-0.86849 0,-1.11663 l -6.462197,-3.73054 c -0.429691,-0.24814 -0.965929,0.0617 -0.965929,0.55797 v 7.46177 c 0,0.49558 0.536939,0.80541 0.965929,0.55797 l 6.462197,-3.73054 c 0.42899,-0.24884 0.42899,-0.86849 0,-1.11663 z"
           id="path42521-9"
           style="fill:url(#linearGradient42529-8);fill-opacity:1;stroke:none;stroke-width:0.0700965" />
      </g>
      <g
         id="g4355">
        <path
           class="st1"
           d="m 41.212669,-112.51885 -6.462197,-3.73054 c -0.429691,-0.24814 -0.965929,0.0617 -0.965929,0.55797 v 7.46177 c 0,0.49558 0.536939,0.80541 0.965929,0.55797 l 6.462197,-3.73054 c 0.42899,-0.24884 0.42899,-0.86849 0,-1.11663 l -6.462197,-3.73054 c -0.429691,-0.24814 -0.965929,0.0617 -0.965929,0.55797 v 7.46177 c 0,0.49558 0.536939,0.80541 0.965929,0.55797 l 6.462197,-3.73054 c 0.42899,-0.24884 0.42899,-0.86849 0,-1.11663 z"
           id="path16001-6"
           style="fill:#ff0000;fill-opacity:1;stroke-width:0.0700965" />
        <path
           class="st1"
           d="m 41.212669,-112.51885 -6.462197,-3.73054 c -0.429691,-0.24814 -0.965929,0.0617 -0.965929,0.55797 v 7.46177 c 0,0.49558 0.536939,0.80541 0.965929,0.55797 l 6.462197,-3.73054 c 0.42899,-0.24884 0.42899,-0.86849 0,-1.11663 l -6.462197,-3.73054 c -0.429691,-0.24814 -0.965929,0.0617 -0.965929,0.55797 v 7.46177 c 0,0.49558 0.536939,0.80541 0.965929,0.55797 l 6.462197,-3.73054 c 0.42899,-0.24884 0.42899,-0.86849 0,-1.11663 z"
           id="path50647-0"
           style="fill:url(#linearGradient50655-2);fill-opacity:1;stroke-width:0.0700965" />
      </g>
      <g
         id="g4351"
         transform="rotate(1.0014688,46.014104,-120.80792)">
        <path
           class="st2"
           d="M 49.953689,-116.80525"
           id="path16007-8"
           style="stroke-width:0.0700965" />
        <path
           class="st2"
           d="m 49.622119,-117.41782 -6.51954,-3.62937 c -0.43351,-0.24142 -0.96485,0.0767 -0.95712,0.57295 l 0.11628,7.46086 c 0.008,0.49552 0.54943,0.79694 0.97451,0.54285 l 6.40327,-3.83079 c 0.42575,-0.25621 0.4161,-0.87578 -0.0174,-1.1165 l -6.51954,-3.62937 c -0.43351,-0.24142 -0.96485,0.0767 -0.95712,0.57295 l 0.11628,7.46086 c 0.008,0.49552 0.54943,0.79694 0.97451,0.54285 l 6.40327,-3.83079 c 0.42575,-0.25621 0.4161,-0.87578 -0.0174,-1.1165 z"
           id="path62062-6"
           style="fill:#00ccff;fill-opacity:1;stroke-width:0.0700965" />
        <path
           class="st2"
           d="m 49.622258,-117.41732 -6.519069,-3.63024 c -0.433476,-0.24147 -0.964864,0.0766 -0.9572,0.57284 l 0.11527,7.46087 c 0.0078,0.49552 0.549319,0.79702 0.974433,0.54297 l 6.403772,-3.82994 c 0.425786,-0.25615 0.416216,-0.87573 -0.01723,-1.1165 l -6.519069,-3.63024 c -0.433476,-0.24147 -0.964864,0.0766 -0.9572,0.57284 l 0.11527,7.46087 c 0.0078,0.49552 0.549319,0.79702 0.974433,0.54297 l 6.403772,-3.82994 c 0.425786,-0.25615 0.416216,-0.87573 -0.01723,-1.1165 z"
           id="path62243-8"
           style="fill:url(#linearGradient62251-2);fill-opacity:1;stroke-width:0.0700965" />
      </g>
      <g
         id="g4359"
         transform="matrix(0.98407349,0,0,1,0.66358765,0)">
        <path
           class="st3"
           d="m 35.636861,-116.32335 5.248628,2.99655 c 0.34865,0.1988 0.78203,-0.0542 0.78009,-0.45589 l -0.0292,-6.04365 c -0.002,-0.40165 -0.43775,-0.65049 -0.78445,-0.44834 l -5.219454,3.0471 c -0.346703,0.20285 -0.344279,0.70473 0.0044,0.90423 l 5.248624,2.99655 c 0.34865,0.1988 0.78203,-0.0542 0.78009,-0.45589 l -0.0292,-6.04365 c -0.002,-0.40165 -0.43774,-0.65049 -0.78445,-0.44834 l -5.21945,3.0471 c -0.346702,0.20285 -0.344279,0.70473 0.0044,0.90423 z"
           id="path63285-7"
           style="fill:#ffcc00;fill-opacity:1;stroke-width:0.0700965" />
        <path
           class="st3"
           d="m 35.636861,-116.32335 c 1.847945,0.99885 3.553868,1.9977 5.248628,2.99655 0.34865,0.1988 0.78203,-0.0542 0.78009,-0.45589 l -0.0292,-6.04365 c -0.002,-0.40165 -0.43775,-0.65049 -0.78445,-0.44834 l -5.219454,3.0471 c -0.346703,0.20285 -0.344279,0.70473 0.0044,0.90423 l 5.248624,2.99655 c 0.34865,0.1988 0.78203,-0.0542 0.78009,-0.45589 l -0.0292,-6.04365 c -0.002,-0.40165 -0.43774,-0.65049 -0.78445,-0.44834 l -5.21945,3.0471 c -0.346702,0.20285 -0.344279,0.70473 0.0044,0.90423 z"
           id="path23449-3"
           style="fill:url(#linearGradient1548);fill-opacity:1;stroke-width:0.0700965"
           sodipodi:nodetypes="ccscccccscccsc" />
      </g>
    </g>
  </g>
</svg>
